SplineFontDB: 3.2
FontName: naYanakamikRegular
FullName: naYanakamik Regular
FamilyName: naYanakamik
Weight: Medium
Copyright: Copyright 2020 Nagarjuna G.
Version: 1.1
ItalicAngle: 0
UnderlinePosition: 0
UnderlineWidth: 0
Ascent: 800
Descent: 200
InvalidEm: 0
sfntRevision: 0x00010000
LayerCount: 2
Layer: 0 1 "Back" 1
Layer: 1 1 "Fore" 0
XUID: [1021 653 -1390472760 5824]
StyleMap: 0x0040
FSType: 0
OS2Version: 3
OS2_WeightWidthSlopeOnly: 0
OS2_UseTypoMetrics: 0
CreationTime: 1595261839
ModificationTime: 1626448352
PfmFamily: 81
TTFWeight: 500
TTFWidth: 5
LineGap: 0
VLineGap: 0
Panose: 0 0 0 0 0 0 0 0 0 0
OS2TypoAscent: 900
OS2TypoAOffset: 0
OS2TypoDescent: -250
OS2TypoDOffset: 0
OS2TypoLinegap: 0
OS2WinAscent: 926
OS2WinAOffset: 0
OS2WinDescent: 207
OS2WinDOffset: 0
HheadAscent: 900
HheadAOffset: 0
HheadDescent: -250
HheadDOffset: 0
OS2SubXSize: 650
OS2SubYSize: 699
OS2SubXOff: 0
OS2SubYOff: 140
OS2SupXSize: 650
OS2SupYSize: 699
OS2SupXOff: 0
OS2SupYOff: 479
OS2StrikeYSize: 49
OS2StrikeYPos: 258
OS2CapHeight: 494
OS2XHeight: 500
OS2Vendor: 'XXXX'
OS2CodePages: 00000001.00000000
OS2UnicodeRanges: 80000061.0000004b.00000000.00000000
Lookup: 4 0 1 "'liga' Standard Ligatures in Latin lookup 0" { "'liga' Standard Ligatures in Latin lookup 0 subtable"  } ['liga' ('DFLT' <'dflt' > 'latn' <'dflt' > ) ]
Lookup: 4 0 1 "'liga' Standard Ligatures in Latin lookup 1" { "'liga' Standard Ligatures in Latin lookup 1 subtable"  } ['liga' ('DFLT' <'dflt' > 'latn' <'dflt' > ) ]
MarkAttachClasses: 1
DEI: 91125
ShortTable: maxp 16
  1
  0
  155
  111
  5
  0
  0
  2
  0
  1
  1
  0
  64
  0
  0
  0
EndShort

StartChar: .notdef
Encoding: 0 -1 0
AltUni2: 000000.ffffffff.0
Width: 457
Flags: W
LayerCount: 2
Fore
SplineSet
20 675 m 1,0,-1
 437 675 l 1,1,-1
 437 0 l 1,2,-1
 20 0 l 1,3,-1
 20 675 l 1,0,-1
68 48 m 1,4,-1
 388 48 l 1,5,-1
 388 627 l 1,6,-1
 68 627 l 1,7,-1
 68 48 l 1,4,-1
EndSplineSet
Validated: 1
EndChar

StartChar: exclam
Encoding: 33 33 4
Width: 302
GlyphClass: 2
Flags: W
LayerCount: 2
Fore
SplineSet
248 149 m 128,-1,1
 234 149 234 149 225 159 c 0,2,3
 215 168 215 168 215 181 c 2,4,-1
 215 651 l 2,5,6
 215 664 215 664 225 674 c 128,-1,7
 235 684 235 684 248 684 c 128,-1,8
 261 684 261 684 271 674 c 0,9,10
 280 664 280 664 280 651 c 2,11,-1
 280 181 l 2,12,13
 280 168 280 168 271 159 c 0,14,0
 262 149 262 149 248 149 c 128,-1,1
239 -6 m 0,15,16
 224 -6 224 -6 213 6 c 0,17,18
 203 16 203 16 203 34 c 128,-1,19
 203 52 203 52 217 68 c 0,20,21
 230 83 230 83 247 83 c 0,22,23
 261 83 261 83 272 72 c 0,24,25
 282 61 282 61 282 44 c 0,26,27
 282 22 282 22 269 9 c 0,28,29
 256 -6 256 -6 239 -6 c 0,15,16
EndSplineSet
Validated: 1
EndChar

StartChar: quotedbl
Encoding: 34 34 5
Width: 371
GlyphClass: 2
Flags: W
LayerCount: 2
Fore
SplineSet
196 486 m 0,0,1
 183 486 183 486 174 496 c 0,2,3
 164 505 164 505 164 518 c 2,4,-1
 164 650 l 2,5,6
 164 663 164 663 174 672 c 0,7,8
 183 681 183 681 196 681 c 0,9,10
 208 681 208 681 218 672 c 0,11,12
 227 663 227 663 227 650 c 2,13,-1
 227 518 l 2,14,15
 227 505 227 505 218 496 c 0,16,17
 208 486 208 486 196 486 c 0,0,1
319 486 m 128,-1,19
 306 486 306 486 297 496 c 0,20,21
 288 505 288 505 288 518 c 2,22,-1
 288 650 l 2,23,24
 288 663 288 663 297 672 c 128,-1,25
 306 681 306 681 319 681 c 128,-1,26
 332 681 332 681 342 672 c 0,27,28
 351 663 351 663 351 650 c 2,29,-1
 351 518 l 2,30,31
 351 505 351 505 342 496 c 0,32,18
 332 486 332 486 319 486 c 128,-1,19
EndSplineSet
Validated: 1
EndChar

StartChar: numbersign
Encoding: 35 35 6
Width: 820
GlyphClass: 2
Flags: W
LayerCount: 2
Fore
SplineSet
302 -6 m 0,0,1
 288 -6 288 -6 280 3 c 0,2,3
 271 12 271 12 271 23 c 0,4,5
 271 31 271 31 275 43 c 2,6,-1
 321 201 l 1,7,-1
 211 201 l 2,8,9
 197 201 197 201 188 210 c 128,-1,10
 179 219 179 219 179 232 c 128,-1,11
 179 245 179 245 189 255 c 0,12,13
 198 264 198 264 211 264 c 2,14,-1
 339 264 l 1,15,-1
 383 417 l 1,16,-1
 255 417 l 2,17,18
 242 417 242 417 233 426 c 128,-1,19
 224 435 224 435 224 448 c 128,-1,20
 224 461 224 461 233 470 c 128,-1,21
 242 479 242 479 255 479 c 2,22,-1
 402 479 l 1,23,-1
 453 658 l 2,24,25
 456 666 456 666 465 674 c 0,26,27
 474 680 474 680 483 680 c 0,28,29
 497 680 497 680 506 671 c 128,-1,30
 515 662 515 662 515 650 c 0,31,32
 515 642 515 642 512 632 c 2,33,-1
 467 479 l 1,34,-1
 609 479 l 1,35,-1
 661 658 l 2,36,37
 662 666 662 666 673 674 c 0,38,39
 682 680 682 680 691 680 c 0,40,41
 705 680 705 680 714 671 c 0,42,43
 722 660 722 660 722 649 c 0,44,45
 722 644 722 644 719 633 c 2,46,-1
 674 479 l 1,47,-1
 769 479 l 2,48,49
 782 479 782 479 791 470 c 128,-1,50
 800 461 800 461 800 448 c 128,-1,51
 800 435 800 435 791 426 c 128,-1,52
 782 417 782 417 769 417 c 2,53,-1
 656 417 l 1,54,-1
 612 264 l 1,55,-1
 725 264 l 2,56,57
 736 264 736 264 747 255 c 0,58,59
 756 244 756 244 756 232 c 0,60,61
 756 219 756 219 747 210 c 0,62,63
 736 201 736 201 725 201 c 2,64,-1
 594 201 l 1,65,-1
 540 16 l 2,66,67
 537 7 537 7 529 0 c 0,68,69
 520 -6 520 -6 510 -6 c 0,70,71
 496 -6 496 -6 488 3 c 0,72,73
 479 12 479 12 479 25 c 0,74,75
 479 36 479 36 483 44 c 2,76,-1
 528 201 l 1,77,-1
 386 201 l 1,78,-1
 332 16 l 2,79,80
 331 7 331 7 321 1 c 0,81,82
 313 -6 313 -6 302 -6 c 0,0,1
404 264 m 1,83,-1
 546 264 l 1,84,-1
 591 417 l 1,85,-1
 449 417 l 1,86,-1
 404 264 l 1,83,-1
EndSplineSet
Validated: 1
EndChar

StartChar: dollar
Encoding: 36 36 7
Width: 659
GlyphClass: 2
Flags: W
LayerCount: 2
Fore
SplineSet
639 188 m 0,0,1
 639 140 639 140 613 99 c 0,2,3
 586 58 586 58 541 33 c 0,4,5
 493 7 493 7 441 1 c 1,6,-1
 441 -48 l 2,7,8
 441 -60 441 -60 433 -70 c 0,9,10
 424 -80 424 -80 412 -80 c 0,11,12
 399 -80 399 -80 392 -70 c 0,13,14
 384 -60 384 -60 384 -48 c 2,15,-1
 384 0 l 1,16,17
 307 5 307 5 253 42 c 0,18,19
 199 78 199 78 175 134 c 0,20,21
 170 151 170 151 170 155 c 0,22,23
 170 168 170 168 180 178 c 0,24,25
 189 187 189 187 203 187 c 0,26,27
 226 187 226 187 236 162 c 0,28,29
 249 122 249 122 291 93 c 0,30,31
 332 64 332 64 385 58 c 1,32,-1
 386 327 l 1,33,34
 207 383 207 383 207 502 c 0,35,36
 207 566 207 566 255 610 c 0,37,38
 301 653 301 653 385 664 c 1,39,-1
 385 711 l 2,40,41
 385 722 385 722 393 733 c 0,42,43
 400 742 400 742 413 742 c 0,44,45
 425 742 425 742 434 733 c 0,46,47
 443 722 443 722 443 711 c 2,48,-1
 443 667 l 1,49,50
 534 666 534 666 586 629 c 0,51,52
 637 592 637 592 637 532 c 0,53,54
 637 520 637 520 629 510 c 0,55,56
 620 501 620 501 607 501 c 0,57,58
 596 501 596 501 588 509 c 0,59,60
 580 516 580 516 578 527 c 0,61,62
 573 563 573 563 537 586 c 0,63,64
 498 610 498 610 442 611 c 1,65,-1
 441 377 l 1,66,67
 541 347 541 347 590 301 c 128,-1,68
 639 255 639 255 639 188 c 0,0,1
270 505 m 0,69,70
 270 467 270 467 298 442 c 0,71,72
 327 416 327 416 386 394 c 1,73,-1
 385 608 l 1,74,75
 329 600 329 600 300 574 c 0,76,77
 270 547 270 547 270 505 c 0,69,70
441 59 m 1,78,79
 502 67 502 67 539 101 c 128,-1,80
 576 135 576 135 576 183 c 0,81,82
 576 225 576 225 545 256 c 0,83,84
 513 288 513 288 441 310 c 1,85,-1
 441 59 l 1,78,79
EndSplineSet
Validated: 1
EndChar

StartChar: percent
Encoding: 37 37 8
Width: 795
GlyphClass: 2
Flags: W
LayerCount: 2
Fore
SplineSet
316 410 m 0,0,1
 279 410 279 410 248 429 c 0,2,3
 216 447 216 447 198 479 c 0,4,5
 179 510 179 510 179 547 c 0,6,7
 179 585 179 585 198 616 c 0,8,9
 216 647 216 647 248 667 c 0,10,11
 280 685 280 685 316 685 c 0,12,13
 354 685 354 685 385 667 c 0,14,15
 416 648 416 648 436 616 c 0,16,17
 454 584 454 584 454 547 c 128,-1,18
 454 510 454 510 436 479 c 0,19,20
 416 447 416 447 385 429 c 0,21,22
 354 410 354 410 316 410 c 0,0,1
305 -6 m 0,23,24
 292 -6 292 -6 284 3 c 0,25,26
 276 11 276 11 276 22 c 0,27,28
 276 30 276 30 281 40 c 2,29,-1
 628 666 l 2,30,31
 637 681 637 681 653 681 c 0,32,33
 665 681 665 681 674 672 c 0,34,35
 682 662 682 662 682 652 c 0,36,37
 682 646 682 646 679 638 c 2,38,-1
 330 9 l 2,39,40
 322 -6 322 -6 305 -6 c 0,23,24
316 470 m 0,41,42
 348 470 348 470 371 493 c 0,43,44
 393 515 393 515 393 547 c 0,45,46
 393 580 393 580 371 602 c 128,-1,47
 349 624 349 624 316 624 c 0,48,49
 284 624 284 624 262 602 c 0,50,51
 239 579 239 579 239 547 c 0,52,53
 239 516 239 516 262 493 c 128,-1,54
 285 470 285 470 316 470 c 0,41,42
637 -14 m 0,55,56
 600 -14 600 -14 569 5 c 0,57,58
 537 23 537 23 519 55 c 0,59,60
 500 86 500 86 500 124 c 128,-1,61
 500 162 500 162 519 193 c 0,62,63
 537 224 537 224 569 244 c 0,64,65
 600 262 600 262 637 262 c 128,-1,66
 674 262 674 262 706 244 c 0,67,68
 738 224 738 224 757 193 c 0,69,70
 775 162 775 162 775 124 c 128,-1,71
 775 86 775 86 757 55 c 0,72,73
 737 23 737 23 706 5 c 0,74,75
 675 -14 675 -14 637 -14 c 0,55,56
637 47 m 0,76,77
 669 47 669 47 692 70 c 0,78,79
 714 92 714 92 714 124 c 0,80,81
 714 157 714 157 692 179 c 128,-1,82
 670 201 670 201 637 201 c 0,83,84
 605 201 605 201 583 179 c 0,85,86
 560 156 560 156 560 124 c 0,87,88
 560 93 560 93 583 70 c 128,-1,89
 606 47 606 47 637 47 c 0,76,77
EndSplineSet
Validated: 1
EndChar

StartChar: ampersand
Encoding: 38 38 9
Width: 730
GlyphClass: 2
Flags: W
LayerCount: 2
Fore
SplineSet
382 -10 m 0,0,1
 332 -10 332 -10 285 14 c 0,2,3
 238 37 238 37 208 79 c 128,-1,4
 178 121 178 121 178 176 c 0,5,6
 178 230 178 230 200 268 c 0,7,8
 222 307 222 307 254 332 c 0,9,10
 288 358 288 358 336 383 c 1,11,12
 264 467 264 467 264 538 c 0,13,14
 264 575 264 575 285 608 c 0,15,16
 307 642 307 642 340 661 c 0,17,18
 375 681 375 681 412 681 c 0,19,20
 450 681 450 681 485 661 c 0,21,22
 518 642 518 642 540 608 c 0,23,24
 561 575 561 575 561 540 c 0,25,26
 561 482 561 482 531 443 c 0,27,28
 502 405 502 405 433 367 c 1,29,-1
 568 206 l 1,30,31
 578 227 578 227 590 267 c 0,32,33
 596 287 596 287 603 294 c 0,34,35
 609 301 609 301 623 301 c 0,36,37
 636 301 636 301 644 293 c 128,-1,38
 652 285 652 285 652 272 c 128,-1,39
 652 259 652 259 638 217 c 0,40,41
 624 180 624 180 611 155 c 1,42,-1
 704 43 l 2,43,44
 710 36 710 36 710 24 c 0,45,46
 710 13 710 13 702 3 c 0,47,48
 693 -6 693 -6 680 -6 c 0,49,50
 674 -6 674 -6 668 -3 c 0,51,52
 663 -1 663 -1 657 5 c 2,53,-1
 577 100 l 1,54,55
 531 36 531 36 476 13 c 128,-1,56
 421 -10 421 -10 382 -10 c 0,0,1
391 413 m 1,57,58
 442 438 442 438 466 461 c 0,59,60
 490 482 490 482 496 499 c 0,61,62
 501 517 501 517 501 538 c 0,63,64
 501 570 501 570 474 595 c 0,65,66
 446 620 446 620 412 620 c 0,67,68
 380 620 380 620 352 596 c 128,-1,69
 324 572 324 572 324 538 c 0,70,71
 324 508 324 508 345 475 c 0,72,73
 361 446 361 446 391 413 c 1,57,58
382 51 m 128,-1,75
 412 51 412 51 457 71 c 0,76,77
 499 91 499 91 537 148 c 1,78,-1
 379 338 l 1,79,80
 340 317 340 317 303 292 c 0,81,82
 273 271 273 271 257 244 c 0,83,84
 239 216 239 216 239 176 c 0,85,86
 239 137 239 137 262 108 c 0,87,88
 286 77 286 77 318 65 c 0,89,74
 352 51 352 51 382 51 c 128,-1,75
EndSplineSet
Validated: 1
EndChar

StartChar: quotesingle
Encoding: 39 39 10
Width: 270
GlyphClass: 2
Flags: W
LayerCount: 2
Fore
SplineSet
219 486 m 128,-1,1
 206 486 206 486 197 495 c 128,-1,2
 188 504 188 504 188 518 c 2,3,-1
 188 650 l 2,4,5
 188 663 188 663 197 672 c 128,-1,6
 206 681 206 681 219 681 c 128,-1,7
 232 681 232 681 241 672 c 128,-1,8
 250 663 250 663 250 650 c 2,9,-1
 250 518 l 2,10,11
 250 505 250 505 241 496 c 0,12,0
 232 486 232 486 219 486 c 128,-1,1
EndSplineSet
Validated: 1
EndChar

StartChar: parenleft
Encoding: 40 40 11
Width: 443
GlyphClass: 2
Flags: W
LayerCount: 2
Fore
SplineSet
379 -112 m 0,0,1
 361 -112 361 -112 351 -99 c 0,2,3
 180 105 180 105 180 344 c 0,4,5
 180 465 180 465 230 579 c 0,6,7
 278 689 278 689 366 772 c 0,8,9
 382 785 382 785 392 785 c 0,10,11
 404 785 404 785 414 776 c 0,12,13
 423 766 423 766 423 753 c 128,-1,14
 423 740 423 740 412 729 c 0,15,16
 372 692 372 692 336 639 c 0,17,18
 297 581 297 581 270 506 c 0,19,20
 243 430 243 430 243 344 c 0,21,22
 243 229 243 229 287 124 c 0,23,24
 331 18 331 18 399 -59 c 0,25,26
 409 -69 409 -69 409 -82 c 0,27,28
 409 -94 409 -94 400 -103 c 0,29,30
 390 -112 390 -112 379 -112 c 0,0,1
EndSplineSet
Validated: 1
EndChar

StartChar: parenright
Encoding: 41 41 12
Width: 426
GlyphClass: 2
Flags: W
LayerCount: 2
Fore
SplineSet
208 -112 m 0,0,1
 196 -112 196 -112 187 -103 c 0,2,3
 177 -94 177 -94 177 -82 c 0,4,5
 177 -68 177 -68 187 -59 c 0,6,7
 252 8 252 8 298 118 c 0,8,9
 344 226 344 226 344 344 c 0,10,11
 344 463 344 463 295 562 c 0,12,13
 245 663 245 663 175 729 c 0,14,15
 163 741 163 741 163 753 c 0,16,17
 163 766 163 766 173 776 c 0,18,19
 182 785 182 785 195 785 c 0,20,21
 204 785 204 785 220 772 c 0,22,23
 308 689 308 689 356 579 c 0,24,25
 406 465 406 465 406 344 c 0,26,27
 406 216 406 216 359 102 c 0,28,29
 311 -12 311 -12 235 -99 c 0,30,31
 226 -112 226 -112 208 -112 c 0,0,1
EndSplineSet
Validated: 1
EndChar

StartChar: asterisk
Encoding: 42 42 13
Width: 470
GlyphClass: 2
Flags: W
LayerCount: 2
Fore
SplineSet
243 437 m 0,0,1
 232 437 232 437 222 445 c 0,2,3
 213 452 213 452 213 465 c 0,4,5
 213 485 213 485 235 507 c 0,6,7
 257 531 257 531 285 547 c 1,8,9
 251 552 251 552 221 560 c 0,10,11
 183 571 183 571 183 597 c 0,12,13
 183 610 183 610 192 619 c 0,14,15
 200 628 200 628 214 628 c 0,16,17
 234 628 234 628 256 613 c 0,18,19
 271 604 271 604 298 584 c 1,20,21
 293 593 293 593 288 614 c 0,22,23
 283 636 283 636 283 653 c 0,24,25
 283 673 283 673 293 683 c 0,26,27
 302 693 302 693 316 693 c 0,28,29
 331 693 331 693 340 683 c 0,30,31
 349 672 349 672 349 654 c 0,32,33
 349 632 349 632 345 615 c 0,34,35
 339 588 339 588 337 584 c 1,36,37
 360 600 360 600 382 614 c 0,38,39
 404 626 404 626 419 626 c 0,40,41
 431 626 431 626 441 618 c 0,42,43
 450 609 450 609 450 597 c 0,44,45
 450 569 450 569 413 559 c 0,46,47
 395 552 395 552 378 551 c 2,48,-1
 350 547 l 1,49,50
 370 536 370 536 392 514 c 0,51,52
 419 490 419 490 419 468 c 0,53,54
 419 456 419 456 411 446 c 0,55,56
 404 437 404 437 390 437 c 0,57,58
 378 437 378 437 367 445 c 0,59,60
 359 450 359 450 344 471 c 0,61,62
 330 490 330 490 317 525 c 1,63,64
 306 494 306 494 290 471 c 0,65,66
 262 437 262 437 243 437 c 0,0,1
EndSplineSet
Validated: 1
EndChar

StartChar: plus
Encoding: 43 43 14
Width: 531
GlyphClass: 2
Flags: W
LayerCount: 2
Fore
SplineSet
342 78 m 128,-1,1
 329 78 329 78 320 87 c 0,2,3
 311 94 311 94 311 108 c 2,4,-1
 311 215 l 1,5,-1
 204 215 l 2,6,7
 191 215 191 215 182 224 c 0,8,9
 173 232 173 232 173 245 c 128,-1,10
 173 258 173 258 182 267 c 0,11,12
 192 275 192 275 204 275 c 2,13,-1
 311 275 l 1,14,-1
 311 372 l 2,15,16
 311 385 311 385 320 394 c 0,17,18
 330 402 330 402 342 402 c 128,-1,19
 354 402 354 402 364 394 c 0,20,21
 372 384 372 384 372 372 c 2,22,-1
 372 275 l 1,23,-1
 481 275 l 2,24,25
 492 275 492 275 502 267 c 0,26,27
 511 258 511 258 511 245 c 128,-1,28
 511 232 511 232 502 224 c 0,29,30
 493 215 493 215 481 215 c 2,31,-1
 372 215 l 1,32,-1
 372 108 l 2,33,34
 372 95 372 95 364 87 c 0,35,0
 355 78 355 78 342 78 c 128,-1,1
EndSplineSet
Validated: 1
EndChar

StartChar: comma
Encoding: 44 44 15
Width: 264
GlyphClass: 2
Flags: W
LayerCount: 2
Fore
SplineSet
178 -98 m 0,0,1
 167 -98 167 -98 159 -90 c 128,-1,2
 151 -82 151 -82 151 -72 c 0,3,4
 151 -70 151 -70 153 -62 c 2,5,-1
 176 -1 l 1,6,7
 165 15 165 15 165 29 c 0,8,9
 165 49 165 49 178 63 c 0,10,11
 192 77 192 77 208 77 c 0,12,13
 223 77 223 77 234 66 c 0,14,15
 244 56 244 56 244 42 c 128,-1,16
 244 28 244 28 240 16 c 0,17,18
 236 2 236 2 222 -29 c 2,19,-1
 213 -51 l 2,20,21
 203 -79 203 -79 196 -89 c 0,22,23
 190 -98 190 -98 178 -98 c 0,0,1
EndSplineSet
Validated: 1
EndChar

StartChar: hyphen
Encoding: 45 45 16
Width: 493
GlyphClass: 2
Flags: W
LayerCount: 2
Fore
SplineSet
200 214 m 2,0,1
 188 214 188 214 179 223 c 0,2,3
 169 232 169 232 169 244 c 128,-1,4
 169 256 169 256 179 265 c 0,5,6
 188 274 188 274 200 274 c 2,7,-1
 443 274 l 2,8,9
 455 274 455 274 465 266 c 0,10,11
 473 256 473 256 473 244 c 0,12,13
 473 233 473 233 465 223 c 0,14,15
 456 214 456 214 443 214 c 2,16,-1
 200 214 l 2,0,1
EndSplineSet
Validated: 1
EndChar

StartChar: period
Encoding: 46 46 17
Width: 253
GlyphClass: 2
Flags: W
LayerCount: 2
Fore
SplineSet
190 -6 m 128,-1,1
 174 -6 174 -6 164 6 c 0,2,3
 154 17 154 17 154 35 c 0,4,5
 154 55 154 55 167 69 c 0,6,7
 181 83 181 83 197 83 c 0,8,9
 212 83 212 83 223 72 c 0,10,11
 233 61 233 61 233 44 c 0,12,13
 233 22 233 22 220 9 c 0,14,0
 206 -6 206 -6 190 -6 c 128,-1,1
EndSplineSet
Validated: 1
EndChar

StartChar: slash
Encoding: 47 47 18
Width: 545
GlyphClass: 2
Flags: W
LayerCount: 2
Fore
SplineSet
179 -122 m 4,0,1
 167 -122 167 -122 159 -114 c 132,-1,2
 151 -106 151 -106 151 -95 c 4,3,4
 151 -86 151 -86 154 -79 c 6,5,-1
 471 672 l 6,6,7
 479 686 479 686 497 686 c 4,8,9
 507 686 507 686 517 678 c 4,10,11
 525 668 525 668 525 660 c 4,12,13
 525 651 525 651 521 644 c 6,14,-1
 519 640 l 5,15,-1
 517 636 l 5,16,-1
 516 635 l 5,17,-1
 203 -108 l 6,18,19
 202 -115 202 -115 195 -118 c 4,20,21
 188 -122 188 -122 179 -122 c 4,0,1
EndSplineSet
Validated: 1
EndChar

StartChar: zero
Encoding: 48 48 19
Width: 683
GlyphClass: 2
Flags: W
LayerCount: 2
Fore
SplineSet
414 -6 m 0,0,1
 350 -6 350 -6 297 39 c 0,2,3
 245 82 245 82 216 158 c 0,4,5
 186 233 186 233 186 319 c 0,6,7
 186 415 186 415 220 496 c 0,8,9
 254 581 254 581 311 629 c 0,10,11
 369 679 369 679 436 679 c 0,12,13
 499 679 499 679 552 635 c 0,14,15
 604 591 604 591 634 515 c 0,16,17
 663 439 663 439 663 353 c 0,18,19
 663 258 663 258 630 176 c 0,20,21
 595 93 595 93 539 44 c 0,22,23
 480 -6 480 -6 414 -6 c 0,0,1
414 56 m 0,24,25
 464 56 464 56 507 96 c 128,-1,26
 550 136 550 136 577 204 c 0,27,28
 603 273 603 273 603 351 c 0,29,30
 603 422 603 422 581 482 c 128,-1,31
 559 542 559 542 521 580 c 0,32,33
 484 617 484 617 436 617 c 0,34,35
 386 617 386 617 343 577 c 0,36,37
 298 535 298 535 273 469 c 0,38,39
 247 399 247 399 247 321 c 0,40,41
 247 251 247 251 269 191 c 0,42,43
 289 132 289 132 328 93 c 0,44,45
 365 56 365 56 414 56 c 0,24,25
423 306 m 128,-1,47
 410 306 410 306 401 312 c 128,-1,48
 392 318 392 318 394 324 c 2,49,-1
 398 354 l 2,50,51
 400 361 400 361 409 365 c 0,52,53
 417 369 417 369 430 369 c 0,54,55
 445 369 445 369 453 362 c 128,-1,56
 461 355 461 355 460 347 c 2,57,-1
 455 321 l 2,58,59
 454 314 454 314 445 310 c 128,-1,46
 436 306 436 306 423 306 c 128,-1,47
EndSplineSet
Validated: 1
EndChar

StartChar: one
Encoding: 49 49 20
Width: 360
GlyphClass: 2
Flags: W
LayerCount: 2
Fore
SplineSet
289 10 m 2,0,1
 289 0 289 0 314 0 c 0,2,3
 340 0 340 0 340 10 c 2,4,-1
 340 553 l 1,5,-1
 340 565 l 1,6,-1
 340 577 l 1,7,-1
 340 584 l 2,8,9
 340 586 340 586 338 586 c 0,10,11
 330 629 330 629 292 657 c 128,-1,12
 254 685 254 685 191 685 c 0,13,14
 119 685 119 685 79.5 649 c 128,-1,15
 40 613 40 613 40 563 c 0,16,17
 40 514 40 514 79.5 479.5 c 128,-1,18
 119 445 119 445 191 445 c 0,19,20
 249 445 249 445 289 471 c 1,21,-1
 289 10 l 2,0,1
191 474 m 0,22,23
 153 474 153 474 122 502 c 128,-1,24
 91 530 91 530 91 565 c 0,25,26
 91 599 91 599 122 626.5 c 128,-1,27
 153 654 153 654 191 654 c 0,28,29
 228 654 228 654 257.5 626.5 c 128,-1,30
 287 599 287 599 289 565 c 2,31,-1
 289 563 l 2,32,33
 287 530 287 530 257 502 c 128,-1,34
 227 474 227 474 191 474 c 0,22,23
EndSplineSet
Validated: 9
EndChar

StartChar: two
Encoding: 50 50 21
Width: 560
GlyphClass: 2
Flags: W
LayerCount: 2
Fore
SplineSet
178 675 m 0,0,1
 234 675 234 675 270 649.5 c 128,-1,2
 306 624 306 624 313 587 c 1,3,-1
 313 584 l 1,4,-1
 313 577 l 1,5,-1
 313 567 l 1,6,-1
 313 557 l 1,7,-1
 313 513 l 1,8,-1
 313 192 l 1,9,10
 354 216 354 216 402 216 c 0,11,12
 468 216 468 216 504 184 c 128,-1,13
 540 152 540 152 540 108 c 128,-1,14
 540 64 540 64 504 32 c 128,-1,15
 468 0 468 0 402 0 c 0,16,17
 346 0 346 0 311 25.5 c 128,-1,18
 276 51 276 51 269 88 c 0,19,20
 267 89 267 89 267 91 c 2,21,-1
 267 98 l 1,22,-1
 267 108 l 1,23,-1
 267 118 l 1,24,-1
 267 223 l 1,25,-1
 267 483 l 1,26,27
 226 459 226 459 178 459 c 0,28,29
 113 459 113 459 76.5 491 c 128,-1,30
 40 523 40 523 40 567 c 128,-1,31
 40 611 40 611 76 643 c 128,-1,32
 112 675 112 675 178 675 c 0,0,1
178 648 m 0,33,34
 143 648 143 648 115 622.5 c 128,-1,35
 87 597 87 597 87 567 c 0,36,37
 87 536 87 536 115 511 c 128,-1,38
 143 486 143 486 178 486 c 0,39,40
 211 486 211 486 239 511 c 128,-1,41
 267 536 267 536 267 567 c 2,42,-1
 267 569 l 2,43,44
 267 598 267 598 239 623 c 128,-1,45
 211 648 211 648 178 648 c 0,33,34
402 189 m 0,46,47
 369 189 369 189 342 164 c 128,-1,48
 315 139 315 139 313 108 c 2,49,-1
 313 106 l 2,50,51
 315 76 315 76 342.5 51.5 c 128,-1,52
 370 27 370 27 402 27 c 0,53,54
 437 27 437 27 465 52 c 128,-1,55
 493 77 493 77 493 108 c 0,56,57
 493 138 493 138 465 163.5 c 128,-1,58
 437 189 437 189 402 189 c 0,46,47
EndSplineSet
Validated: 1
EndChar

StartChar: three
Encoding: 51 51 22
Width: 510
GlyphClass: 2
Flags: W
LayerCount: 2
Fore
SplineSet
40 665 m 2,0,1
 40 675 40 675 68 675 c 0,2,3
 95 675 95 675 95 665 c 2,4,-1
 95 15 l 2,5,6
 95 3 95 3 68 3 c 0,7,8
 40 3 40 3 40 15 c 2,9,-1
 40 665 l 2,0,1
231 662 m 2,10,11
 231 673 231 673 259 673 c 0,12,13
 286 673 286 673 286 662 c 2,14,-1
 286 13 l 2,15,16
 286 2 286 2 259 2 c 0,17,18
 231 2 231 2 231 13 c 2,19,-1
 231 662 l 2,10,11
435 660 m 2,20,21
 435 672 435 672 462 672 c 0,22,23
 490 672 490 672 490 660 c 2,24,-1
 490 10 l 2,25,26
 490 0 490 0 462 0 c 0,27,28
 435 0 435 0 435 10 c 2,29,-1
 435 660 l 2,20,21
EndSplineSet
Validated: 1
EndChar

StartChar: four
Encoding: 52 52 23
Width: 560
GlyphClass: 2
Flags: W
LayerCount: 2
Fore
SplineSet
53 508 m 2,0,1
 40 502 40 502 40 472 c 0,2,3
 40 447 40 447 53 442 c 2,4,-1
 444 337 l 1,5,-1
 53 233 l 2,6,7
 40 230 40 230 40 201 c 0,8,9
 40 173 40 173 53 169 c 2,10,-1
 517 2 l 2,11,12
 521 0 521 0 524 0 c 0,13,14
 540 0 540 0 540 32 c 0,15,16
 540 58 540 58 525 62 c 2,17,-1
 123 208 l 1,18,-1
 527 316 l 2,19,20
 540 317 540 317 540 348 c 0,21,22
 540 374 540 374 525 380 c 2,23,-1
 123 488 l 1,24,-1
 530 631 l 2,25,26
 540 635 540 635 540 653 c 0,27,28
 540 675 540 675 530 675 c 0,29,30
 527 675 527 675 525 673 c 2,31,-1
 53 508 l 2,0,1
EndSplineSet
Validated: 9
EndChar

StartChar: five
Encoding: 53 53 24
Width: 510
GlyphClass: 2
Flags: W
LayerCount: 2
Fore
SplineSet
86 675 m 2,0,-1
 179 675 l 2,1,2
 259 675 259 675 320.5 648 c 128,-1,3
 382 621 382 621 418 573.5 c 128,-1,4
 454 526 454 526 472 466 c 128,-1,5
 490 406 490 406 490 336 c 0,6,7
 490 189 490 189 408 94.5 c 128,-1,8
 326 0 326 0 167 0 c 2,9,-1
 86 0 l 2,10,11
 67 0 67 0 53.5 6.5 c 128,-1,12
 40 13 40 13 40 22 c 2,13,-1
 40 653 l 2,14,15
 40 662 40 662 53.5 668.5 c 128,-1,16
 67 675 67 675 86 675 c 2,0,-1
179 611 m 2,17,-1
 111 611 l 1,18,-1
 111 66 l 1,19,-1
 167 66 l 2,20,21
 292 66 292 66 359.5 142.5 c 128,-1,22
 427 219 427 219 427 338 c 0,23,24
 425 457 425 457 363.5 534 c 128,-1,25
 302 611 302 611 179 611 c 2,17,-1
EndSplineSet
Validated: 1
EndChar

StartChar: six
Encoding: 54 54 25
Width: 460
GlyphClass: 2
Flags: W
LayerCount: 2
Fore
SplineSet
161 675 m 0,0,1
 211 675 211 675 241 646 c 128,-1,2
 271 617 271 617 277 570 c 1,3,-1
 279 569 l 1,4,-1
 279 545 l 1,5,-1
 279 319 l 1,6,-1
 413 345 l 2,7,8
 422 347 422 347 430 339 c 0,9,10
 439 330 439 330 440 319 c 128,-1,11
 441 308 441 308 435 297 c 0,12,13
 431 287 431 287 420 284 c 2,14,-1
 279 257 l 1,15,-1
 279 10 l 2,16,17
 279 0 279 0 259 0 c 128,-1,18
 239 0 239 0 239 10 c 2,19,-1
 239 250 l 1,20,-1
 118 227 l 2,21,22
 110 224 110 224 101 232 c 0,23,24
 94 240 94 240 93 251 c 0,25,26
 91 264 91 264 97 274 c 0,27,28
 101 284 101 284 111 287 c 2,29,-1
 239 311 l 1,30,-1
 239 464 l 1,31,32
 208 439 208 439 161 439 c 0,33,34
 103 439 103 439 71.5 473 c 128,-1,35
 40 507 40 507 40 555 c 0,36,37
 40 605 40 605 71.5 640 c 128,-1,38
 103 675 103 675 161 675 c 0,0,1
161 645 m 0,39,40
 130 645 130 645 105.5 617.5 c 128,-1,41
 81 590 81 590 81 557 c 0,42,43
 81 522 81 522 105.5 494.5 c 128,-1,44
 130 467 130 467 161 467 c 0,45,46
 190 467 190 467 213.5 494.5 c 128,-1,47
 237 522 237 522 239 555 c 2,48,-1
 239 557 l 2,49,50
 237 590 237 590 213.5 617.5 c 128,-1,51
 190 645 190 645 161 645 c 0,39,40
EndSplineSet
Validated: 1
EndChar

StartChar: seven
Encoding: 55 55 26
Width: 560
GlyphClass: 2
Flags: W
LayerCount: 2
Fore
SplineSet
178 672 m 0,0,1
 235 672 235 672 270.5 641 c 128,-1,2
 306 610 306 610 313 563 c 1,3,-1
 313 544 l 1,4,-1
 313 478 l 1,5,-1
 311 367 l 1,6,-1
 403 424 l 2,7,8
 421 431 421 431 432 426 c 0,9,10
 441 423 441 423 447 411 c 0,11,12
 452 395 452 395 447 386 c 0,13,14
 443 377 443 377 422 365 c 0,15,16
 312 299 312 299 312 298 c 2,17,-1
 313 233 l 1,18,19
 354 260 354 260 402 260 c 0,20,21
 468 260 468 260 504 222 c 128,-1,22
 540 184 540 184 540 132 c 0,23,24
 540 79 540 79 504 40.5 c 128,-1,25
 468 2 468 2 402 2 c 0,26,27
 348 2 348 2 313 35.5 c 128,-1,28
 278 69 278 69 269 108 c 2,29,-1
 267 119 l 1,30,-1
 267 132 l 1,31,-1
 270 278 l 1,32,-1
 163 207 l 1,33,34
 148 204 148 204 135 211 c 0,35,36
 123 216 123 216 118 231 c 0,37,38
 115 247 115 247 122 258 c 0,39,40
 132 268 132 268 144 275 c 2,41,-1
 266 343 l 1,42,-1
 267 443 l 1,43,44
 226 414 226 414 178 414 c 0,45,46
 113 414 113 414 76.5 452.5 c 128,-1,47
 40 491 40 491 40 544 c 0,48,49
 40 596 40 596 76 634 c 128,-1,50
 112 672 112 672 178 672 c 0,0,1
174 626 m 0,51,52
 139 626 139 626 111 600 c 128,-1,53
 83 574 83 574 83 542 c 128,-1,54
 83 510 83 510 111 483.5 c 128,-1,55
 139 457 139 457 174 457 c 0,56,57
 207 457 207 457 235 483.5 c 128,-1,58
 263 510 263 510 263 542 c 2,59,-1
 263 543 l 2,60,61
 263 574 263 574 235 600 c 128,-1,62
 207 626 207 626 174 626 c 0,51,52
406 216 m 0,63,64
 373 216 373 216 346 190 c 128,-1,65
 319 164 319 164 317 132 c 2,66,-1
 317 130 l 2,67,68
 319 99 319 99 346 73.5 c 128,-1,69
 373 48 373 48 406 48 c 0,70,71
 440 48 440 48 468.5 74 c 128,-1,72
 497 100 497 100 497 132 c 128,-1,73
 497 164 497 164 468.5 190 c 128,-1,74
 440 216 440 216 406 216 c 0,63,64
EndSplineSet
Validated: 1
EndChar

StartChar: eight
Encoding: 56 56 27
Width: 560
GlyphClass: 2
Flags: W
LayerCount: 2
Fore
SplineSet
129 665 m 2,0,1
 129 675 129 675 149 675 c 128,-1,2
 169 675 169 675 169 665 c 2,3,-1
 169 341 l 1,4,-1
 268 355 l 1,5,-1
 268 661 l 2,6,7
 268 673 268 673 287 673 c 0,8,9
 307 673 307 673 307 661 c 2,10,-1
 307 361 l 1,11,-1
 415 376 l 1,12,-1
 415 660 l 2,13,14
 415 672 415 672 435 672 c 128,-1,15
 455 672 455 672 455 660 c 2,16,-1
 455 382 l 1,17,-1
 501 388 l 2,18,19
 514 391 514 391 526 382 c 0,20,21
 537 375 537 375 540 361 c 0,22,23
 542 348 542 348 533 338 c 0,24,25
 526 327 526 327 512 325 c 2,26,-1
 455 316 l 1,27,-1
 455 10 l 2,28,29
 455 0 455 0 435 0 c 128,-1,30
 415 0 415 0 415 10 c 2,31,-1
 415 311 l 1,32,-1
 307 296 l 1,33,-1
 307 14 l 2,34,35
 307 2 307 2 287 2 c 0,36,37
 268 2 268 2 268 14 c 2,38,-1
 268 290 l 1,39,-1
 169 276 l 1,40,-1
 169 15 l 2,41,42
 169 3 169 3 149 3 c 128,-1,43
 129 3 129 3 129 15 c 2,44,-1
 129 270 l 1,45,-1
 77 263 l 2,46,47
 65 262 65 262 53 269 c 0,48,49
 43 276 43 276 40 289 c 0,50,51
 38 302 38 302 46 313 c 0,52,53
 52 323 52 323 67 327 c 2,54,-1
 129 336 l 1,55,-1
 129 665 l 2,0,1
EndSplineSet
Validated: 1
EndChar

StartChar: nine
Encoding: 57 57 28
Width: 560
GlyphClass: 2
Flags: W
LayerCount: 2
Fore
SplineSet
338 675 m 2,0,-1
 343 675 l 2,1,2
 351 674 351 674 356 663 c 0,3,4
 362 654 362 654 359 642 c 2,5,-1
 338 542 l 1,6,-1
 525 589 l 2,7,8
 527 590 527 590 530 590 c 0,9,10
 540 590 540 590 540 574 c 0,11,12
 540 562 540 562 530 559 c 2,13,-1
 331 508 l 1,14,-1
 313 418 l 1,15,-1
 525 377 l 2,16,17
 540 374 540 374 540 354 c 0,18,19
 540 332 540 332 527 331 c 2,20,-1
 285 284 l 1,21,-1
 270 214 l 1,22,-1
 525 148 l 2,23,24
 540 144 540 144 540 126 c 0,25,26
 540 103 540 103 524 103 c 0,27,28
 521 103 521 103 517 104 c 2,29,-1
 261 171 l 1,30,-1
 231 24 l 2,31,32
 228 12 228 12 220 6 c 0,33,34
 211 -1 211 -1 203 0 c 0,35,36
 194 2 194 2 189 11 c 0,37,38
 183 20 183 20 186 31 c 2,39,-1
 217 182 l 1,40,-1
 53 225 l 2,41,42
 40 227 40 227 40 248 c 128,-1,43
 40 269 40 269 53 271 c 2,44,-1
 243 308 l 1,45,-1
 258 382 l 1,46,-1
 53 422 l 2,47,48
 40 427 40 427 40 444 c 0,49,50
 40 465 40 465 53 470 c 2,51,-1
 289 529 l 1,52,-1
 314 649 l 2,53,54
 315 660 315 660 324 669 c 0,55,56
 334 675 334 675 338 675 c 2,0,-1
282 495 m 1,57,-1
 123 455 l 1,58,-1
 268 427 l 1,59,-1
 282 495 l 1,57,-1
303 374 m 1,60,-1
 292 317 l 1,61,-1
 444 347 l 1,62,-1
 303 374 l 1,60,-1
236 275 m 1,63,-1
 123 253 l 1,64,-1
 226 226 l 1,65,-1
 236 275 l 1,63,-1
EndSplineSet
Validated: 1
EndChar

StartChar: colon
Encoding: 58 58 29
Width: 281
GlyphClass: 2
Flags: W
LayerCount: 2
Fore
SplineSet
218 347 m 256,0,1
 202 347 202 347 193 359 c 0,2,3
 183 369 183 369 183 388 c 128,-1,4
 183 407 183 407 196 421 c 0,5,6
 210 436 210 436 226 436 c 0,7,8
 240 436 240 436 251 425 c 0,9,10
 261 415 261 415 261 397 c 0,11,12
 261 375 261 375 248 362 c 0,13,14
 234 347 234 347 218 347 c 256,0,1
189 -6 m 0,15,16
 173 -6 173 -6 164 6 c 0,17,18
 154 16 154 16 154 35 c 0,19,20
 154 55 154 55 167 69 c 0,21,22
 181 83 181 83 197 83 c 0,23,24
 212 83 212 83 223 72 c 0,25,26
 233 61 233 61 233 44 c 0,27,28
 233 22 233 22 220 9 c 0,29,30
 206 -6 206 -6 189 -6 c 0,15,16
EndSplineSet
Validated: 1
EndChar

StartChar: semicolon
Encoding: 59 59 30
Width: 299
GlyphClass: 2
Flags: W
LayerCount: 2
Fore
SplineSet
236 347 m 128,-1,1
 220 347 220 347 211 359 c 0,2,3
 201 369 201 369 201 388 c 128,-1,4
 201 407 201 407 214 421 c 0,5,6
 228 436 228 436 244 436 c 0,7,8
 258 436 258 436 269 425 c 0,9,10
 279 415 279 415 279 397 c 0,11,12
 279 375 279 375 266 362 c 0,13,0
 252 347 252 347 236 347 c 128,-1,1
178 -98 m 0,14,15
 167 -98 167 -98 159 -90 c 128,-1,16
 151 -82 151 -82 151 -72 c 0,17,18
 151 -70 151 -70 153 -62 c 2,19,-1
 176 -1 l 1,20,21
 165 15 165 15 165 29 c 0,22,23
 165 49 165 49 178 63 c 0,24,25
 192 77 192 77 208 77 c 0,26,27
 223 77 223 77 234 66 c 0,28,29
 244 56 244 56 244 42 c 128,-1,30
 244 28 244 28 240 16 c 0,31,32
 236 2 236 2 222 -29 c 2,33,-1
 213 -51 l 2,34,35
 203 -79 203 -79 196 -89 c 0,36,37
 190 -98 190 -98 178 -98 c 0,14,15
EndSplineSet
Validated: 1
EndChar

StartChar: less
Encoding: 60 60 31
Width: 599
GlyphClass: 2
Flags: W
LayerCount: 2
Fore
SplineSet
529 2 m 0,0,1
 523 2 523 2 511 7 c 2,2,-1
 197 215 l 2,3,4
 190 219 190 219 187 227 c 0,5,6
 183 234 183 234 183 242 c 128,-1,7
 183 250 183 250 187 257 c 128,-1,8
 191 264 191 264 198 268 c 2,9,-1
 531 481 l 2,10,11
 539 486 539 486 548 486 c 0,12,13
 560 486 560 486 570 477 c 0,14,15
 579 466 579 466 579 454 c 0,16,17
 579 447 579 447 575 440 c 0,18,19
 570 432 570 432 564 428 c 2,20,-1
 272 241 l 1,21,-1
 546 60 l 2,22,23
 553 56 553 56 557 49 c 0,24,25
 560 42 560 42 560 33 c 0,26,27
 560 21 560 21 551 12 c 0,28,29
 542 2 542 2 529 2 c 0,0,1
EndSplineSet
Validated: 1
EndChar

StartChar: equal
Encoding: 61 61 32
Width: 543
GlyphClass: 2
Flags: W
LayerCount: 2
Fore
SplineSet
210 292 m 2,0,1
 197 292 197 292 188 301 c 0,2,3
 179 308 179 308 179 322 c 0,4,5
 179 334 179 334 188 345 c 0,6,7
 197 354 197 354 210 354 c 2,8,-1
 491 354 l 2,9,10
 504 354 504 354 514 345 c 0,11,12
 523 334 523 334 523 322 c 0,13,14
 523 308 523 308 514 301 c 0,15,16
 504 292 504 292 491 292 c 2,17,-1
 210 292 l 2,0,1
210 134 m 2,18,19
 197 134 197 134 188 143 c 0,20,21
 179 150 179 150 179 164 c 0,22,23
 179 177 179 177 188 186 c 128,-1,24
 197 195 197 195 210 195 c 2,25,-1
 491 195 l 2,26,27
 504 195 504 195 514 186 c 0,28,29
 523 177 523 177 523 164 c 0,30,31
 523 150 523 150 514 143 c 0,32,33
 504 134 504 134 491 134 c 2,34,-1
 210 134 l 2,18,19
EndSplineSet
Validated: 1
EndChar

StartChar: greater
Encoding: 62 62 33
Width: 609
GlyphClass: 2
Flags: W
LayerCount: 2
Fore
SplineSet
243 2 m 0,0,1
 231 2 231 2 222 12 c 0,2,3
 212 21 212 21 212 33 c 0,4,5
 212 50 212 50 227 60 c 2,6,-1
 500 241 l 1,7,-1
 208 428 l 2,8,9
 201 432 201 432 197 439 c 128,-1,10
 193 446 193 446 193 454 c 0,11,12
 193 467 193 467 203 477 c 0,13,14
 212 486 212 486 225 486 c 0,15,16
 230 486 230 486 242 481 c 2,17,-1
 574 268 l 2,18,19
 581 264 581 264 585 257 c 128,-1,20
 589 250 589 250 589 242 c 0,21,22
 589 223 589 223 575 215 c 2,23,-1
 261 7 l 2,24,25
 253 2 253 2 243 2 c 0,0,1
EndSplineSet
Validated: 1
EndChar

StartChar: question
Encoding: 63 63 34
Width: 576
GlyphClass: 2
Flags: W
LayerCount: 2
Fore
SplineSet
286 166 m 0,0,1
 272 166 272 166 265 175 c 0,2,3
 256 184 256 184 256 197 c 0,4,5
 256 211 256 211 267 219 c 0,6,7
 348 289 348 289 387 326 c 0,8,9
 395 332 395 332 427 363 c 128,-1,10
 459 394 459 394 478 427 c 0,11,12
 496 460 496 460 496 495 c 0,13,14
 496 554 496 554 457 598 c 0,15,16
 417 641 417 641 334 641 c 0,17,18
 292 641 292 641 260 621 c 0,19,20
 227 601 227 601 199 568 c 0,21,22
 193 560 193 560 180 560 c 128,-1,23
 167 560 167 560 158 569 c 0,24,25
 148 578 148 578 148 591 c 128,-1,26
 148 604 148 604 170 627 c 0,27,28
 197 657 197 657 240 680 c 0,29,30
 281 702 281 702 334 702 c 0,31,32
 399 702 399 702 451 676 c 0,33,34
 500 651 500 651 529 603 c 0,35,36
 556 556 556 556 556 495 c 0,37,38
 556 446 556 446 536 404 c 0,39,40
 516 365 516 365 492 341 c 0,41,42
 470 317 470 317 426 281 c 2,43,-1
 346 209 l 1,44,-1
 313 180 l 2,45,46
 299 166 299 166 286 166 c 0,0,1
253 -6 m 0,47,48
 238 -6 238 -6 227 6 c 0,49,50
 217 17 217 17 217 35 c 0,51,52
 217 55 217 55 230 69 c 0,53,54
 244 83 244 83 260 83 c 0,55,56
 275 83 275 83 286 72 c 0,57,58
 296 61 296 61 296 44 c 0,59,60
 296 22 296 22 283 9 c 0,61,62
 270 -6 270 -6 253 -6 c 0,47,48
EndSplineSet
Validated: 1
EndChar

StartChar: at
Encoding: 64 64 35
Width: 905
GlyphClass: 2
Flags: W
LayerCount: 2
Fore
SplineSet
544 -100 m 0,0,1
 446 -100 446 -100 366 -57 c 0,2,3
 284 -13 284 -13 237 65 c 0,4,5
 189 144 189 144 189 247 c 0,6,7
 189 349 189 349 236 434 c 0,8,9
 282 516 282 516 366 565 c 0,10,11
 449 612 449 612 552 612 c 0,12,13
 645 612 645 612 721 569 c 0,14,15
 798 526 798 526 841 449 c 0,16,17
 885 372 885 372 885 281 c 0,18,19
 885 192 885 192 841 140 c 0,20,21
 798 88 798 88 723 88 c 0,22,23
 686 88 686 88 646 108 c 0,24,25
 606 127 606 127 589 169 c 1,26,27
 536 101 536 101 474 101 c 0,28,29
 420 101 420 101 388 137 c 0,30,31
 356 172 356 172 356 232 c 0,32,33
 356 282 356 282 379 326 c 0,34,35
 402 371 402 371 441 397 c 0,36,37
 480 424 480 424 527 424 c 128,-1,38
 574 424 574 424 620 396 c 0,39,40
 643 381 643 381 643 365 c 0,41,42
 643 352 643 352 634 344 c 0,43,44
 625 335 625 335 612 335 c 0,45,46
 604 335 604 335 590 344 c 0,47,48
 555 364 555 364 528 364 c 0,49,50
 498 364 498 364 472 346 c 0,51,52
 445 325 445 325 432 297 c 0,53,54
 417 266 417 266 417 232 c 128,-1,55
 417 198 417 198 432 180 c 0,56,57
 447 161 447 161 473 161 c 0,58,59
 509 161 509 161 540 204 c 0,60,61
 574 249 574 249 586 283 c 0,62,63
 595 303 595 303 615 303 c 0,64,65
 626 303 626 303 636 295 c 0,66,67
 645 286 645 286 645 273 c 0,68,69
 645 264 645 264 641 252 c 128,-1,70
 637 240 637 240 637 222 c 0,71,72
 637 188 637 188 663 168 c 0,73,74
 688 147 688 147 725 147 c 0,75,76
 769 147 769 147 797 181 c 0,77,78
 824 214 824 214 824 281 c 0,79,80
 824 351 824 351 793 412 c 128,-1,81
 762 473 762 473 699 513 c 0,82,83
 637 551 637 551 552 551 c 0,84,85
 475 551 475 551 405 516 c 0,86,87
 337 481 337 481 293 412 c 0,88,89
 250 344 250 344 250 247 c 0,90,91
 250 154 250 154 295 89 c 0,92,93
 339 23 339 23 408 -9 c 0,94,95
 476 -42 476 -42 546 -42 c 0,96,97
 636 -42 636 -42 719 11 c 0,98,99
 732 21 732 21 742 21 c 0,100,101
 755 21 755 21 764 12 c 0,102,103
 772 2 772 2 772 -9 c 0,104,105
 772 -17 772 -17 768 -24 c 0,106,107
 764 -30 764 -30 752 -39 c 0,108,109
 719 -64 719 -64 665 -82 c 128,-1,110
 611 -100 611 -100 544 -100 c 0,0,1
EndSplineSet
Validated: 1
EndChar

StartChar: bracketleft
Encoding: 91 91 36
Width: 406
GlyphClass: 2
Flags: W
LayerCount: 2
Fore
SplineSet
220 -128 m 2,0,1
 206 -128 206 -128 197 -119 c 128,-1,2
 188 -110 188 -110 188 -97 c 2,3,-1
 188 764 l 2,4,5
 188 777 188 777 198 786 c 0,6,7
 207 795 207 795 220 795 c 2,8,-1
 355 795 l 2,9,10
 366 795 366 795 377 786 c 0,11,12
 386 777 386 777 386 764 c 128,-1,13
 386 751 386 751 377 742 c 0,14,15
 366 733 366 733 355 733 c 2,16,-1
 251 733 l 1,17,-1
 251 -65 l 1,18,-1
 339 -65 l 2,19,20
 352 -65 352 -65 361 -74 c 0,21,22
 370 -84 370 -84 370 -97 c 128,-1,23
 370 -110 370 -110 361 -119 c 128,-1,24
 352 -128 352 -128 339 -128 c 2,25,-1
 220 -128 l 2,0,1
EndSplineSet
Validated: 1
EndChar

StartChar: bracketright
Encoding: 93 93 38
Width: 394
GlyphClass: 2
Flags: W
LayerCount: 2
Fore
SplineSet
208 -128 m 2,0,1
 195 -128 195 -128 186 -119 c 128,-1,2
 177 -110 177 -110 177 -97 c 128,-1,3
 177 -84 177 -84 186 -74 c 0,4,5
 195 -65 195 -65 208 -65 c 2,6,-1
 312 -65 l 1,7,-1
 312 733 l 1,8,-1
 224 733 l 2,9,10
 211 733 211 733 202 742 c 0,11,12
 192 751 192 751 192 764 c 128,-1,13
 192 777 192 777 202 786 c 0,14,15
 211 795 211 795 224 795 c 2,16,-1
 343 795 l 2,17,18
 356 795 356 795 366 787 c 0,19,20
 374 777 374 777 374 764 c 2,21,-1
 374 -97 l 2,22,23
 374 -110 374 -110 365 -119 c 128,-1,24
 356 -128 356 -128 343 -128 c 2,25,-1
 208 -128 l 2,0,1
EndSplineSet
Validated: 1
EndChar

StartChar: asciicircum
Encoding: 94 94 39
Width: 541
GlyphClass: 2
Flags: W
LayerCount: 2
Fore
SplineSet
249 383 m 0,0,1
 236 383 236 383 228 392 c 0,2,3
 219 401 219 401 219 413 c 0,4,5
 219 422 219 422 223 429 c 2,6,-1
 345 633 l 2,7,8
 360 655 360 655 380 655 c 0,9,10
 402 655 402 655 415 631 c 2,11,-1
 516 431 l 2,12,13
 521 421 521 421 521 413 c 0,14,15
 521 401 521 401 512 392 c 128,-1,16
 503 383 503 383 490 383 c 0,17,18
 483 383 483 383 475 388 c 0,19,20
 466 393 466 393 464 399 c 2,21,-1
 379 569 l 1,22,-1
 280 404 l 2,23,24
 266 383 266 383 249 383 c 0,0,1
EndSplineSet
Validated: 1
EndChar

StartChar: underscore
Encoding: 95 95 40
Width: 658
GlyphClass: 2
Flags: W
LayerCount: 2
Fore
SplineSet
124 -61 m 2,0,1
 110 -61 110 -61 102 -52 c 0,2,3
 93 -44 93 -44 93 -30 c 0,4,5
 93 -18 93 -18 102 -7 c 0,6,7
 111 2 111 2 124 2 c 2,8,-1
 607 2 l 2,9,10
 618 2 618 2 629 -7 c 0,11,12
 638 -18 638 -18 638 -30 c 0,13,14
 638 -43 638 -43 629 -52 c 0,15,16
 618 -61 618 -61 607 -61 c 2,17,-1
 124 -61 l 2,0,1
EndSplineSet
Validated: 1
EndChar

StartChar: grave
Encoding: 96 96 41
Width: 321
GlyphClass: 2
Flags: W
LayerCount: 2
Fore
SplineSet
270 553 m 128,-1,1
 258 553 258 553 248 563 c 2,2,-1
 132 682 l 2,3,4
 120 694 120 694 120 710 c 0,5,6
 120 724 120 724 132 736 c 0,7,8
 145 747 145 747 158 747 c 0,9,10
 174 747 174 747 190 731 c 2,11,-1
 293 603 l 2,12,13
 301 592 301 592 301 583 c 0,14,15
 301 571 301 571 292 562 c 0,16,0
 282 553 282 553 270 553 c 128,-1,1
EndSplineSet
Validated: 1
EndChar

StartChar: a
Encoding: 97 97 42
Width: 524
GlyphClass: 2
Flags: W
LayerCount: 2
Fore
SplineSet
188 334 m 2,0,1
 175 334 175 334 166 343 c 0,2,3
 157 350 157 350 157 364 c 0,4,5
 157 377 157 377 166 386 c 128,-1,6
 175 395 175 395 188 395 c 2,7,-1
 469 395 l 2,8,9
 482 395 482 395 492 386 c 0,10,11
 501 377 501 377 501 364 c 0,12,13
 501 350 501 350 492 343 c 0,14,15
 482 334 482 334 469 334 c 2,16,-1
 188 334 l 2,0,1
191 2 m 2,17,18
 178 2 178 2 169 11 c 0,19,20
 160 18 160 18 160 32 c 0,21,22
 160 45 160 45 169 54 c 128,-1,23
 178 63 178 63 191 63 c 2,24,-1
 472 63 l 2,25,26
 484 63 484 63 495 54 c 0,27,28
 504 45 504 45 504 32 c 0,29,30
 504 18 504 18 495 11 c 0,31,32
 484 2 484 2 472 2 c 2,33,-1
 191 2 l 2,17,18
EndSplineSet
Validated: 1
EndChar

StartChar: b
Encoding: 98 98 43
Width: 604
GlyphClass: 2
Flags: W
LayerCount: 2
Fore
SplineSet
377 -6 m 0,0,1
 318 -6 318 -6 271 12 c 0,2,3
 222 30 222 30 197 61 c 0,4,5
 171 92 171 92 171 129 c 0,6,7
 173 181 173 181 209 212 c 0,8,9
 245 245 245 245 303 266 c 1,10,11
 257 282 257 282 230 308 c 0,12,13
 203 332 203 332 203 370 c 0,14,15
 203 411 203 411 228 440 c 0,16,17
 252 468 252 468 296 485 c 0,18,19
 337 501 337 501 388 501 c 0,20,21
 440 501 440 501 481 486 c 128,-1,22
 522 471 522 471 544 444 c 0,23,24
 567 415 567 415 567 382 c 0,25,26
 567 342 567 342 539 317 c 0,27,28
 511 291 511 291 463 272 c 1,29,30
 519 250 519 250 553 215 c 0,31,32
 584 180 584 180 584 137 c 0,33,34
 584 97 584 97 557 64 c 128,-1,35
 530 31 530 31 483 13 c 0,36,37
 438 -6 438 -6 377 -6 c 0,0,1
386 295 m 1,38,39
 457 316 457 316 482 338 c 0,40,41
 508 361 508 361 508 389 c 0,42,43
 508 420 508 420 475 439 c 0,44,45
 440 457 440 457 391 457 c 0,46,47
 339 457 339 457 303 436 c 0,48,49
 267 414 267 414 267 375 c 0,50,51
 267 346 267 346 295 327 c 128,-1,52
 323 308 323 308 386 295 c 1,38,39
377 56 m 0,53,54
 412 56 412 56 447 65 c 0,55,56
 479 74 479 74 502 92 c 0,57,58
 523 110 523 110 523 137 c 0,59,60
 523 172 523 172 484 196 c 0,61,62
 449 218 449 218 387 232 c 1,63,64
 341 219 341 219 306 206 c 0,65,66
 279 196 279 196 255 177 c 0,67,68
 232 157 232 157 232 129 c 0,69,70
 232 96 232 96 274 77 c 0,71,72
 316 56 316 56 377 56 c 0,53,54
EndSplineSet
Validated: 1
EndChar

StartChar: d
Encoding: 100 100 44
Width: 568
GlyphClass: 2
Flags: W
LayerCount: 2
Fore
SplineSet
315 495 m 0,0,1
 338 495 338 495 347 476 c 2,2,-1
 541 53 l 2,3,4
 545 46 545 46 545 41 c 0,5,6
 547 38 547 38 547 30 c 0,7,8
 547 19 547 19 539 9 c 0,9,10
 532 0 532 0 521 0 c 2,11,-1
 107 0 l 2,12,13
 94 0 94 0 88 9 c 0,14,15
 80 17 80 17 80 30 c 0,16,17
 80 38 80 38 88 52 c 1,18,-1
 88 53 l 1,19,-1
 283 474 l 2,20,21
 294 495 294 495 315 495 c 0,0,1
316 407 m 1,22,-1
 151 56 l 1,23,-1
 481 56 l 1,24,-1
 316 407 l 1,22,-1
EndSplineSet
Validated: 1
EndChar

StartChar: e
Encoding: 101 101 45
Width: 658
GlyphClass: 2
Flags: W
LayerCount: 2
Fore
SplineSet
124 4 m 2,0,1
 110 4 110 4 102 13 c 0,2,3
 93 20 93 20 93 35 c 0,4,5
 93 48 93 48 102 58 c 0,6,7
 111 67 111 67 124 67 c 2,8,-1
 607 67 l 2,9,10
 618 67 618 67 629 58 c 0,11,12
 638 48 638 48 638 35 c 128,-1,13
 638 22 638 22 629 13 c 0,14,15
 618 4 618 4 607 4 c 2,16,-1
 124 4 l 2,0,1
511 296 m 1,17,18
 555 314 555 314 551 344 c 0,19,20
 548 363 548 363 530 366 c 0,21,22
 522 367 522 367 513 363 c 1,23,24
 483 363 483 363 461 385 c 0,25,26
 439 410 439 410 439 447 c 0,27,28
 439 459 439 459 443 481 c 0,29,30
 446 496 446 496 446 504 c 0,31,32
 446 520 446 520 439 528 c 0,33,34
 432 538 432 538 421 538 c 0,35,36
 405 538 405 538 397 515 c 0,37,38
 385 473 385 473 358 426 c 0,39,40
 332 378 332 378 302 378 c 0,41,42
 280 378 280 378 268 399 c 128,-1,43
 256 420 256 420 256 458 c 0,44,45
 256 500 256 500 267 530 c 0,46,47
 281 567 281 567 301 585 c 0,48,49
 323 607 323 607 348 607 c 0,50,51
 371 607 371 607 400 584 c 0,52,53
 410 574 410 574 419 574 c 0,54,55
 430 574 430 574 437 583 c 0,56,57
 444 593 444 593 444 608 c 0,58,59
 444 625 444 625 425 643 c 0,60,61
 388 674 388 674 348 674 c 128,-1,62
 308 674 308 674 275 644 c 0,63,64
 242 613 242 613 223 564 c 0,65,66
 205 514 205 514 205 458 c 0,67,68
 205 389 205 389 231 350 c 0,69,70
 258 311 258 311 303 311 c 0,71,72
 356 311 356 311 399 387 c 1,73,74
 415 340 415 340 446 319 c 0,75,76
 480 296 480 296 511 296 c 1,17,18
EndSplineSet
Validated: 41
Ligature2: "'liga' Standard Ligatures in Latin lookup 0 subtable" uni0259 uni026A
EndChar

StartChar: f
Encoding: 102 102 46
Width: 622
GlyphClass: 2
Flags: W
LayerCount: 2
Fore
SplineSet
228 -41 m 0,0,1
 216 -41 216 -41 209 -32 c 0,2,3
 200 -23 200 -23 200 -11 c 0,4,5
 200 0 200 0 204 5 c 2,6,-1
 232 53 l 1,7,8
 201 84 201 84 184 130 c 0,9,10
 166 174 166 174 166 224 c 0,11,12
 166 296 166 296 198 358 c 0,13,14
 229 419 229 419 284 457 c 0,15,16
 337 494 337 494 400 494 c 0,17,18
 442 494 442 494 479 475 c 1,19,-1
 508 524 l 2,20,21
 516 538 516 538 532 538 c 0,22,23
 543 538 543 538 553 530 c 0,24,25
 562 521 562 521 562 509 c 0,26,27
 562 501 562 501 558 494 c 2,28,-1
 527 443 l 1,29,30
 563 409 563 409 582 363 c 0,31,32
 602 315 602 315 602 264 c 0,33,34
 602 192 602 192 570 130 c 0,35,36
 539 70 539 70 485 31 c 0,37,38
 432 -6 432 -6 369 -6 c 0,39,40
 319 -6 319 -6 278 17 c 1,41,-1
 253 -26 l 2,42,43
 242 -41 242 -41 228 -41 c 0,0,1
449 425 m 1,44,45
 423 439 423 439 395 439 c 0,46,47
 351 439 351 439 313 410 c 0,48,49
 275 380 275 380 253 331 c 0,50,51
 230 280 230 280 230 226 c 0,52,53
 230 160 230 160 265 108 c 1,54,-1
 449 425 l 1,44,45
369 49 m 0,55,56
 411 49 411 49 451 78 c 0,57,58
 490 106 490 106 514 156 c 0,59,60
 538 204 538 204 538 259 c 0,61,62
 538 293 538 293 527 329 c 0,63,64
 515 361 515 361 494 387 c 1,65,-1
 307 66 l 1,66,67
 336 49 336 49 369 49 c 0,55,56
EndSplineSet
Validated: 1
Ligature2: "'liga' Standard Ligatures in Latin lookup 1 subtable" p uni02B0
Ligature2: "'liga' Standard Ligatures in Latin lookup 0 subtable" p uni0324
EndChar

StartChar: g
Encoding: 103 103 47
Width: 597
GlyphClass: 2
Flags: W
LayerCount: 2
Fore
SplineSet
384 -6 m 128,-1,1
 326 -6 326 -6 276 23 c 0,2,3
 224 52 224 52 196 101 c 0,4,5
 166 150 166 150 166 211 c 0,6,7
 166 278 166 278 198 345 c 0,8,9
 231 412 231 412 281 452 c 0,10,11
 334 493 334 493 389 493 c 0,12,13
 439 493 439 493 475 476 c 0,14,15
 506 460 506 460 539 423 c 0,16,17
 547 415 547 415 547 402 c 0,18,19
 547 390 547 390 539 380 c 0,20,21
 530 371 530 371 517 371 c 0,22,23
 503 371 503 371 494 382 c 0,24,25
 470 410 470 410 449 422 c 0,26,27
 427 435 427 435 391 435 c 0,28,29
 351 435 351 435 313 403 c 128,-1,30
 275 371 275 371 251 320 c 0,31,32
 227 268 227 268 227 213 c 0,33,34
 227 163 227 163 251 127 c 0,35,36
 273 91 273 91 311 71 c 0,37,38
 346 52 346 52 384 52 c 0,39,40
 470 52 470 52 518 121 c 0,41,42
 532 139 532 139 546 139 c 0,43,44
 559 139 559 139 568 130 c 128,-1,45
 577 121 577 121 577 109 c 0,46,47
 577 99 577 99 567 86 c 0,48,49
 541 48 541 48 492 21 c 0,50,0
 442 -6 442 -6 384 -6 c 128,-1,1
EndSplineSet
Validated: 1
EndChar

StartChar: h
Encoding: 104 104 48
Width: 583
GlyphClass: 2
Flags: W
LayerCount: 2
Fore
SplineSet
191 0 m 0,0,1
 182 0 182 0 176 7 c 0,2,3
 169 14 169 14 169 24 c 2,4,-1
 169 487 l 2,5,6
 169 496 169 496 175 504 c 0,7,8
 181 510 181 510 191 510 c 0,9,10
 202 510 202 510 208 504 c 0,11,12
 215 497 215 497 215 487 c 2,13,-1
 215 262 l 1,14,-1
 517 307 l 1,15,-1
 517 487 l 2,16,17
 517 495 517 495 524 504 c 0,18,19
 530 510 530 510 540 510 c 0,20,21
 548 510 548 510 556 504 c 0,22,23
 563 497 563 497 563 487 c 2,24,-1
 563 24 l 2,25,26
 563 14 563 14 556 7 c 128,-1,27
 549 0 549 0 540 0 c 128,-1,28
 531 0 531 0 524 7 c 0,29,30
 517 16 517 16 517 24 c 2,31,-1
 517 258 l 1,32,-1
 215 214 l 1,33,-1
 215 24 l 2,34,35
 215 14 215 14 208 7 c 128,-1,36
 201 0 201 0 191 0 c 0,0,1
EndSplineSet
Validated: 1
EndChar

StartChar: i
Encoding: 105 105 49
Width: 498
GlyphClass: 2
Flags: W
LayerCount: 2
Fore
SplineSet
301 298 m 128,-1,1
 287 298 287 298 278 306 c 0,2,3
 268 312 268 312 268 322 c 2,4,-1
 274 648 l 2,5,6
 274 658 274 658 284 665 c 0,7,8
 295 673 295 673 307 673 c 0,9,10
 318 673 318 673 330 666 c 0,11,12
 339 658 339 658 339 648 c 2,13,-1
 333 322 l 2,14,15
 333 312 333 312 324 306 c 0,16,0
 315 298 315 298 301 298 c 128,-1,1
165 6 m 2,17,18
 152 6 152 6 143 15 c 0,19,20
 134 22 134 22 134 36 c 0,21,22
 134 49 134 49 143 58 c 128,-1,23
 152 67 152 67 165 67 c 2,24,-1
 446 67 l 2,25,26
 458 67 458 67 469 58 c 0,27,28
 478 49 478 49 478 36 c 0,29,30
 478 22 478 22 469 15 c 0,31,32
 458 6 458 6 446 6 c 2,33,-1
 165 6 l 2,17,18
EndSplineSet
Validated: 1
EndChar

StartChar: j
Encoding: 106 106 50
Width: 627
GlyphClass: 2
Flags: W
LayerCount: 2
Fore
SplineSet
277 -6 m 0,0,1
 264 -6 264 -6 259 2 c 0,2,3
 251 10 251 10 251 18 c 0,4,5
 251 25 251 25 256 32 c 2,6,-1
 337 157 l 1,7,-1
 138 469 l 2,8,9
 132 476 132 476 132 484 c 0,10,11
 132 493 132 493 140 501 c 0,12,13
 149 507 149 507 159 507 c 0,14,15
 168 507 168 507 172 504 c 0,16,17
 176 502 176 502 181 495 c 2,18,-1
 368 204 l 1,19,-1
 558 495 l 2,20,21
 565 507 565 507 580 507 c 0,22,23
 590 507 590 507 598 501 c 0,24,25
 607 494 607 494 607 484 c 0,26,27
 607 477 607 477 599 467 c 2,28,-1
 299 6 l 2,29,30
 297 1 297 1 290 -2 c 0,31,32
 282 -6 282 -6 277 -6 c 0,0,1
EndSplineSet
Validated: 1
EndChar

StartChar: k
Encoding: 107 107 51
Width: 599
GlyphClass: 2
Flags: W
LayerCount: 2
Fore
SplineSet
100 247 m 128,-1,1
 100 270 100 270 121 281 c 2,2,-1
 538 491 l 2,3,4
 543 493 543 493 549 493 c 0,5,6
 561 493 561 493 570 483 c 0,7,8
 578 472 578 472 578 455 c 0,9,10
 578 431 578 431 558 420 c 2,11,-1
 203 247 l 1,12,-1
 561 72 l 2,13,14
 568 68 568 68 574 59 c 0,15,16
 579 52 579 52 579 38 c 0,17,18
 579 22 579 22 570 12 c 0,19,20
 561 0 561 0 550 0 c 0,21,22
 544 0 544 0 536 5 c 2,23,-1
 119 212 l 2,24,0
 100 224 100 224 100 247 c 128,-1,1
EndSplineSet
Validated: 1
EndChar

StartChar: l
Encoding: 108 108 52
Width: 709
GlyphClass: 2
Flags: W
LayerCount: 2
Fore
SplineSet
331 504 m 0,0,1
 268 506 268 506 216.5 445.5 c 128,-1,2
 165 385 165 385 154 296 c 0,3,4
 138 168 138 168 196 72 c 1,5,6
 66 72 66 72 40 71 c 1,7,8
 17 66 17 66 20 34 c 0,9,10
 23 5 23 5 41 0 c 0,11,12
 46 -1 46 -1 51 1 c 2,13,-1
 151 1 l 2,14,15
 225 1 225 1 251 2 c 1,16,17
 272 10 272 10 272 44.5 c 128,-1,18
 272 79 272 79 253 91 c 1,19,20
 211 132 211 132 201.5 210.5 c 128,-1,21
 192 289 192 289 221 349 c 0,22,23
 240 392 240 392 274 414 c 128,-1,24
 308 436 308 436 344 431 c 0,25,26
 394 426 394 426 438.5 390.5 c 128,-1,27
 483 355 483 355 506 296 c 0,28,29
 521 254 521 254 514 207 c 128,-1,30
 507 160 507 160 483 129 c 0,31,32
 482 128 482 128 474 117.5 c 128,-1,33
 466 107 466 107 464 104 c 128,-1,34
 462 101 462 101 455.5 91.5 c 128,-1,35
 449 82 449 82 447 76 c 2,36,-1
 442 61 l 2,37,38
 439 52 439 52 438 44 c 0,39,40
 435 20 435 20 448.5 9 c 128,-1,41
 462 -2 462 -2 479 1 c 2,42,-1
 575 1 l 2,43,44
 644 1 644 1 670 2 c 0,45,46
 685 6 685 6 688.5 25.5 c 128,-1,47
 692 45 692 45 683 61 c 128,-1,48
 674 77 674 77 659 72 c 1,49,-1
 511 72 l 1,50,51
 559 136 559 136 563 197 c 0,52,53
 576 297 576 297 526 375 c 0,54,55
 490 435 490 435 438 469.5 c 128,-1,56
 386 504 386 504 331 504 c 0,0,1
EndSplineSet
Validated: 41
EndChar

StartChar: m
Encoding: 109 109 53
Width: 785
GlyphClass: 2
Flags: W
LayerCount: 2
Fore
SplineSet
781 206 m 0,0,1
 781 154 781 154 748.5 96.5 c 128,-1,2
 716 39 716 39 658 -10 c 1,3,-1
 609 7 l 1,4,5
 650 49 650 49 672 91 c 0,6,7
 698 141 698 141 698 193 c 0,8,9
 698 283 698 283 643.5 344.5 c 128,-1,10
 589 406 589 406 501 406 c 0,11,12
 481 406 481 406 461 400 c 2,13,-1
 445 393 l 1,14,15
 501 349 501 349 530 285 c 0,16,17
 551 235 551 235 551 180 c 0,18,19
 551 105 551 105 512 51 c 0,20,21
 468 -10 468 -10 398 -10 c 256,22,23
 328 -10 328 -10 287.5 41.5 c 128,-1,24
 247 93 247 93 247 175 c 0,25,26
 247 238 247 238 276.5 297.5 c 128,-1,27
 306 357 306 357 354 387 c 1,28,29
 340 393 340 393 325 396 c 2,30,-1
 293 399 l 1,31,32
 221 399 221 399 173.5 347.5 c 128,-1,33
 126 296 126 296 126 217 c 0,34,35
 126 153 126 153 153.5 97.5 c 128,-1,36
 181 42 181 42 227 7 c 1,37,-1
 183 -10 l 1,38,39
 140 23 140 23 108 89 c 0,40,41
 93 123 93 123 85 156 c 128,-1,42
 77 189 77 189 77 225 c 0,43,44
 77 318 77 318 133 380 c 0,45,46
 193 446 193 446 293 446 c 0,47,48
 331 446 331 446 351 442 c 128,-1,49
 371 438 371 438 383.5 433 c 128,-1,50
 396 428 396 428 408 421 c 1,51,52
 441 436 441 436 468 442 c 128,-1,53
 495 448 495 448 531 448 c 0,54,55
 641 448 641 448 711 379 c 128,-1,56
 781 310 781 310 781 206 c 0,0,1
478 181 m 0,57,58
 478 238 478 238 455 287 c 0,59,60
 434 338 434 338 391 365 c 1,61,62
 351 347 351 347 320.5 286.5 c 128,-1,63
 290 226 290 226 290 174 c 0,64,65
 290 116 290 116 315 79 c 0,66,67
 341 44 341 44 384 44 c 0,68,69
 425 44 425 44 451.5 85 c 128,-1,70
 478 126 478 126 478 181 c 0,57,58
EndSplineSet
Validated: 1
EndChar

StartChar: n
Encoding: 110 110 54
Width: 561
GlyphClass: 2
Flags: W
LayerCount: 2
Fore
SplineSet
163 -5 m 2,0,1
 150 -5 150 -5 141 5 c 0,2,3
 131 14 131 14 131 26 c 128,-1,4
 131 38 131 38 138 45 c 2,5,-1
 444 431 l 1,6,-1
 173 431 l 2,7,8
 160 431 160 431 151 440 c 128,-1,9
 142 449 142 449 142 463 c 0,10,11
 142 474 142 474 151 485 c 0,12,13
 160 494 160 494 173 494 c 2,14,-1
 504 494 l 2,15,16
 516 494 516 494 527 485 c 0,17,18
 536 474 536 474 536 463 c 0,19,20
 536 451 536 451 529 444 c 2,21,-1
 223 58 l 1,22,-1
 510 58 l 2,23,24
 523 58 523 58 532 49 c 0,25,26
 541 38 541 38 541 26 c 128,-1,27
 541 14 541 14 532 5 c 0,28,29
 523 -5 523 -5 510 -5 c 2,30,-1
 163 -5 l 2,0,1
EndSplineSet
Validated: 1
EndChar

StartChar: o
Encoding: 111 111 55
Width: 644
GlyphClass: 2
Flags: W
LayerCount: 2
Fore
SplineSet
381 292 m 0,0,1
 334 292 334 292 294 316 c 0,2,3
 254 339 254 339 233 379 c 0,4,5
 210 420 210 420 210 468 c 0,6,7
 210 521 210 521 236 567 c 0,8,9
 262 614 262 614 307 644 c 0,10,11
 353 673 353 673 407 673 c 0,12,13
 454 673 454 673 494 650 c 0,14,15
 534 625 534 625 556 586 c 0,16,17
 578 545 578 545 578 498 c 0,18,19
 578 442 578 442 551 396 c 0,20,21
 523 348 523 348 479 320 c 128,-1,22
 435 292 435 292 381 292 c 0,0,1
382 355 m 0,23,24
 415 355 415 355 446 375 c 0,25,26
 476 394 476 394 494 426 c 0,27,28
 512 459 512 459 512 495 c 0,29,30
 512 527 512 527 497 554 c 0,31,32
 484 578 484 578 457 598 c 0,33,34
 431 614 431 614 399 614 c 128,-1,35
 367 614 367 614 335 595 c 0,36,37
 305 573 305 573 288 542 c 0,38,39
 270 509 270 509 270 473 c 0,40,41
 270 439 270 439 286 412 c 0,42,43
 300 385 300 385 327 370 c 0,44,45
 352 355 352 355 382 355 c 0,23,24
214 2 m 2,46,47
 197 2 197 2 185 11 c 0,48,49
 173 18 173 18 173 32 c 0,50,51
 173 45 173 45 185 54 c 128,-1,52
 197 63 197 63 214 63 c 2,53,-1
 582 63 l 2,54,55
 598 63 598 63 612 54 c 0,56,57
 624 45 624 45 624 32 c 0,58,59
 624 18 624 18 612 11 c 0,60,61
 598 2 598 2 582 2 c 2,62,-1
 214 2 l 2,46,47
EndSplineSet
Validated: 1
EndChar

StartChar: p
Encoding: 112 112 56
Width: 642
GlyphClass: 2
Flags: W
LayerCount: 2
Fore
SplineSet
379 6 m 0,0,1
 320 6 320 6 271 37 c 128,-1,2
 222 68 222 68 195 120 c 0,3,4
 167 172 167 172 167 236 c 0,5,6
 167 306 167 306 199 366 c 0,7,8
 230 427 230 427 287 467 c 0,9,10
 345 505 345 505 411 505 c 0,11,12
 471 505 471 505 519 475 c 0,13,14
 567 443 567 443 595 392 c 0,15,16
 622 340 622 340 622 276 c 0,17,18
 622 204 622 204 589 142 c 0,19,20
 556 81 556 81 500 43 c 0,21,22
 445 6 445 6 379 6 c 0,0,1
385 66 m 0,23,24
 431 66 431 66 473 94 c 0,25,26
 515 124 515 124 539 170 c 0,27,28
 564 220 564 220 564 271 c 0,29,30
 564 321 564 321 543 357 c 0,31,32
 522 397 522 397 488 421 c 0,33,34
 452 445 452 445 409 445 c 0,35,36
 362 445 362 445 321 416 c 0,37,38
 282 390 282 390 255 340 c 0,39,40
 230 288 230 288 230 238 c 128,-1,41
 230 188 230 188 252 149 c 0,42,43
 272 110 272 110 309 87 c 0,44,45
 345 66 345 66 385 66 c 0,23,24
EndSplineSet
Validated: 1
EndChar

StartChar: q
Encoding: 113 113 57
Width: 599
GlyphClass: 2
Flags: W
LayerCount: 2
Fore
SplineSet
435 221 m 128,-1,1
 422 221 422 221 413 227 c 128,-1,2
 404 233 404 233 406 239 c 2,3,-1
 410 269 l 2,4,5
 412 276 412 276 421 280 c 0,6,7
 429 284 429 284 442 284 c 0,8,9
 457 284 457 284 465 277 c 128,-1,10
 473 270 473 270 472 262 c 2,11,-1
 467 236 l 2,12,13
 466 229 466 229 457 225 c 128,-1,0
 448 221 448 221 435 221 c 128,-1,1
100 247 m 128,-1,15
 100 270 100 270 121 281 c 2,16,-1
 538 491 l 2,17,18
 543 493 543 493 549 493 c 0,19,20
 561 493 561 493 570 483 c 0,21,22
 578 472 578 472 578 455 c 0,23,24
 578 431 578 431 558 420 c 2,25,-1
 203 247 l 1,26,-1
 561 72 l 2,27,28
 568 68 568 68 574 59 c 0,29,30
 579 52 579 52 579 38 c 0,31,32
 579 22 579 22 570 12 c 0,33,34
 561 0 561 0 550 0 c 0,35,36
 544 0 544 0 536 5 c 2,37,-1
 119 212 l 2,38,14
 100 224 100 224 100 247 c 128,-1,15
EndSplineSet
Validated: 1
EndChar

StartChar: r
Encoding: 114 114 58
Width: 615
GlyphClass: 2
Flags: W
LayerCount: 2
Fore
SplineSet
545 -6 m 0,0,1
 530 -6 530 -6 522 3 c 2,2,-1
 355 209 l 1,3,-1
 160 4 l 2,4,5
 151 -5 151 -5 137 -5 c 0,6,7
 125 -5 125 -5 116 5 c 0,8,9
 107 14 107 14 107 26 c 0,10,11
 107 40 107 40 116 49 c 2,12,-1
 314 252 l 1,13,-1
 156 441 l 2,14,15
 147 452 147 452 147 463 c 128,-1,16
 147 474 147 474 156 485 c 0,17,18
 165 494 165 494 178 494 c 0,19,20
 192 494 192 494 200 485 c 2,21,-1
 358 292 l 1,22,-1
 541 483 l 2,23,24
 550 492 550 492 564 492 c 0,25,26
 576 492 576 492 586 483 c 0,27,28
 595 472 595 472 595 461 c 0,29,30
 595 448 595 448 586 439 c 2,31,-1
 399 249 l 1,32,-1
 570 45 l 2,33,34
 576 36 576 36 576 25 c 0,35,36
 576 12 576 12 567 3 c 128,-1,37
 558 -6 558 -6 545 -6 c 0,0,1
EndSplineSet
Validated: 1
EndChar

StartChar: s
Encoding: 115 115 59
Width: 519
GlyphClass: 2
Flags: W
LayerCount: 2
Fore
SplineSet
326 -8 m 0,0,1
 268 -8 268 -8 228 16 c 0,2,3
 187 38 187 38 165 71 c 0,4,5
 143 102 143 102 143 124 c 0,6,7
 143 137 143 137 152 146 c 0,8,9
 160 154 160 154 173 154 c 0,10,11
 195 154 195 154 201 133 c 0,12,13
 214 94 214 94 248 71 c 0,14,15
 280 49 280 49 329 49 c 0,16,17
 376 49 376 49 408 75 c 0,18,19
 439 100 439 100 439 137 c 0,20,21
 439 158 439 158 430 173 c 0,22,23
 419 187 419 187 396 200 c 0,24,25
 370 214 370 214 324 227 c 0,26,27
 242 253 242 253 207 285 c 0,28,29
 171 318 171 318 171 372 c 128,-1,30
 171 426 171 426 216 460 c 0,31,32
 260 493 260 493 343 493 c 0,33,34
 418 493 418 493 459 463 c 0,35,36
 499 432 499 432 499 379 c 0,37,38
 499 356 499 356 491 343 c 0,39,40
 484 330 484 330 468 330 c 0,41,42
 455 330 455 330 446 339 c 0,43,44
 437 346 437 346 437 358 c 0,45,46
 437 361 437 361 439 369 c 0,47,48
 440 373 440 373 440 380 c 0,49,50
 440 406 440 406 416 423 c 0,51,52
 392 438 392 438 343 438 c 0,53,54
 289 438 289 438 260 421 c 0,55,56
 230 403 230 403 230 371 c 0,57,58
 230 340 230 340 256 322 c 128,-1,59
 282 304 282 304 344 283 c 0,60,61
 402 264 402 264 437 245 c 0,62,63
 469 227 469 227 484 203 c 0,64,65
 498 177 498 177 498 140 c 0,66,67
 498 104 498 104 477 69 c 0,68,69
 455 35 455 35 416 14 c 0,70,71
 378 -8 378 -8 326 -8 c 0,0,1
-1097 926 m 1024,72,-1
EndSplineSet
Validated: 1
EndChar

StartChar: t
Encoding: 116 116 60
Width: 595
GlyphClass: 2
Flags: W
LayerCount: 2
Fore
SplineSet
239 -6 m 0,0,1
 225 -6 225 -6 217 2 c 0,2,3
 208 8 208 8 208 18 c 0,4,5
 208 23 208 23 212 28 c 2,6,-1
 493 450 l 1,7,-1
 189 450 l 2,8,9
 176 450 176 450 167 456 c 0,10,11
 158 464 158 464 158 473 c 128,-1,12
 158 482 158 482 167 490 c 0,13,14
 176 496 176 496 189 496 c 2,15,-1
 544 496 l 2,16,17
 557 496 557 496 566 490 c 0,18,19
 575 482 575 482 575 472 c 0,20,21
 575 467 575 467 571 460 c 2,22,-1
 267 7 l 2,23,24
 264 1 264 1 256 -2 c 0,25,26
 244 -6 244 -6 239 -6 c 0,0,1
EndSplineSet
Validated: 1
EndChar

StartChar: u
Encoding: 117 117 61
Width: 840
GlyphClass: 2
Flags: W
LayerCount: 2
Fore
SplineSet
813 97 m 0,0,1
 808 93 808 93 801 93 c 0,2,3
 793 93 793 93 788 97 c 0,4,5
 782 100 782 100 782 106 c 2,6,-1
 782 389 l 2,7,8
 782 395 782 395 787 398 c 0,9,10
 792 402 792 402 801 402 c 0,11,12
 808 402 808 402 813 398 c 0,13,14
 819 395 819 395 819 389 c 2,15,-1
 819 106 l 2,16,17
 819 100 819 100 813 97 c 0,0,1
413 304 m 0,18,19
 364 304 364 304 327 324 c 0,20,21
 288 343 288 343 266 371 c 0,22,23
 258 382 258 382 258 388 c 0,24,25
 258 396 258 396 266 404 c 0,26,27
 274 410 274 410 283 410 c 0,28,29
 296 410 296 410 306 397 c 0,30,31
 344 346 344 346 413 346 c 0,32,33
 442 346 442 346 473 360 c 0,34,35
 503 376 503 376 521 401 c 0,36,37
 539 428 539 428 539 465 c 0,38,39
 539 506 539 506 520 543 c 0,40,41
 500 581 500 581 470 605 c 0,42,43
 439 628 439 628 408 628 c 0,44,45
 378 628 378 628 361 618 c 0,46,47
 344 609 344 609 325 589 c 0,48,49
 317 581 317 581 307 581 c 0,50,51
 296 581 296 581 290 588 c 0,52,53
 283 594 283 594 283 604 c 128,-1,54
 283 614 283 614 289 619 c 0,55,56
 315 646 315 646 341 658 c 0,57,58
 367 671 367 671 409 671 c 0,59,60
 455 671 455 671 496 640 c 0,61,62
 538 610 538 610 563 561 c 0,63,64
 588 514 588 514 588 463 c 0,65,66
 588 420 588 420 565 382 c 0,67,68
 541 345 541 345 501 324 c 0,69,70
 458 304 458 304 413 304 c 0,18,19
188 3 m 6,71,72
 174 3 174 3 166 12 c 4,73,74
 157 20 157 20 157 34 c 4,75,76
 157 46 157 46 166 57 c 4,77,78
 175 66 175 66 188 66 c 6,79,-1
 671 66 l 6,80,81
 682 66 682 66 693 57 c 4,82,83
 702 46 702 46 702 34 c 4,84,85
 702 21 702 21 693 12 c 4,86,87
 682 3 682 3 671 3 c 6,88,-1
 188 3 l 6,71,72
EndSplineSet
Validated: 1
EndChar

StartChar: v
Encoding: 118 118 62
Width: 510
GlyphClass: 2
Flags: W
LayerCount: 2
Fore
SplineSet
111 500 m 1,0,1
 93 470 93 470 93 432 c 0,2,3
 93 390 93 390 121 360 c 0,4,5
 148 333 148 333 197 313 c 1,6,7
 137 288 137 288 99 251 c 0,8,9
 62 215 62 215 60 156 c 0,10,11
 60 112 60 112 87 76 c 0,12,13
 113 41 113 41 163 20 c 0,14,15
 214 0 214 0 274 0 c 0,16,17
 336 0 336 0 385 21 c 0,18,19
 433 42 433 42 462 80 c 0,20,21
 490 120 490 120 490 164 c 0,22,23
 490 213 490 213 456 253 c 0,24,25
 425 293 425 293 364 319 c 1,26,27
 412 340 412 340 442 370 c 0,28,29
 472 402 472 402 472 446 c 0,30,31
 472 475 472 475 459 500 c 1,32,-1
 384 500 l 1,33,34
 408 479 408 479 408 451 c 0,35,36
 408 419 408 419 380 393 c 0,37,38
 353 368 353 368 281 345 c 1,39,40
 214 360 214 360 185 381 c 0,41,42
 157 402 157 402 157 436 c 0,43,44
 157 479 157 479 186 502 c 1,45,-1
 111 500 l 1,0,1
284 297 m 1,46,47
 350 281 350 281 398 247 c 0,48,49
 443 214 443 214 443 165 c 0,50,51
 443 128 443 128 418 103 c 0,52,53
 391 76 391 76 353 65 c 0,54,55
 314 53 314 53 272 53 c 0,56,57
 199 53 199 53 152 81 c 0,58,59
 102 110 102 110 102 154 c 0,60,61
 102 193 102 193 128 221 c 0,62,63
 157 248 157 248 188 261 c 0,64,65
 222 276 222 276 284 297 c 1,46,47
EndSplineSet
Validated: 9
EndChar

StartChar: w
Encoding: 119 119 63
Width: 510
GlyphClass: 2
Flags: W
LayerCount: 2
Fore
SplineSet
111 500 m 1,0,1
 93 470 93 470 93 432 c 0,2,3
 93 390 93 390 121 360 c 0,4,5
 148 333 148 333 197 313 c 1,6,7
 137 288 137 288 99 251 c 0,8,9
 62 215 62 215 60 156 c 0,10,11
 60 112 60 112 87 76 c 0,12,13
 113 41 113 41 163 20 c 0,14,15
 214 0 214 0 274 0 c 0,16,17
 336 0 336 0 385 21 c 0,18,19
 433 42 433 42 462 80 c 0,20,21
 490 120 490 120 490 164 c 0,22,23
 490 213 490 213 456 253 c 0,24,25
 425 293 425 293 364 319 c 1,26,27
 412 340 412 340 442 370 c 0,28,29
 472 402 472 402 472 446 c 0,30,31
 472 475 472 475 459 500 c 1,32,-1
 384 500 l 1,33,34
 408 479 408 479 408 451 c 0,35,36
 408 419 408 419 380 393 c 0,37,38
 353 368 353 368 281 345 c 1,39,40
 214 360 214 360 185 381 c 0,41,42
 157 402 157 402 157 436 c 0,43,44
 157 479 157 479 186 502 c 1,45,-1
 111 500 l 1,0,1
284 297 m 1,46,47
 350 281 350 281 398 247 c 0,48,49
 443 214 443 214 443 165 c 0,50,51
 443 128 443 128 418 103 c 0,52,53
 391 76 391 76 353 65 c 0,54,55
 314 53 314 53 272 53 c 0,56,57
 199 53 199 53 152 81 c 0,58,59
 102 110 102 110 102 154 c 0,60,61
 102 193 102 193 128 221 c 0,62,63
 157 248 157 248 188 261 c 0,64,65
 222 276 222 276 284 297 c 1,46,47
269 128 m 128,-1,67
 256 128 256 128 247 134 c 128,-1,68
 238 140 238 140 240 146 c 2,69,-1
 244 176 l 2,70,71
 246 183 246 183 255 187 c 0,72,73
 263 191 263 191 276 191 c 0,74,75
 291 191 291 191 299 184 c 128,-1,76
 307 177 307 177 306 169 c 2,77,-1
 301 143 l 2,78,79
 300 136 300 136 291 132 c 128,-1,66
 282 128 282 128 269 128 c 128,-1,67
EndSplineSet
Validated: 9
EndChar

StartChar: x
Encoding: 120 120 64
Width: 510
GlyphClass: 2
Flags: W
LayerCount: 2
Fore
SplineSet
151 500 m 0,0,1
 185 500 185 500 215 458 c 0,2,3
 245 420 245 420 265 351 c 1,4,-1
 265 350 l 1,5,-1
 265 351 l 1,6,7
 285 420 285 420 315 458 c 0,8,9
 345 500 345 500 379 500 c 0,10,11
 409 500 409 500 429 483 c 0,12,13
 448 467 448 467 468 430 c 0,14,15
 472 422 472 422 472 409 c 0,16,17
 472 397 472 397 467 387 c 0,18,19
 462 378 462 378 455 378 c 0,20,21
 445 378 445 378 441 389 c 0,22,23
 417 434 417 434 414 437 c 0,24,25
 400 451 400 451 380 451 c 0,26,27
 363 451 363 451 334 410 c 0,28,29
 312 378 312 378 297 326 c 0,30,31
 283 273 283 273 283 219 c 0,32,33
 283 171 283 171 297 132 c 0,34,35
 315 84 315 84 332 68 c 0,36,37
 354 49 354 49 376 49 c 0,38,39
 423 49 423 49 455 127 c 0,40,41
 462 145 462 145 472 145 c 0,42,43
 479 145 479 145 485 136 c 0,44,45
 490 126 490 126 490 115 c 0,46,47
 490 106 490 106 484 92 c 0,48,49
 469 54 469 54 440 27 c 0,50,51
 410 0 410 0 376 0 c 128,-1,52
 342 0 342 0 311 28 c 0,53,54
 284 55 284 55 265 105 c 0,55,56
 258 122 258 122 246 90 c 0,57,58
 225 35 225 35 219 28 c 0,59,60
 188 0 188 0 154 0 c 128,-1,61
 120 0 120 0 90 27 c 0,62,63
 61 54 61 54 46 92 c 0,64,65
 40 106 40 106 40 115 c 0,66,67
 40 126 40 126 45 136 c 0,68,69
 51 145 51 145 58 145 c 0,70,71
 68 145 68 145 75 127 c 0,72,73
 107 50 107 50 154 50 c 0,74,75
 175 50 175 50 198 70 c 0,76,77
 215 85 215 85 233 132 c 0,78,79
 247 171 247 171 247 219 c 0,80,81
 247 273 247 273 233 326 c 0,82,83
 218 378 218 378 196 410 c 0,84,85
 167 451 167 451 150 451 c 0,86,87
 130 451 130 451 116 437 c 0,88,89
 113 434 113 434 89 389 c 0,90,91
 85 378 85 378 75 378 c 0,92,93
 68 378 68 378 63 387 c 0,94,95
 58 397 58 397 58 409 c 0,96,97
 58 422 58 422 62 430 c 0,98,99
 82 467 82 467 101 483 c 0,100,101
 121 500 121 500 151 500 c 0,0,1
EndSplineSet
Validated: 5
EndChar

StartChar: z
Encoding: 122 122 65
Width: 562
GlyphClass: 2
Flags: W
LayerCount: 2
Fore
SplineSet
298 499 m 0,0,1
 289 499 289 499 282 479 c 1,2,3
 282 399 282 399 281 327 c 1,4,-1
 174 288 l 2,5,6
 162 283 162 283 154 274 c 0,7,8
 146 266 146 266 149 260 c 128,-1,9
 152 254 152 254 163 252 c 0,10,11
 176 251 176 251 188 255 c 2,12,-1
 281 289 l 1,13,14
 279 134 279 134 273 122 c 0,15,16
 254 80 254 80 229 60 c 0,17,18
 204 43 204 43 182 43 c 0,19,20
 133 43 133 43 97 113 c 0,21,22
 90 129 90 129 80 129 c 0,23,24
 71 129 71 129 66 121 c 0,25,26
 60 114 60 114 60 102 c 0,27,28
 60 94 60 94 66 82 c 0,29,30
 82 48 82 48 114 24 c 128,-1,31
 146 0 146 0 182 0 c 0,32,33
 220 0 220 0 251 25 c 0,34,35
 259 31 259 31 280 77 c 0,36,37
 294 108 294 108 301 93 c 0,38,39
 321 49 321 49 351 25 c 0,40,41
 382 0 382 0 420 0 c 0,42,43
 456 0 456 0 488 24 c 128,-1,44
 520 48 520 48 536 82 c 0,45,46
 542 94 542 94 542 102 c 0,47,48
 542 114 542 114 536 121 c 0,49,50
 531 129 531 129 522 129 c 0,51,52
 512 129 512 129 505 113 c 0,53,54
 469 43 469 43 420 43 c 0,55,56
 396 43 396 43 373 60 c 0,57,58
 356 74 356 74 330 123 c 0,59,60
 324 136 324 136 322 304 c 1,61,-1
 440 348 l 2,62,63
 453 352 453 352 460 361 c 0,64,65
 467 369 467 369 464 375 c 0,66,67
 461 383 461 383 450 383 c 0,68,69
 440 386 440 386 426 380 c 2,70,-1
 321 342 l 1,71,72
 321 371 321 371 320.5 402 c 128,-1,73
 320 433 320 433 320 454 c 2,74,-1
 320 479 l 2,75,76
 319 481 319 481 317 484.5 c 128,-1,77
 315 488 315 488 309 493.5 c 128,-1,78
 303 499 303 499 298 499 c 0,0,1
EndSplineSet
Validated: 9
EndChar

StartChar: braceleft
Encoding: 123 123 66
Width: 465
GlyphClass: 2
Flags: W
LayerCount: 2
Fore
SplineSet
412 -128 m 0,0,1
 392 -128 392 -128 356 -114 c 0,2,3
 322 -100 322 -100 293 -66 c 128,-1,4
 264 -32 264 -32 264 20 c 2,5,-1
 264 221 l 2,6,7
 264 256 264 256 246 280 c 128,-1,8
 228 304 228 304 200 314 c 0,9,10
 180 322 180 322 180 342 c 0,11,12
 180 351 180 351 185 359 c 0,13,14
 191 366 191 366 199 370 c 0,15,16
 237 388 237 388 250 410 c 0,17,18
 264 433 264 433 264 464 c 2,19,-1
 264 650 l 2,20,21
 264 702 264 702 293 736 c 0,22,23
 322 769 322 769 358 783 c 128,-1,24
 394 797 394 797 415 797 c 0,25,26
 427 797 427 797 436 788 c 128,-1,27
 445 779 445 779 445 767 c 0,28,29
 445 742 445 742 416 737 c 0,30,31
 382 731 382 731 353 711 c 0,32,33
 324 690 324 690 324 650 c 2,34,-1
 324 465 l 2,35,36
 324 389 324 389 268 342 c 1,37,38
 292 324 292 324 309 291 c 0,39,40
 324 260 324 260 324 220 c 2,41,-1
 324 20 l 2,42,43
 324 -21 324 -21 353 -41 c 0,44,45
 382 -63 382 -63 416 -67 c 0,46,47
 429 -70 429 -70 437 -78 c 128,-1,48
 445 -86 445 -86 445 -98 c 0,49,50
 445 -112 445 -112 436 -119 c 0,51,52
 426 -128 426 -128 412 -128 c 0,0,1
EndSplineSet
Validated: 1
EndChar

StartChar: bar
Encoding: 124 124 67
Width: 269
GlyphClass: 2
Flags: W
LayerCount: 2
Fore
SplineSet
218 -172 m 128,-1,1
 205 -172 205 -172 196 -162 c 0,2,3
 186 -153 186 -153 186 -140 c 2,4,-1
 186 797 l 2,5,6
 186 810 186 810 196 820 c 0,7,8
 205 829 205 829 218 829 c 128,-1,9
 231 829 231 829 240 820 c 0,10,11
 249 810 249 810 249 797 c 2,12,-1
 249 -140 l 2,13,14
 249 -153 249 -153 240 -162 c 0,15,0
 231 -172 231 -172 218 -172 c 128,-1,1
EndSplineSet
Validated: 1
EndChar

StartChar: braceright
Encoding: 125 125 68
Width: 453
GlyphClass: 2
Flags: W
LayerCount: 2
Fore
SplineSet
198 -128 m 0,0,1
 186 -128 186 -128 177 -119 c 128,-1,2
 168 -110 168 -110 168 -98 c 0,3,4
 168 -73 168 -73 197 -67 c 0,5,6
 232 -62 232 -62 261 -41 c 0,7,8
 289 -22 289 -22 289 20 c 2,9,-1
 289 205 l 2,10,11
 289 280 289 280 345 327 c 1,12,13
 319 347 319 347 304 378 c 0,14,15
 289 410 289 410 289 449 c 2,16,-1
 289 650 l 2,17,18
 289 682 289 682 266 705 c 0,19,20
 245 726 245 726 197 737 c 0,21,22
 185 738 185 738 176 747 c 0,23,24
 168 755 168 755 168 767 c 0,25,26
 168 780 168 780 178 789 c 0,27,28
 188 797 188 797 201 797 c 0,29,30
 219 797 219 797 255 783 c 0,31,32
 290 769 290 769 320 736 c 0,33,34
 349 702 349 702 349 650 c 2,35,-1
 349 448 l 2,36,37
 349 414 349 414 367 390 c 0,38,39
 384 366 384 366 413 355 c 0,40,41
 433 347 433 347 433 327 c 0,42,43
 433 314 433 314 429 310 c 0,44,45
 423 304 423 304 414 300 c 0,46,47
 376 280 376 280 363 259 c 0,48,49
 349 236 349 236 349 206 c 2,50,-1
 349 20 l 2,51,52
 349 -33 349 -33 320 -67 c 0,53,54
 289 -101 289 -101 254 -114 c 0,55,56
 217 -128 217 -128 198 -128 c 0,0,1
EndSplineSet
Validated: 1
EndChar

StartChar: asciitilde
Encoding: 126 126 69
Width: 701
GlyphClass: 2
Flags: W
LayerCount: 2
Fore
SplineSet
526 142 m 0,0,1
 483 142 483 142 458 164 c 0,2,3
 431 186 431 186 400 228 c 0,4,5
 376 262 376 262 361 274 c 0,6,7
 344 288 344 288 324 288 c 0,8,9
 291 288 291 288 267 260 c 128,-1,10
 243 232 243 232 234 198 c 0,11,12
 226 175 226 175 204 175 c 0,13,14
 192 175 192 175 183 184 c 128,-1,15
 174 193 174 193 174 206 c 0,16,17
 174 210 174 210 177 220 c 0,18,19
 225 348 225 348 324 348 c 0,20,21
 367 348 367 348 393 326 c 0,22,23
 420 302 420 302 449 263 c 0,24,25
 475 229 475 229 490 217 c 0,26,27
 506 203 506 203 526 203 c 0,28,29
 561 203 561 203 583 234 c 0,30,31
 607 266 607 266 620 302 c 0,32,33
 630 330 630 330 651 330 c 0,34,35
 664 330 664 330 673 321 c 0,36,37
 681 311 681 311 681 299 c 0,38,39
 681 290 681 290 678 283 c 0,40,41
 657 227 657 227 622 186 c 0,42,43
 584 142 584 142 526 142 c 0,0,1
EndSplineSet
Validated: 1
EndChar

StartChar: ae
Encoding: 230 230 70
Width: 658
GlyphClass: 3
Flags: W
LayerCount: 2
Fore
SplineSet
124 3 m 2,0,1
 110 3 110 3 102 12 c 0,2,3
 93 20 93 20 93 34 c 0,4,5
 93 46 93 46 102 57 c 0,6,7
 111 66 111 66 124 66 c 2,8,-1
 607 66 l 2,9,10
 618 66 618 66 629 57 c 0,11,12
 638 46 638 46 638 34 c 0,13,14
 638 21 638 21 629 12 c 0,15,16
 618 3 618 3 607 3 c 2,17,-1
 124 3 l 2,0,1
191 389 m 1,18,19
 196 378 196 378 201.5 374 c 128,-1,20
 207 370 207 370 211 372 c 128,-1,21
 215 374 215 374 218 377.5 c 128,-1,22
 221 381 221 381 223 385 c 2,23,-1
 225 389 l 1,24,25
 225 465 225 465 248 515 c 0,26,27
 272 567 272 567 309 594 c 128,-1,28
 346 621 346 621 389 621 c 0,29,30
 437 621 437 621 470 592 c 0,31,32
 504 561 504 561 520 515 c 0,33,34
 538 468 538 468 538 415 c 0,35,36
 538 365 538 365 523 338 c 0,37,38
 508 313 508 313 484 313 c 0,39,40
 464 313 464 313 450 328 c 0,41,42
 436 345 436 345 436 370 c 0,43,44
 436 379 436 379 438 393 c 128,-1,45
 440 407 440 407 440 409 c 0,46,47
 440 420 440 420 435 425 c 0,48,49
 431 432 431 432 424 432 c 0,50,51
 412 432 412 432 408 417 c 0,52,53
 402 394 402 394 383 356 c 0,54,55
 366 324 366 324 346 324 c 0,56,57
 331 324 331 324 324 337 c 0,58,59
 316 350 316 350 316 378 c 128,-1,60
 316 406 316 406 323 427 c 0,61,62
 332 451 332 451 345 464 c 0,63,64
 360 479 360 479 376 479 c 0,65,66
 391 479 391 479 410 463 c 0,67,68
 418 457 418 457 422 457 c 0,69,70
 430 457 430 457 434 463 c 0,71,72
 439 470 439 470 439 479 c 0,73,74
 439 491 439 491 427 503 c 0,75,76
 402 524 402 524 376 524 c 0,77,78
 349 524 349 524 328 504 c 0,79,80
 308 484 308 484 294 450 c 0,81,82
 282 416 282 416 282 378 c 0,83,84
 282 332 282 332 300 305 c 128,-1,85
 318 278 318 278 347 278 c 0,86,87
 380 278 380 278 410 330 c 1,88,89
 419 298 419 298 440 283 c 0,90,91
 462 268 462 268 483 268 c 0,92,93
 523 268 523 268 547 307 c 128,-1,94
 571 346 571 346 571 415 c 0,95,96
 571 486 571 486 547 544 c 0,97,98
 522 603 522 603 481 634 c 0,99,100
 440 668 440 668 389 668 c 0,101,102
 332 668 332 668 288 631 c 0,103,104
 242 594 242 594 217 531 c 0,105,106
 191 467 191 467 191 389 c 1,18,19
EndSplineSet
Validated: 9
EndChar

StartChar: eth
Encoding: 240 240 71
Width: 577
GlyphClass: 3
Flags: W
LayerCount: 2
Fore
SplineSet
135 197 m 0,0,1
 135 213 135 213 136 222 c 0,2,3
 140 310 140 310 193.5 375.5 c 128,-1,4
 247 441 247 441 315 440 c 0,5,6
 367 443 367 443 414 405.5 c 128,-1,7
 461 368 461 368 485 306 c 0,8,9
 503 256 503 256 504 203.5 c 128,-1,10
 505 151 505 151 484 102 c 0,11,12
 473 76 473 76 452 62.5 c 128,-1,13
 431 49 431 49 410 58 c 0,14,15
 377 69 377 69 357.5 109.5 c 128,-1,16
 338 150 338 150 340 197 c 1,17,-1
 299 197 l 1,18,19
 299 151 299 151 284 118 c 0,20,21
 271 84 271 84 245 65.5 c 128,-1,22
 219 47 219 47 192 59 c 0,23,24
 163 74 163 74 148.5 113 c 128,-1,25
 134 152 134 152 135 197 c 0,0,1
80 201 m 0,26,27
 78 104 78 104 131 42 c 0,28,29
 159 5 159 5 203 1 c 128,-1,30
 247 -3 247 -3 281 25 c 0,31,32
 293 31 293 31 305.5 54 c 128,-1,33
 318 77 318 77 321 81 c 1,34,35
 333 37 333 37 369.5 15 c 128,-1,36
 406 -7 406 -7 444 3 c 0,37,38
 490 15 490 15 520 63 c 128,-1,39
 550 111 550 111 555 171 c 0,40,41
 565 261 565 261 527 344.5 c 128,-1,42
 489 428 489 428 421 465 c 0,43,44
 361 494 361 494 326 493 c 0,45,46
 288 493 288 493 245 473 c 1,47,48
 173 447 173 447 126 370 c 128,-1,49
 79 293 79 293 80 201 c 0,26,27
EndSplineSet
Validated: 41
EndChar

StartChar: eng
Encoding: 331 331 72
Width: 512
GlyphClass: 2
Flags: W
LayerCount: 2
Fore
SplineSet
26 22 m 2,0,1
 26 82 26 82 54 123 c 128,-1,2
 82 164 82 164 128 192 c 0,3,4
 168 218 168 218 242 248 c 0,5,6
 312 277 312 277 334 288 c 0,7,8
 364 301 364 301 387 324 c 0,9,10
 409 346 409 346 409 374 c 0,11,12
 409 406 409 406 366 431 c 0,13,14
 323 454 323 454 262 454 c 0,15,16
 202 454 202 454 158 435 c 0,17,18
 117 418 117 418 93 401 c 0,19,20
 89 398 89 398 83 394 c 128,-1,21
 77 390 77 390 75 389 c 0,22,23
 69 386 69 386 57 386 c 0,24,25
 41 386 41 386 30 394 c 0,26,27
 20 401 20 401 20 410 c 0,28,29
 20 417 20 417 27 423 c 0,30,31
 34 430 34 430 54 441 c 0,32,33
 149 500 149 500 262 500 c 0,34,35
 324 500 324 500 375 483 c 0,36,37
 425 466 425 466 453 437 c 0,38,39
 482 408 482 408 482 374 c 0,40,41
 482 334 482 334 455 305 c 0,42,43
 430 276 430 276 392 257 c 0,44,45
 350 236 350 236 289 211 c 0,46,47
 232 187 232 187 195 167 c 0,48,49
 156 145 156 145 131 116 c 0,50,51
 105 87 105 87 100 46 c 1,52,-1
 455 46 l 2,53,54
 470 46 470 46 481 38 c 0,55,56
 492 32 492 32 492 22 c 0,57,58
 492 13 492 13 481 6 c 0,59,60
 470 0 470 0 455 0 c 2,61,-1
 26 0 l 1,62,-1
 26 22 l 2,0,1
EndSplineSet
Validated: 1
EndChar

StartChar: uni0251
Encoding: 593 593 73
Width: 642
GlyphClass: 2
Flags: W
LayerCount: 2
Fore
SplineSet
615 97 m 0,0,1
 610 93 610 93 603 93 c 0,2,3
 595 93 595 93 590 97 c 0,4,5
 584 100 584 100 584 106 c 2,6,-1
 584 389 l 2,7,8
 584 395 584 395 589 398 c 0,9,10
 594 402 594 402 603 402 c 0,11,12
 610 402 610 402 615 398 c 0,13,14
 621 395 621 395 621 389 c 2,15,-1
 621 106 l 2,16,17
 621 100 621 100 615 97 c 0,0,1
188 334 m 2,18,19
 175 334 175 334 166 343 c 0,20,21
 157 350 157 350 157 364 c 0,22,23
 157 377 157 377 166 386 c 128,-1,24
 175 395 175 395 188 395 c 2,25,-1
 469 395 l 2,26,27
 482 395 482 395 492 386 c 0,28,29
 501 377 501 377 501 364 c 0,30,31
 501 350 501 350 492 343 c 0,32,33
 482 334 482 334 469 334 c 2,34,-1
 188 334 l 2,18,19
191 2 m 2,35,36
 178 2 178 2 169 11 c 0,37,38
 160 18 160 18 160 32 c 0,39,40
 160 45 160 45 169 54 c 128,-1,41
 178 63 178 63 191 63 c 2,42,-1
 472 63 l 2,43,44
 484 63 484 63 495 54 c 0,45,46
 504 45 504 45 504 32 c 0,47,48
 504 18 504 18 495 11 c 0,49,50
 484 2 484 2 472 2 c 2,51,-1
 191 2 l 2,35,36
EndSplineSet
Validated: 1
EndChar

StartChar: uni0254
Encoding: 596 596 74
Width: 717
GlyphClass: 2
Flags: W
LayerCount: 2
Fore
SplineSet
188 3 m 2,0,1
 174 3 174 3 166 12 c 0,2,3
 157 20 157 20 157 34 c 0,4,5
 157 46 157 46 166 57 c 0,6,7
 175 66 175 66 188 66 c 2,8,-1
 671 66 l 2,9,10
 682 66 682 66 693 57 c 0,11,12
 702 46 702 46 702 34 c 0,13,14
 702 21 702 21 693 12 c 0,15,16
 682 3 682 3 671 3 c 2,17,-1
 188 3 l 2,0,1
635.83984375 310.779296875 m 1,18,-1
 598.580078125 310.779296875 l 1,19,20
 592 326 592 326 567.799804688 370.719726562 c 0,21,22
 532 437 532 437 486.799804688 479.259765625 c 0,23,24
 452 512 452 512 420.380859375 530.290039062 c 0,25,26
 390 549 390 549 342.620117188 566.739257812 c 1,27,-1
 422 604 l 1,28,29
 452 587 452 587 457.639648438 582.939453125 c 0,30,31
 493 559 493 559 517.580078125 532.719726562 c 0,32,33
 565 480 565 480 606.680664062 386.919921875 c 0,34,35
 620 358 620 358 635.83984375 310.779296875 c 1,18,-1
514.33984375 310.779296875 m 1,36,-1
 468.98046875 310.779296875 l 1,37,38
 444 335 444 335 376.639648438 378.8203125 c 0,39,40
 302 428 302 428 248.66015625 442 c 0,41,42
 241 444 241 444 190.33984375 453.33984375 c 0,43,44
 137 463 137 463 119.060546875 463.059570312 c 1,45,-1
 156.3203125 532.719726562 l 1,46,47
 184 526 184 526 209.780273438 519.759765625 c 0,48,49
 255 508 255 508 326.419921875 471.159179688 c 0,50,51
 394 436 394 436 465.740234375 365.859375 c 0,52,53
 487 345 487 345 514.33984375 310.779296875 c 1,36,-1
EndSplineSet
Validated: 1
EndChar

StartChar: uni0256
Encoding: 598 598 75
Width: 568
GlyphClass: 2
Flags: W
LayerCount: 2
Fore
SplineSet
315 495 m 0,0,1
 338 495 338 495 347 476 c 2,2,-1
 541 53 l 2,3,4
 545 46 545 46 545 41 c 0,5,6
 547 38 547 38 547 30 c 0,7,8
 547 19 547 19 539 9 c 0,9,10
 532 0 532 0 521 0 c 2,11,-1
 107 0 l 2,12,13
 94 0 94 0 88 9 c 0,14,15
 80 17 80 17 80 30 c 0,16,17
 80 38 80 38 88 52 c 1,18,-1
 88 53 l 1,19,-1
 283 474 l 2,20,21
 294 495 294 495 315 495 c 0,0,1
316 407 m 1,22,-1
 151 56 l 1,23,-1
 481 56 l 1,24,-1
 316 407 l 1,22,-1
EndSplineSet
Validated: 1
EndChar

StartChar: uni0259
Encoding: 601 601 76
Width: 524
GlyphClass: 2
Flags: W
LayerCount: 2
Fore
SplineSet
194.19921875 323.586914062 m 6,0,1
 184.818359375 328.154296875 184.818359375 328.154296875 177.115234375 340.11328125 c 4,2,3
 170.935546875 349.973632812 170.935546875 349.973632812 176.55859375 362.954101562 c 4,4,5
 180.935546875 374.973632812 180.935546875 374.973632812 193 380 c 4,6,7
 206.935546875 384.973632812 206.935546875 384.973632812 216.854492188 380.223632812 c 6,8,-1
 359.737304688 310.640625 l 6,9,10
 372.7890625 304.284179688 372.7890625 304.284179688 377.75 293.7421875 c 4,11,12
 382.935546875 281.973632812 382.935546875 281.973632812 377.935546875 269.973632812 c 4,13,14
 373.935546875 257.973632812 373.935546875 257.973632812 361.780273438 253.818359375 c 4,15,16
 347.630859375 248.866210938 347.630859375 248.866210938 337.083007812 254.00390625 c 6,17,-1
 194.19921875 323.586914062 l 6,0,1
191 2 m 2,18,19
 178 2 178 2 169 11 c 0,20,21
 160 18 160 18 160 32 c 0,22,23
 160 45 160 45 169 54 c 128,-1,24
 178 63 178 63 191 63 c 2,25,-1
 472 63 l 2,26,27
 484 63 484 63 495 54 c 0,28,29
 504 45 504 45 504 32 c 0,30,31
 504 18 504 18 495 11 c 0,32,33
 484 2 484 2 472 2 c 2,34,-1
 191 2 l 2,18,19
EndSplineSet
Validated: 1
EndChar

StartChar: uni025B
Encoding: 603 603 77
Width: 658
GlyphClass: 3
Flags: W
LayerCount: 2
Fore
SplineSet
415 260 m 0,0,1
 341 260 341 260 285 288 c 0,2,3
 229 313 229 313 197 360 c 0,4,5
 166 406 166 406 166 460 c 0,6,7
 166 515 166 515 195 567 c 0,8,9
 225 617 225 617 274 646 c 0,10,11
 325 676 325 676 391 676 c 0,12,13
 448 676 448 676 494 657 c 0,14,15
 534 639 534 639 558 611 c 0,16,17
 579 584 579 584 579 563 c 0,18,19
 579 548 579 548 555 537 c 2,20,-1
 245 389 l 1,21,22
 271 349 271 349 313 329 c 0,23,24
 356 308 356 308 414 308 c 0,25,26
 445 308 445 308 482 322 c 0,27,28
 518 336 518 336 538 353 c 0,29,30
 546 362 546 362 558 362 c 128,-1,31
 570 362 570 362 580 355 c 0,32,33
 588 347 588 347 588 337 c 0,34,35
 588 330 588 330 580 320 c 0,36,37
 550 292 550 292 507 278 c 0,38,39
 460 260 460 260 415 260 c 0,0,1
517 573 m 1,40,41
 503 602 503 602 473 616 c 0,42,43
 442 630 442 630 392 630 c 0,44,45
 345 630 345 630 306 608 c 0,46,47
 268 585 268 585 247 548 c 0,48,49
 226 512 226 512 224 465 c 0,50,51
 224 452 224 452 226 438 c 1,52,-1
 517 573 l 1,40,41
124 3 m 2,53,54
 110 3 110 3 102 12 c 0,55,56
 93 20 93 20 93 34 c 0,57,58
 93 46 93 46 102 57 c 0,59,60
 111 66 111 66 124 66 c 2,61,-1
 607 66 l 2,62,63
 618 66 618 66 629 57 c 0,64,65
 638 46 638 46 638 34 c 0,66,67
 638 21 638 21 629 12 c 0,68,69
 618 3 618 3 607 3 c 2,70,-1
 124 3 l 2,53,54
EndSplineSet
Validated: 1
EndChar

StartChar: uni0261
Encoding: 609 609 78
Width: 597
GlyphClass: 2
Flags: W
LayerCount: 2
Fore
SplineSet
384 -6 m 128,-1,1
 326 -6 326 -6 276 23 c 0,2,3
 224 52 224 52 196 101 c 0,4,5
 166 150 166 150 166 211 c 0,6,7
 166 278 166 278 198 345 c 0,8,9
 231 412 231 412 281 452 c 0,10,11
 334 493 334 493 389 493 c 0,12,13
 439 493 439 493 475 476 c 0,14,15
 506 460 506 460 539 423 c 0,16,17
 547 415 547 415 547 402 c 0,18,19
 547 390 547 390 539 380 c 0,20,21
 530 371 530 371 517 371 c 0,22,23
 503 371 503 371 494 382 c 0,24,25
 470 410 470 410 449 422 c 0,26,27
 427 435 427 435 391 435 c 0,28,29
 351 435 351 435 313 403 c 128,-1,30
 275 371 275 371 251 320 c 0,31,32
 227 268 227 268 227 213 c 0,33,34
 227 163 227 163 251 127 c 0,35,36
 273 91 273 91 311 71 c 0,37,38
 346 52 346 52 384 52 c 0,39,40
 470 52 470 52 518 121 c 0,41,42
 532 139 532 139 546 139 c 0,43,44
 559 139 559 139 568 130 c 128,-1,45
 577 121 577 121 577 109 c 0,46,47
 577 99 577 99 567 86 c 0,48,49
 541 48 541 48 492 21 c 0,50,0
 442 -6 442 -6 384 -6 c 128,-1,1
EndSplineSet
Validated: 1
EndChar

StartChar: uni0266
Encoding: 614 614 79
Width: 583
GlyphClass: 2
Flags: W
LayerCount: 2
Fore
SplineSet
191 0 m 0,0,1
 182 0 182 0 176 7 c 0,2,3
 169 14 169 14 169 24 c 2,4,-1
 169 487 l 2,5,6
 169 496 169 496 175 504 c 0,7,8
 181 510 181 510 191 510 c 0,9,10
 202 510 202 510 208 504 c 0,11,12
 215 497 215 497 215 487 c 2,13,-1
 215 262 l 1,14,-1
 517 307 l 1,15,-1
 517 487 l 2,16,17
 517 495 517 495 524 504 c 0,18,19
 530 510 530 510 540 510 c 0,20,21
 548 510 548 510 556 504 c 0,22,23
 563 497 563 497 563 487 c 2,24,-1
 563 24 l 2,25,26
 563 14 563 14 556 7 c 128,-1,27
 549 0 549 0 540 0 c 128,-1,28
 531 0 531 0 524 7 c 0,29,30
 517 16 517 16 517 24 c 2,31,-1
 517 258 l 1,32,-1
 215 214 l 1,33,-1
 215 24 l 2,34,35
 215 14 215 14 208 7 c 128,-1,36
 201 0 201 0 191 0 c 0,0,1
EndSplineSet
Validated: 1
EndChar

StartChar: uni026A
Encoding: 618 618 80
Width: 498
GlyphClass: 2
Flags: W
LayerCount: 2
Fore
SplineSet
301 298 m 132,-1,1
 287 298 287 298 278 306 c 4,2,3
 268 312 268 312 268 322 c 6,4,-1
 274 648 l 6,5,6
 274 658 274 658 284 665 c 4,7,8
 295 673 295 673 307 673 c 4,9,10
 318 673 318 673 330 666 c 4,11,12
 339 658 339 658 339 648 c 6,13,-1
 333 322 l 6,14,15
 333 312 333 312 324 306 c 4,16,0
 315 298 315 298 301 298 c 132,-1,1
165 6 m 6,17,18
 152 6 152 6 143 15 c 4,19,20
 134 22 134 22 134 36 c 4,21,22
 134 49 134 49 143 58 c 132,-1,23
 152 67 152 67 165 67 c 6,24,-1
 446 67 l 6,25,26
 458 67 458 67 469 58 c 4,27,28
 478 49 478 49 478 36 c 4,29,30
 478 22 478 22 469 15 c 4,31,32
 458 6 458 6 446 6 c 6,33,-1
 165 6 l 6,17,18
EndSplineSet
Validated: 1
EndChar

StartChar: uni0272
Encoding: 626 626 81
Width: 499
GlyphClass: 2
Flags: W
LayerCount: 2
Fore
SplineSet
276 510 m 0,0,1
 175 510 175 510 92 449 c 0,2,3
 73 438 73 438 68 430 c 0,4,5
 61 423 61 423 61 417 c 0,6,7
 61 407 61 407 71 400 c 0,8,9
 79 393 79 393 94 393 c 0,10,11
 102 393 102 393 110 395 c 0,12,13
 116 399 116 399 127 408 c 0,14,15
 146 424 146 424 184 443 c 128,-1,16
 222 462 222 462 276 462 c 0,17,18
 333 462 333 462 368 438 c 0,19,20
 406 413 406 413 406 380 c 0,21,22
 406 349 406 349 385 328 c 0,23,24
 372 311 372 311 340 290 c 0,25,26
 289 263 289 263 259 249 c 1,27,-1
 257 249 l 1,28,-1
 130 329 l 2,29,30
 118 336 118 336 103 336 c 0,31,32
 92 336 92 336 82 332 c 0,33,34
 73 329 73 329 73 325 c 0,35,36
 73 320 73 320 82 316 c 2,37,-1
 217 228 l 1,38,39
 189 214 189 214 158 191 c 0,40,41
 123 169 123 169 92 120 c 0,42,43
 66 76 66 76 66 15 c 2,44,-1
 66 -7 l 1,45,-1
 446 -7 l 2,46,47
 462 -7 462 -7 470 -1 c 0,48,49
 479 6 479 6 479 15 c 0,50,51
 479 25 479 25 470 32 c 0,52,53
 459 40 459 40 446 40 c 2,54,-1
 132 40 l 1,55,56
 139 86 139 86 160 113 c 0,57,58
 182 144 182 144 217 165 c 0,59,60
 236 179 236 179 269 196 c 1,61,-1
 413 104 l 2,62,63
 419 99 419 99 439 99 c 0,64,65
 452 99 452 99 459 102 c 0,66,67
 468 105 468 105 468 109 c 2,68,-1
 465 115 l 1,69,-1
 309 215 l 1,70,71
 377 250 377 250 390 259 c 0,72,73
 425 279 425 279 446 307 c 0,74,75
 470 337 470 337 470 380 c 0,76,77
 470 414 470 414 444 446 c 0,78,79
 420 474 420 474 376 492 c 128,-1,80
 332 510 332 510 276 510 c 0,0,1
EndSplineSet
Validated: 9
EndChar

StartChar: uni0273
Encoding: 627 627 82
Width: 561
GlyphClass: 3
Flags: W
LayerCount: 2
Fore
SplineSet
163 -5 m 2,0,1
 150 -5 150 -5 141 5 c 0,2,3
 131 14 131 14 131 26 c 128,-1,4
 131 38 131 38 138 45 c 2,5,-1
 444 431 l 1,6,-1
 173 431 l 2,7,8
 160 431 160 431 151 440 c 128,-1,9
 142 449 142 449 142 463 c 0,10,11
 142 474 142 474 151 485 c 0,12,13
 160 494 160 494 173 494 c 2,14,-1
 504 494 l 2,15,16
 516 494 516 494 527 485 c 0,17,18
 536 474 536 474 536 463 c 0,19,20
 536 451 536 451 529 444 c 2,21,-1
 223 58 l 1,22,-1
 510 58 l 2,23,24
 523 58 523 58 532 49 c 0,25,26
 541 38 541 38 541 26 c 128,-1,27
 541 14 541 14 532 5 c 0,28,29
 523 -5 523 -5 510 -5 c 2,30,-1
 163 -5 l 2,0,1
232 282 m 128,-1,32
 219 282 219 282 210 288 c 128,-1,33
 201 294 201 294 203 300 c 2,34,-1
 207 330 l 2,35,36
 209 337 209 337 218 341 c 0,37,38
 226 345 226 345 239 345 c 0,39,40
 254 345 254 345 262 338 c 128,-1,41
 270 331 270 331 269 323 c 2,42,-1
 264 297 l 2,43,44
 263 290 263 290 254 286 c 128,-1,31
 245 282 245 282 232 282 c 128,-1,32
413 122 m 128,-1,46
 400 122 400 122 391 128 c 128,-1,47
 382 134 382 134 384 140 c 2,48,-1
 388 170 l 2,49,50
 390 177 390 177 399 181 c 0,51,52
 407 185 407 185 420 185 c 0,53,54
 435 185 435 185 443 178 c 128,-1,55
 451 171 451 171 450 163 c 2,56,-1
 445 137 l 2,57,58
 444 130 444 130 435 126 c 128,-1,45
 426 122 426 122 413 122 c 128,-1,46
EndSplineSet
Validated: 1
EndChar

StartChar: uni027D
Encoding: 637 637 83
Width: 568
GlyphClass: 2
Flags: W
LayerCount: 2
Fore
SplineSet
310 137 m 128,-1,1
 294 137 294 137 284 149 c 0,2,3
 274 159 274 159 274 177 c 128,-1,4
 274 195 274 195 288 211 c 0,5,6
 302 226 302 226 318 226 c 0,7,8
 332 226 332 226 343 215 c 0,9,10
 353 204 353 204 353 187 c 0,11,12
 353 165 353 165 340 152 c 0,13,0
 326 137 326 137 310 137 c 128,-1,1
315 495 m 0,14,15
 338 495 338 495 347 476 c 2,16,-1
 541 53 l 2,17,18
 545 46 545 46 545 41 c 0,19,20
 547 38 547 38 547 30 c 0,21,22
 547 19 547 19 539 9 c 0,23,24
 532 0 532 0 521 0 c 2,25,-1
 107 0 l 2,26,27
 94 0 94 0 88 9 c 0,28,29
 80 17 80 17 80 30 c 0,30,31
 80 38 80 38 88 52 c 1,32,-1
 88 53 l 1,33,-1
 283 474 l 2,34,35
 294 495 294 495 315 495 c 0,14,15
316 407 m 1,36,-1
 151 56 l 1,37,-1
 481 56 l 1,38,-1
 316 407 l 1,36,-1
EndSplineSet
Validated: 1
EndChar

StartChar: uni0282
Encoding: 642 642 84
Width: 519
GlyphClass: 2
Flags: W
LayerCount: 2
Fore
SplineSet
204 -68 m 0,0,1
 192 -68 192 -68 184 -60 c 128,-1,2
 176 -52 176 -52 176 -41 c 0,3,4
 176 -32 176 -32 179 -25 c 2,5,-1
 203 32 l 1,6,7
 180 49 180 49 165 71 c 0,8,9
 143 102 143 102 143 124 c 0,10,11
 143 137 143 137 152 146 c 0,12,13
 160 154 160 154 173 154 c 0,14,15
 195 154 195 154 201 133 c 0,16,17
 210 107 210 107 227 89 c 1,18,-1
 291 239 l 1,19,20
 234 260 234 260 207 285 c 0,21,22
 171 318 171 318 171 372 c 128,-1,23
 171 426 171 426 216 460 c 0,24,25
 260 493 260 493 343 493 c 0,26,27
 372 493 372 493 396 488 c 1,28,-1
 420 544 l 2,29,30
 426 558 426 558 446 558 c 0,31,32
 456 558 456 558 466 550 c 0,33,34
 474 540 474 540 474 532 c 0,35,36
 474 523 474 523 470 516 c 2,37,-1
 468 512 l 1,38,-1
 466 508 l 1,39,-1
 465 507 l 1,40,-1
 449 469 l 1,41,-1
 459 463 l 1,42,43
 499 432 499 432 499 379 c 0,44,45
 499 356 499 356 491 343 c 0,46,47
 484 330 484 330 468 330 c 0,48,49
 455 330 455 330 446 339 c 0,50,51
 437 346 437 346 437 358 c 0,52,53
 437 361 437 361 439 369 c 0,54,55
 440 373 440 373 440 380 c 0,56,57
 440 400 440 400 426 415 c 1,58,-1
 367 275 l 1,59,60
 409 260 409 260 437 245 c 0,61,62
 469 227 469 227 484 203 c 0,63,64
 498 177 498 177 498 140 c 0,65,66
 498 104 498 104 477 69 c 0,67,68
 455 35 455 35 416 14 c 0,69,70
 378 -8 378 -8 326 -8 c 0,71,72
 285 -8 285 -8 253 4 c 1,73,-1
 228 -54 l 2,74,75
 225 -62 225 -62 220 -64 c 0,76,77
 213 -68 213 -68 204 -68 c 0,0,1
275 57 m 1,78,79
 299 49 299 49 329 49 c 0,80,81
 376 49 376 49 408 75 c 0,82,83
 439 100 439 100 439 137 c 0,84,85
 439 158 439 158 430 173 c 0,86,87
 419 187 419 187 396 200 c 0,88,89
 376 211 376 211 344 221 c 1,90,-1
 275 57 l 1,78,79
374 436 m 1,91,92
 360 438 360 438 343 438 c 0,93,94
 289 438 289 438 260 421 c 0,95,96
 230 403 230 403 230 371 c 0,97,98
 230 340 230 340 256 322 c 0,99,100
 275 309 275 309 314 294 c 1,101,-1
 374 436 l 1,91,92
EndSplineSet
Validated: 1
EndChar

StartChar: uni0283
Encoding: 643 643 85
Width: 519
GlyphClass: 3
Flags: W
LayerCount: 2
Fore
SplineSet
326 -8 m 4,0,1
 268 -8 268 -8 228 16 c 4,2,3
 187 38 187 38 165 71 c 4,4,5
 143 102 143 102 143 124 c 4,6,7
 143 137 143 137 152 146 c 4,8,9
 160 154 160 154 173 154 c 4,10,11
 195 154 195 154 201 133 c 4,12,13
 214 94 214 94 248 71 c 4,14,15
 280 49 280 49 329 49 c 4,16,17
 376 49 376 49 408 75 c 4,18,19
 439 100 439 100 439 137 c 4,20,21
 439 158 439 158 430 173 c 4,22,23
 419 187 419 187 396 200 c 4,24,25
 370 214 370 214 324 227 c 4,26,27
 242 253 242 253 207 285 c 4,28,29
 171 318 171 318 171 372 c 132,-1,30
 171 426 171 426 216 460 c 4,31,32
 260 493 260 493 343 493 c 4,33,34
 418 493 418 493 459 463 c 4,35,36
 499 432 499 432 499 379 c 4,37,38
 499 356 499 356 491 343 c 4,39,40
 484 330 484 330 468 330 c 4,41,42
 455 330 455 330 446 339 c 4,43,44
 437 346 437 346 437 358 c 4,45,46
 437 361 437 361 439 369 c 4,47,48
 440 373 440 373 440 380 c 4,49,50
 440 406 440 406 416 423 c 4,51,52
 392 438 392 438 343 438 c 4,53,54
 289 438 289 438 260 421 c 4,55,56
 230 403 230 403 230 371 c 4,57,58
 230 340 230 340 256 322 c 132,-1,59
 282 304 282 304 344 283 c 4,60,61
 402 264 402 264 437 245 c 4,62,63
 469 227 469 227 484 203 c 4,64,65
 498 177 498 177 498 140 c 4,66,67
 498 104 498 104 477 69 c 4,68,69
 455 35 455 35 416 14 c 4,70,71
 378 -8 378 -8 326 -8 c 4,0,1
342 325 m 132,-1,73
 329 325 329 325 320 331 c 132,-1,74
 311 337 311 337 313 343 c 6,75,-1
 317 373 l 6,76,77
 319 380 319 380 328 384 c 4,78,79
 336 388 336 388 349 388 c 4,80,81
 364 388 364 388 372 381 c 132,-1,82
 380 374 380 374 379 366 c 6,83,-1
 374 340 l 6,84,85
 373 333 373 333 364 329 c 132,-1,72
 355 325 355 325 342 325 c 132,-1,73
305 113 m 132,-1,87
 292 113 292 113 283 119 c 132,-1,88
 274 125 274 125 276 131 c 6,89,-1
 280 161 l 6,90,91
 282 168 282 168 291 172 c 4,92,93
 299 176 299 176 312 176 c 4,94,95
 327 176 327 176 335 169 c 132,-1,96
 343 162 343 162 342 154 c 6,97,-1
 337 128 l 6,98,99
 336 121 336 121 327 117 c 132,-1,86
 318 113 318 113 305 113 c 132,-1,87
EndSplineSet
Validated: 1
EndChar

StartChar: uni0288
Encoding: 648 648 86
Width: 653
GlyphClass: 2
Flags: W
LayerCount: 2
Fore
SplineSet
381 -6 m 0,0,1
 367 -6 367 -6 359 1 c 0,2,3
 350 8 350 8 350 18 c 2,4,-1
 350 448 l 1,5,-1
 161 448 l 2,6,7
 147 448 147 448 139 455 c 0,8,9
 129 461 129 461 129 471 c 128,-1,10
 129 481 129 481 139 488 c 0,11,12
 147 495 147 495 161 495 c 2,13,-1
 602 495 l 2,14,15
 616 495 616 495 624 488 c 0,16,17
 633 482 633 482 633 471 c 0,18,19
 633 461 633 461 624 455 c 0,20,21
 616 448 616 448 602 448 c 2,22,-1
 413 448 l 1,23,-1
 413 18 l 2,24,25
 413 8 413 8 404 1 c 0,26,27
 394 -6 394 -6 381 -6 c 0,0,1
-775 -144 m 1024,28,-1
EndSplineSet
Validated: 1
EndChar

StartChar: uni028A
Encoding: 650 650 87
Width: 722
GlyphClass: 3
Flags: W
LayerCount: 2
Fore
SplineSet
413 304 m 0,0,1
 364 304 364 304 327 324 c 0,2,3
 288 343 288 343 266 371 c 0,4,5
 258 382 258 382 258 388 c 0,6,7
 258 396 258 396 266 404 c 0,8,9
 274 410 274 410 283 410 c 0,10,11
 296 410 296 410 306 397 c 0,12,13
 344 346 344 346 413 346 c 0,14,15
 442 346 442 346 473 360 c 0,16,17
 503 376 503 376 521 401 c 0,18,19
 539 428 539 428 539 465 c 0,20,21
 539 506 539 506 520 543 c 0,22,23
 500 581 500 581 470 605 c 0,24,25
 439 628 439 628 408 628 c 0,26,27
 378 628 378 628 361 618 c 0,28,29
 344 609 344 609 325 589 c 0,30,31
 317 581 317 581 307 581 c 0,32,33
 296 581 296 581 290 588 c 0,34,35
 283 594 283 594 283 604 c 128,-1,36
 283 614 283 614 289 619 c 0,37,38
 315 646 315 646 341 658 c 0,39,40
 367 671 367 671 409 671 c 0,41,42
 455 671 455 671 496 640 c 0,43,44
 538 610 538 610 563 561 c 0,45,46
 588 514 588 514 588 463 c 0,47,48
 588 420 588 420 565 382 c 0,49,50
 541 345 541 345 501 324 c 0,51,52
 458 304 458 304 413 304 c 0,0,1
188 3 m 2,53,54
 174 3 174 3 166 12 c 0,55,56
 157 20 157 20 157 34 c 0,57,58
 157 46 157 46 166 57 c 0,59,60
 175 66 175 66 188 66 c 2,61,-1
 671 66 l 2,62,63
 682 66 682 66 693 57 c 0,64,65
 702 46 702 46 702 34 c 0,66,67
 702 21 702 21 693 12 c 0,68,69
 682 3 682 3 671 3 c 2,70,-1
 188 3 l 2,53,54
EndSplineSet
Validated: 1
EndChar

StartChar: uni028C
Encoding: 652 652 88
Width: 524
GlyphClass: 2
Flags: W
LayerCount: 2
Fore
SplineSet
188 334 m 6,0,1
 175 334 175 334 166 343 c 4,2,3
 157 350 157 350 157 364 c 4,4,5
 157 377 157 377 166 386 c 132,-1,6
 175 395 175 395 188 395 c 6,7,-1
 469 395 l 6,8,9
 482 395 482 395 492 386 c 4,10,11
 501 377 501 377 501 364 c 4,12,13
 501 350 501 350 492 343 c 4,14,15
 482 334 482 334 469 334 c 6,16,-1
 188 334 l 6,0,1
191 2 m 6,17,18
 178 2 178 2 169 11 c 4,19,20
 160 18 160 18 160 32 c 4,21,22
 160 45 160 45 169 54 c 132,-1,23
 178 63 178 63 191 63 c 6,24,-1
 472 63 l 6,25,26
 484 63 484 63 495 54 c 4,27,28
 504 45 504 45 504 32 c 4,29,30
 504 18 504 18 495 11 c 4,31,32
 484 2 484 2 472 2 c 6,33,-1
 191 2 l 6,17,18
EndSplineSet
Validated: 1
EndChar

StartChar: uni0292
Encoding: 658 658 89
Width: 562
GlyphClass: 2
Flags: W
LayerCount: 2
Fore
SplineSet
409 125 m 128,-1,1
 396 125 396 125 387 131 c 128,-1,2
 378 137 378 137 380 143 c 2,3,-1
 384 173 l 2,4,5
 386 180 386 180 395 184 c 0,6,7
 403 188 403 188 416 188 c 0,8,9
 431 188 431 188 439 181 c 128,-1,10
 447 174 447 174 446 166 c 2,11,-1
 441 140 l 2,12,13
 440 133 440 133 431 129 c 128,-1,0
 422 125 422 125 409 125 c 128,-1,1
298 499 m 0,14,15
 289 499 289 499 282 479 c 1,16,17
 282 399 282 399 281 327 c 1,18,-1
 174 288 l 2,19,20
 162 283 162 283 154 274 c 0,21,22
 146 266 146 266 149 260 c 128,-1,23
 152 254 152 254 163 252 c 0,24,25
 176 251 176 251 188 255 c 2,26,-1
 281 289 l 1,27,28
 279 134 279 134 273 122 c 0,29,30
 254 80 254 80 229 60 c 0,31,32
 204 43 204 43 182 43 c 0,33,34
 133 43 133 43 97 113 c 0,35,36
 90 129 90 129 80 129 c 0,37,38
 71 129 71 129 66 121 c 0,39,40
 60 114 60 114 60 102 c 0,41,42
 60 94 60 94 66 82 c 0,43,44
 82 48 82 48 114 24 c 128,-1,45
 146 0 146 0 182 0 c 0,46,47
 220 0 220 0 251 25 c 0,48,49
 259 31 259 31 280 77 c 0,50,51
 294 108 294 108 301 93 c 0,52,53
 321 49 321 49 351 25 c 0,54,55
 382 0 382 0 420 0 c 0,56,57
 456 0 456 0 488 24 c 128,-1,58
 520 48 520 48 536 82 c 0,59,60
 542 94 542 94 542 102 c 0,61,62
 542 114 542 114 536 121 c 0,63,64
 531 129 531 129 522 129 c 0,65,66
 512 129 512 129 505 113 c 0,67,68
 469 43 469 43 420 43 c 0,69,70
 396 43 396 43 373 60 c 0,71,72
 356 74 356 74 330 123 c 0,73,74
 324 136 324 136 322 304 c 1,75,-1
 440 348 l 2,76,77
 453 352 453 352 460 361 c 0,78,79
 467 369 467 369 464 375 c 0,80,81
 461 383 461 383 450 383 c 0,82,83
 440 386 440 386 426 380 c 2,84,-1
 321 342 l 1,85,86
 321 371 321 371 320.5 402 c 128,-1,87
 320 433 320 433 320 454 c 2,88,-1
 320 479 l 2,89,90
 319 481 319 481 317 484.5 c 128,-1,91
 315 488 315 488 309 493.5 c 128,-1,92
 303 499 303 499 298 499 c 0,14,15
EndSplineSet
Validated: 9
EndChar

StartChar: uni02A4
Encoding: 676 676 90
Width: 550
GlyphClass: 3
Flags: W
LayerCount: 2
Fore
SplineSet
276 478 m 1,0,1
 276 137 276 137 269 122 c 0,2,3
 261 105 261 105 247 86 c 128,-1,4
 233 67 233 67 222 59 c 0,5,6
 199 42 199 42 176 42 c 0,7,8
 131 42 131 42 96 113 c 0,9,10
 89 129 89 129 79 129 c 0,11,12
 71 129 71 129 66 121 c 0,13,14
 60 114 60 114 60 102 c 0,15,16
 60 94 60 94 66 82 c 0,17,18
 83 47 83 47 113 24 c 0,19,20
 143 0 143 0 179 0 c 0,21,22
 216 0 216 0 247 25 c 0,23,24
 254 31 254 31 275 77 c 0,25,26
 288 108 288 108 295 93 c 0,27,28
 314 50 314 50 344 25 c 0,29,30
 375 0 375 0 411 0 c 0,31,32
 446 0 446 0 478 24 c 0,33,34
 508 48 508 48 524 82 c 0,35,36
 530 94 530 94 530 102 c 0,37,38
 530 114 530 114 524 121 c 0,39,40
 519 129 519 129 511 129 c 0,41,42
 501 129 501 129 494 113 c 0,43,44
 460 43 460 43 411 43 c 0,45,46
 388 43 388 43 365 60 c 0,47,48
 338 82 338 82 321 119 c 0,49,50
 314 134 314 134 314 478 c 0,51,52
 313 480 313 480 311.5 482.5 c 128,-1,53
 310 485 310 485 305.5 490.5 c 128,-1,54
 301 496 301 496 296.5 497.5 c 128,-1,55
 292 499 292 499 286.5 495 c 128,-1,56
 281 491 281 491 276 478 c 1,0,1
EndSplineSet
Validated: 9
EndChar

StartChar: uni02A7
Encoding: 679 679 91
Width: 647
VWidth: 2048
GlyphClass: 3
Flags: W
LayerCount: 2
Fore
SplineSet
97.3193359375 58.80078125 m 1,0,-1
 213.57421875 58.80078125 l 1,1,-1
 213.57421875 60.1435546875 l 1,2,3
 99 130.201171875 99 130.201171875 101.686523438 268.127929688 c 0,4,5
 104.516601562 493.8515625 104.516601562 493.8515625 331.510742188 499.295898438 c 1,6,7
 555.958984375 493.919921875 555.958984375 493.919921875 561.334960938 268.127929688 c 0,8,9
 563.518554688 130.201171875 563.518554688 130.201171875 449.111328125 60.1435546875 c 1,10,-1
 449.111328125 58.80078125 l 1,11,-1
 565.366210938 58.80078125 l 1,12,-1
 565.366210938 1.0087890625 l 1,13,-1
 330 0 l 1,14,-1
 97.3193359375 1.0087890625 l 1,15,-1
 97.3193359375 58.80078125 l 1,0,-1
330.838867188 56.2802734375 m 1,16,17
 494.639648438 145.3203125 494.639648438 145.3203125 495.142578125 267.455078125 c 0,18,19
 495.479492188 342.719726562 495.479492188 342.719726562 453.814453125 391.775390625 c 0,20,21
 411.479492188 441.840820312 411.479492188 441.840820312 331.510742188 441.50390625 c 0,22,23
 251.0390625 441.000976562 251.0390625 441.000976562 209.54296875 391.775390625 c 128,-1,24
 167.87890625 342.719726562 167.87890625 342.719726562 167.54296875 267.455078125 c 0,25,26
 166.19921875 159.600585938 166.19921875 159.600585938 330.838867188 56.2802734375 c 1,16,17
EndSplineSet
Validated: 33
EndChar

StartChar: uni02B0
Encoding: 688 688 92
Width: 283
GlyphClass: 2
Flags: W
LayerCount: 2
Fore
SplineSet
230 518 m 1,0,-1
 165 518 l 1,1,-1
 165 523 l 1,2,-1
 168 523 l 2,3,4
 184 523 184 523 186 534 c 0,5,6
 187 536 187 536 187 548 c 2,7,-1
 187 595 l 2,8,9
 187 627 187 627 177 633 c 0,10,11
 172 637 172 637 166 637 c 0,12,13
 150 637 150 637 133 618 c 1,14,-1
 133 548 l 2,15,16
 133 529 133 529 140 525 c 0,17,18
 144 523 144 523 154 523 c 1,19,-1
 154 518 l 1,20,-1
 89 518 l 1,21,-1
 89 523 l 1,22,23
 103 523 103 523 107 531 c 0,24,25
 109 535 109 535 109 548 c 2,26,-1
 109 667 l 2,27,28
 109 699 109 699 104 702 c 0,29,30
 102 704 102 704 98 704 c 0,31,32
 96 704 96 704 89 702 c 1,33,-1
 87 707 l 1,34,-1
 126 723 l 1,35,-1
 133 723 l 1,36,-1
 133 627 l 1,37,38
 158 654 158 654 177 654 c 0,39,40
 200 654 200 654 208 628 c 0,41,42
 211 618 211 618 211 595 c 2,43,-1
 211 548 l 2,44,45
 211 529 211 529 218 525 c 0,46,47
 221 523 221 523 230 523 c 1,48,-1
 230 518 l 1,0,-1
EndSplineSet
Validated: 1
EndChar

StartChar: circumflex
Encoding: 710 710 93
Width: 442
GlyphClass: 2
Flags: W
LayerCount: 2
Fore
SplineSet
150 566 m 128,-1,1
 138 566 138 566 129 575 c 0,2,3
 120 582 120 582 120 595 c 128,-1,4
 120 608 120 608 131 619 c 2,5,-1
 251 727 l 2,6,7
 261 735 261 735 273 735 c 0,8,9
 286 735 286 735 295 726 c 2,10,-1
 412 618 l 2,11,12
 422 608 422 608 422 595 c 0,13,14
 422 585 422 585 414 575 c 0,15,16
 405 566 405 566 393 566 c 0,17,18
 379 566 379 566 371 574 c 2,19,-1
 272 657 l 1,20,-1
 169 572 l 2,21,0
 162 566 162 566 150 566 c 128,-1,1
EndSplineSet
Validated: 1
EndChar

StartChar: caron
Encoding: 711 711 94
Width: 442
GlyphClass: 2
Flags: W
LayerCount: 2
Fore
SplineSet
261 566 m 0,0,1
 248 566 248 566 238 576 c 2,2,-1
 130 683 l 2,3,4
 120 693 120 693 120 706 c 0,5,6
 120 717 120 717 129 726 c 128,-1,7
 138 735 138 735 149 735 c 0,8,9
 163 735 163 735 171 727 c 2,10,-1
 263 644 l 1,11,-1
 374 729 l 2,12,13
 382 735 382 735 393 735 c 128,-1,14
 404 735 404 735 414 727 c 0,15,16
 422 717 422 717 422 706 c 0,17,18
 422 693 422 693 411 682 c 2,19,-1
 282 574 l 2,20,21
 272 566 272 566 261 566 c 0,0,1
EndSplineSet
Validated: 1
EndChar

StartChar: uni02C8
Encoding: 712 712 95
Width: 256
GlyphClass: 2
Flags: W
LayerCount: 2
Fore
SplineSet
149 532 m 1,0,-1
 118 532 l 1,1,-1
 118 632 l 1,2,-1
 149 632 l 1,3,-1
 149 532 l 1,0,-1
EndSplineSet
Validated: 1
EndChar

StartChar: uni02D0
Encoding: 720 720 96
Width: 117
GlyphClass: 2
Flags: W
LayerCount: 2
Fore
SplineSet
91 97 m 0,0,1
 86 93 86 93 79 93 c 0,2,3
 71 93 71 93 66 97 c 0,4,5
 60 100 60 100 60 106 c 2,6,-1
 60 389 l 2,7,8
 60 395 60 395 65 398 c 0,9,10
 70 402 70 402 79 402 c 0,11,12
 86 402 86 402 91 398 c 0,13,14
 97 395 97 395 97 389 c 2,15,-1
 97 106 l 2,16,17
 97 100 97 100 91 97 c 0,0,1
EndSplineSet
Validated: 1
EndChar

StartChar: breve
Encoding: 728 728 97
Width: 461
GlyphClass: 2
Flags: W
LayerCount: 2
Fore
SplineSet
279 576 m 0,0,1
 224 576 224 576 189 598 c 0,2,3
 153 621 153 621 137 648 c 0,4,5
 120 676 120 676 120 693 c 0,6,7
 120 705 120 705 128 715 c 0,8,9
 136 723 136 723 149 723 c 0,10,11
 169 723 169 723 178 699 c 0,12,13
 191 669 191 669 220 656 c 0,14,15
 250 641 250 641 281 641 c 0,16,17
 314 641 314 641 342 656 c 0,18,19
 370 669 370 669 382 700 c 0,20,21
 392 724 392 724 412 724 c 0,22,23
 424 724 424 724 433 715 c 0,24,25
 441 705 441 705 441 694 c 0,26,27
 441 676 441 676 423 648 c 0,28,29
 404 619 404 619 369 598 c 0,30,31
 332 576 332 576 279 576 c 0,0,1
EndSplineSet
Validated: 1
EndChar

StartChar: dotaccent
Encoding: 729 729 98
Width: 252
GlyphClass: 2
Flags: W
LayerCount: 2
Fore
SplineSet
174 596 m 0,0,1
 151 596 151 596 137 609 c 0,2,3
 122 622 122 622 122 642 c 128,-1,4
 122 662 122 662 139 677 c 128,-1,5
 156 692 156 692 180 692 c 0,6,7
 201 692 201 692 217 679 c 0,8,9
 232 666 232 666 232 647 c 0,10,11
 232 626 232 626 216 611 c 128,-1,12
 200 596 200 596 174 596 c 0,0,1
EndSplineSet
Validated: 1
EndChar

StartChar: ring
Encoding: 730 730 99
Width: 381
GlyphClass: 2
Flags: W
LayerCount: 2
Fore
SplineSet
231 545 m 0,0,1
 185 545 185 545 153 574 c 0,2,3
 120 602 120 602 120 645 c 0,4,5
 120 678 120 678 139 703 c 0,6,7
 159 730 159 730 188 744 c 0,8,9
 219 758 219 758 251 758 c 0,10,11
 295 758 295 758 329 729 c 0,12,13
 361 700 361 700 361 658 c 0,14,15
 361 625 361 625 342 600 c 0,16,17
 321 573 321 573 293 560 c 0,18,19
 263 545 263 545 231 545 c 0,0,1
234 600 m 0,20,21
 268 600 268 600 288 617 c 128,-1,22
 308 634 308 634 308 656 c 0,23,24
 308 675 308 675 291 689 c 0,25,26
 275 702 275 702 247 702 c 0,27,28
 213 702 213 702 193 685 c 128,-1,29
 173 668 173 668 173 646 c 0,30,31
 173 627 173 627 190 613 c 0,32,33
 206 600 206 600 234 600 c 0,20,21
EndSplineSet
Validated: 1
EndChar

StartChar: ogonek
Encoding: 731 731 100
Width: 345
GlyphClass: 2
Flags: W
LayerCount: 2
Fore
SplineSet
226 -200 m 0,0,1
 180 -199 180 -199 150 -170 c 0,2,3
 120 -142 120 -142 120 -97 c 0,4,5
 120 -55 120 -55 149 -20 c 0,6,7
 179 17 179 17 217 39 c 0,8,9
 224 43 224 43 234 43 c 0,10,11
 243 43 243 43 250 36 c 0,12,13
 256 28 256 28 256 17 c 0,14,15
 256 7 256 7 230 -13 c 0,16,17
 202 -33 202 -33 187 -51 c 0,18,19
 170 -71 170 -71 170 -98 c 0,20,21
 170 -121 170 -121 186 -134 c 0,22,23
 202 -149 202 -149 226 -149 c 0,24,25
 257 -149 257 -149 284 -128 c 0,26,27
 291 -123 291 -123 300 -123 c 0,28,29
 310 -123 310 -123 317 -130 c 0,30,31
 325 -138 325 -138 325 -148 c 0,32,33
 325 -162 325 -162 308 -174 c 0,34,35
 291 -185 291 -185 266 -193 c 0,36,37
 244 -200 244 -200 226 -200 c 0,0,1
EndSplineSet
Validated: 1
EndChar

StartChar: tilde
Encoding: 732 732 101
Width: 1
GlyphClass: 2
Flags: W
LayerCount: 2
Fore
SplineSet
-131 571 m 128,-1,1
 -160 571 -160 571 -178 586 c 0,2,3
 -198 602 -198 602 -217 629 c 0,4,5
 -235 653 -235 653 -246 664 c 0,6,7
 -259 675 -259 675 -269 675 c 0,8,9
 -282 675 -282 675 -296 658 c 0,10,11
 -311 642 -311 642 -320 610 c 0,12,13
 -327 591 -327 591 -346 591 c 0,14,15
 -357 591 -357 591 -365 599 c 128,-1,16
 -373 607 -373 607 -373 617 c 0,17,18
 -373 626 -373 626 -368 639 c 0,19,20
 -366 644 -366 644 -362.5 651.5 c 128,-1,21
 -359 659 -359 659 -358 661 c 0,22,23
 -343 690 -343 690 -318 706 c 0,24,25
 -292 723 -292 723 -265 723 c 0,26,27
 -236 723 -236 723 -219 709 c 0,28,29
 -202 696 -202 696 -180 667 c 0,30,31
 -164 645 -164 645 -149 630 c 0,32,33
 -138 619 -138 619 -126 619 c 0,34,35
 -110 619 -110 619 -98 639 c 0,36,37
 -86 658 -86 658 -71 696 c 0,38,39
 -67 705 -67 705 -61 709 c 0,40,41
 -53 714 -53 714 -46 714 c 0,42,43
 -34 714 -34 714 -27 707 c 0,44,45
 -19 699 -19 699 -19 689 c 0,46,47
 -19 680 -19 680 -23 668 c 0,48,49
 -25 662 -25 662 -33 643 c 0,50,51
 -52 609 -52 609 -76 591 c 0,52,0
 -102 571 -102 571 -131 571 c 128,-1,1
EndSplineSet
Validated: 1
EndChar

StartChar: hungarumlaut
Encoding: 733 733 102
Width: 478
GlyphClass: 2
Flags: W
LayerCount: 2
Fore
SplineSet
148 557 m 0,0,1
 136 557 136 557 128 565 c 128,-1,2
 120 573 120 573 120 585 c 0,3,4
 120 591 120 591 122 597 c 0,5,6
 124 602 124 602 130 610 c 2,7,-1
 224 724 l 2,8,9
 233 733 233 733 243 741 c 0,10,11
 251 746 251 746 263 746 c 0,12,13
 276 746 276 746 287 737 c 0,14,15
 295 729 295 729 297 713 c 0,16,17
 297 704 297 704 294 696 c 0,18,19
 291 689 291 689 283 681 c 2,20,-1
 177 573 l 2,21,22
 161 557 161 557 148 557 c 0,0,1
298 556 m 128,-1,24
 285 556 285 556 277 564 c 128,-1,25
 269 572 269 572 269 585 c 0,26,27
 269 595 269 595 280 609 c 2,28,-1
 386 717 l 2,29,30
 406 737 406 737 423 737 c 0,31,32
 438 737 438 737 448 727 c 128,-1,33
 458 717 458 717 458 701 c 0,34,35
 458 691 458 691 455 685 c 0,36,37
 452 680 452 680 443 671 c 2,38,-1
 325 569 l 2,39,23
 311 556 311 556 298 556 c 128,-1,24
EndSplineSet
Validated: 1
EndChar

StartChar: gravecomb
Encoding: 768 768 103
Width: 160
GlyphClass: 2
Flags: W
LayerCount: 2
Fore
SplineSet
109 553 m 0,0,1
 97 553 97 553 87 563 c 2,2,-1
 -29 682 l 2,3,4
 -41 694 -41 694 -41 710 c 0,5,6
 -41 724 -41 724 -29 736 c 0,7,8
 -16 747 -16 747 -3 747 c 0,9,10
 13 747 13 747 29 731 c 2,11,-1
 132 603 l 2,12,13
 140 592 140 592 140 583 c 0,14,15
 140 571 140 571 131 562 c 0,16,17
 120 553 120 553 109 553 c 0,0,1
EndSplineSet
Validated: 1
EndChar

StartChar: acutecomb
Encoding: 769 769 104
Width: 160
GlyphClass: 2
Flags: W
LayerCount: 2
Fore
SplineSet
-10 553 m 128,-1,1
 -22 553 -22 553 -31 562 c 0,2,3
 -41 571 -41 571 -41 583 c 0,4,5
 -41 592 -41 592 -33 603 c 2,6,-1
 70 731 l 2,7,8
 86 747 86 747 102 747 c 0,9,10
 115 747 115 747 128 736 c 0,11,12
 140 724 140 724 140 710 c 0,13,14
 140 694 140 694 128 682 c 2,15,-1
 12 563 l 2,16,0
 2 553 2 553 -10 553 c 128,-1,1
EndSplineSet
Validated: 1
EndChar

StartChar: uni0302
Encoding: 770 770 105
Width: 160
GlyphClass: 2
Flags: W
LayerCount: 2
Fore
SplineSet
-132 566 m 128,-1,1
 -144 566 -144 566 -153 575 c 0,2,3
 -162 582 -162 582 -162 595 c 128,-1,4
 -162 608 -162 608 -151 619 c 2,5,-1
 -31 727 l 2,6,7
 -21 735 -21 735 -9 735 c 0,8,9
 4 735 4 735 13 726 c 2,10,-1
 130 618 l 2,11,12
 140 608 140 608 140 595 c 0,13,14
 140 585 140 585 132 575 c 0,15,16
 123 566 123 566 111 566 c 0,17,18
 97 566 97 566 89 574 c 2,19,-1
 -10 657 l 1,20,-1
 -113 572 l 2,21,0
 -120 566 -120 566 -132 566 c 128,-1,1
EndSplineSet
Validated: 1
EndChar

StartChar: tildecomb
Encoding: 771 771 106
Width: 1
GlyphClass: 2
Flags: W
LayerCount: 2
Fore
SplineSet
-131 561 m 128,-1,1
 -160 561 -160 561 -178 576 c 0,2,3
 -198 592 -198 592 -217 619 c 0,4,5
 -235 643 -235 643 -246 654 c 0,6,7
 -259 665 -259 665 -269 665 c 0,8,9
 -282 665 -282 665 -296 648 c 0,10,11
 -311 632 -311 632 -320 600 c 0,12,13
 -327 581 -327 581 -346 581 c 0,14,15
 -357 581 -357 581 -365 589 c 128,-1,16
 -373 597 -373 597 -373 607 c 0,17,18
 -373 616 -373 616 -368 629 c 0,19,20
 -366 634 -366 634 -362.5 641.5 c 128,-1,21
 -359 649 -359 649 -358 651 c 0,22,23
 -343 680 -343 680 -318 696 c 0,24,25
 -292 713 -292 713 -265 713 c 0,26,27
 -236 713 -236 713 -219 699 c 0,28,29
 -202 686 -202 686 -180 657 c 0,30,31
 -164 635 -164 635 -149 620 c 0,32,33
 -138 609 -138 609 -126 609 c 0,34,35
 -110 609 -110 609 -98 629 c 0,36,37
 -86 648 -86 648 -71 686 c 0,38,39
 -67 695 -67 695 -61 699 c 0,40,41
 -53 704 -53 704 -46 704 c 0,42,43
 -34 704 -34 704 -27 697 c 0,44,45
 -19 689 -19 689 -19 679 c 0,46,47
 -19 670 -19 670 -23 658 c 0,48,49
 -25 652 -25 652 -33 633 c 0,50,51
 -52 599 -52 599 -76 581 c 0,52,0
 -102 561 -102 561 -131 561 c 128,-1,1
EndSplineSet
Validated: 1
EndChar

StartChar: uni0304
Encoding: 772 772 107
Width: 160
GlyphClass: 2
Flags: W
LayerCount: 2
Fore
SplineSet
-95 598 m 2,0,1
 -106 598 -106 598 -114 607 c 0,2,3
 -123 614 -123 614 -123 628 c 0,4,5
 -123 640 -123 640 -114 648 c 0,6,7
 -106 656 -106 656 -95 656 c 2,8,-1
 111 656 l 2,9,10
 122 656 122 656 132 648 c 0,11,12
 140 640 140 640 140 628 c 0,13,14
 140 617 140 617 132 607 c 0,15,16
 123 598 123 598 111 598 c 2,17,-1
 -95 598 l 2,0,1
EndSplineSet
Validated: 1
EndChar

StartChar: uni0306
Encoding: 774 774 108
Width: 160
GlyphClass: 2
Flags: W
LayerCount: 2
Fore
SplineSet
-22 576 m 0,0,1
 -77 576 -77 576 -112 598 c 0,2,3
 -148 621 -148 621 -164 648 c 0,4,5
 -181 676 -181 676 -181 693 c 0,6,7
 -181 705 -181 705 -173 715 c 0,8,9
 -165 723 -165 723 -152 723 c 0,10,11
 -132 723 -132 723 -123 699 c 0,12,13
 -110 669 -110 669 -81 656 c 0,14,15
 -51 641 -51 641 -20 641 c 0,16,17
 12 641 12 641 41 656 c 0,18,19
 69 669 69 669 81 700 c 0,20,21
 92 724 92 724 111 724 c 0,22,23
 123 724 123 724 132 715 c 0,24,25
 140 705 140 705 140 694 c 0,26,27
 140 676 140 676 122 648 c 0,28,29
 104 619 104 619 68 598 c 0,30,31
 31 576 31 576 -22 576 c 0,0,1
EndSplineSet
Validated: 1
EndChar

StartChar: uni0307
Encoding: 775 775 109
Width: 160
GlyphClass: 2
Flags: W
LayerCount: 2
Fore
SplineSet
82 596 m 0,0,1
 59 596 59 596 45 609 c 0,2,3
 30 622 30 622 30 642 c 128,-1,4
 30 662 30 662 47 677 c 128,-1,5
 64 692 64 692 88 692 c 0,6,7
 109 692 109 692 125 679 c 0,8,9
 140 666 140 666 140 647 c 0,10,11
 140 626 140 626 124 611 c 128,-1,12
 108 596 108 596 82 596 c 0,0,1
EndSplineSet
Validated: 1
EndChar

StartChar: uni0308
Encoding: 776 776 110
Width: 160
GlyphClass: 2
Flags: W
LayerCount: 2
Fore
SplineSet
-74 589 m 0,0,1
 -97 589 -97 589 -110 602 c 0,2,3
 -125 614 -125 614 -125 634 c 128,-1,4
 -125 654 -125 654 -108 669 c 0,5,6
 -92 684 -92 684 -68 684 c 0,7,8
 -48 684 -48 684 -32 671 c 0,9,10
 -17 658 -17 658 -17 639 c 0,11,12
 -17 617 -17 617 -33 604 c 0,13,14
 -50 589 -50 589 -74 589 c 0,0,1
83 589 m 0,15,16
 61 589 61 589 48 602 c 0,17,18
 33 614 33 614 33 634 c 128,-1,19
 33 654 33 654 50 669 c 0,20,21
 66 684 66 684 89 684 c 0,22,23
 109 684 109 684 125 671 c 0,24,25
 140 658 140 658 140 639 c 0,26,27
 140 617 140 617 124 604 c 0,28,29
 108 589 108 589 83 589 c 0,15,16
EndSplineSet
Validated: 1
EndChar

StartChar: uni030A
Encoding: 778 778 111
Width: 160
GlyphClass: 2
Flags: W
LayerCount: 2
Fore
SplineSet
10 545 m 0,0,1
 -36 545 -36 545 -68 574 c 0,2,3
 -101 602 -101 602 -101 645 c 0,4,5
 -101 678 -101 678 -82 703 c 0,6,7
 -62 730 -62 730 -33 744 c 0,8,9
 -2 758 -2 758 30 758 c 0,10,11
 74 758 74 758 108 729 c 0,12,13
 140 700 140 700 140 658 c 0,14,15
 140 625 140 625 121 600 c 0,16,17
 100 573 100 573 72 560 c 0,18,19
 42 545 42 545 10 545 c 0,0,1
13 600 m 0,20,21
 47 600 47 600 67 617 c 128,-1,22
 87 634 87 634 87 656 c 0,23,24
 87 675 87 675 70 689 c 0,25,26
 54 702 54 702 26 702 c 0,27,28
 -8 702 -8 702 -28 685 c 128,-1,29
 -48 668 -48 668 -48 646 c 0,30,31
 -48 627 -48 627 -31 613 c 0,32,33
 -15 600 -15 600 13 600 c 0,20,21
EndSplineSet
Validated: 1
EndChar

StartChar: uni030B
Encoding: 779 779 112
Width: 140
GlyphClass: 2
Flags: W
LayerCount: 2
Fore
SplineSet
-190 557 m 0,0,1
 -202 557 -202 557 -210 565 c 128,-1,2
 -218 573 -218 573 -218 585 c 0,3,4
 -218 591 -218 591 -216 597 c 0,5,6
 -214 602 -214 602 -208 610 c 2,7,-1
 -114 724 l 2,8,9
 -105 733 -105 733 -95 741 c 0,10,11
 -87 746 -87 746 -75 746 c 0,12,13
 -62 746 -62 746 -51 737 c 0,14,15
 -43 729 -43 729 -41 713 c 0,16,17
 -41 704 -41 704 -44 696 c 0,18,19
 -47 689 -47 689 -55 681 c 2,20,-1
 -161 573 l 2,21,22
 -177 557 -177 557 -190 557 c 0,0,1
-40 556 m 128,-1,24
 -53 556 -53 556 -61 564 c 128,-1,25
 -69 572 -69 572 -69 585 c 0,26,27
 -69 595 -69 595 -58 609 c 2,28,-1
 48 717 l 2,29,30
 68 737 68 737 85 737 c 0,31,32
 100 737 100 737 110 727 c 128,-1,33
 120 717 120 717 120 701 c 0,34,35
 120 691 120 691 117 685 c 0,36,37
 114 680 114 680 105 671 c 2,38,-1
 -13 569 l 2,39,23
 -27 556 -27 556 -40 556 c 128,-1,24
EndSplineSet
Validated: 1
EndChar

StartChar: uni030C
Encoding: 780 780 113
Width: 160
GlyphClass: 2
Flags: W
LayerCount: 2
Fore
SplineSet
-21 566 m 0,0,1
 -34 566 -34 566 -44 576 c 2,2,-1
 -152 683 l 2,3,4
 -162 693 -162 693 -162 706 c 0,5,6
 -162 717 -162 717 -153 726 c 128,-1,7
 -144 735 -144 735 -133 735 c 0,8,9
 -119 735 -119 735 -111 727 c 2,10,-1
 -19 644 l 1,11,-1
 92 729 l 2,12,13
 100 735 100 735 111 735 c 128,-1,14
 122 735 122 735 132 727 c 0,15,16
 140 717 140 717 140 706 c 0,17,18
 140 693 140 693 129 682 c 2,19,-1
 0 574 l 2,20,21
 -10 566 -10 566 -21 566 c 0,0,1
EndSplineSet
Validated: 1
EndChar

StartChar: uni0324
Encoding: 804 804 114
Width: 0
GlyphClass: 2
Flags: W
LayerCount: 2
Fore
SplineSet
-20 -64 m 0,0,1
 -20 -87 -20 -87 -36 -102.5 c 128,-1,2
 -52 -118 -52 -118 -74.5 -118 c 128,-1,3
 -97 -118 -97 -118 -113 -102.5 c 128,-1,4
 -129 -87 -129 -87 -129 -64.5 c 128,-1,5
 -129 -42 -129 -42 -113 -26 c 128,-1,6
 -97 -10 -97 -10 -74 -10 c 0,7,8
 -52 -10 -52 -10 -36.5 -26 c 128,-1,9
 -21 -42 -21 -42 -20 -64 c 0,0,1
-196 -64 m 0,10,11
 -196 -87 -196 -87 -212.5 -103 c 128,-1,12
 -229 -119 -229 -119 -250 -118 c 0,13,14
 -273 -118 -273 -118 -289 -102.5 c 128,-1,15
 -305 -87 -305 -87 -305 -64.5 c 128,-1,16
 -305 -42 -305 -42 -289.5 -26 c 128,-1,17
 -274 -10 -274 -10 -251 -10 c 256,18,19
 -228 -10 -228 -10 -212 -26 c 128,-1,20
 -196 -42 -196 -42 -196 -64 c 0,10,11
EndSplineSet
Validated: 33
EndChar

StartChar: uni0325
Encoding: 805 805 115
Width: 0
GlyphClass: 2
Flags: W
LayerCount: 2
Fore
SplineSet
-8 -98 m 256,0,1
 -8 -139 -8 -139 -36.5 -167.5 c 128,-1,2
 -65 -196 -65 -196 -106 -196 c 256,3,4
 -147 -196 -147 -196 -175.5 -167.5 c 128,-1,5
 -204 -139 -204 -139 -204 -98 c 128,-1,6
 -204 -57 -204 -57 -175.5 -28.5 c 128,-1,7
 -147 0 -147 0 -106 0 c 128,-1,8
 -65 0 -65 0 -36.5 -28.5 c 128,-1,9
 -8 -57 -8 -57 -8 -98 c 256,0,1
-44 -98 m 0,10,11
 -44 -71 -44 -71 -61.5 -53 c 128,-1,12
 -79 -35 -79 -35 -106 -35 c 0,13,14
 -132 -35 -132 -35 -150 -53.5 c 128,-1,15
 -168 -72 -168 -72 -168 -98 c 0,16,17
 -168 -123 -168 -123 -150 -141.5 c 128,-1,18
 -132 -160 -132 -160 -106 -160 c 256,19,20
 -80 -160 -80 -160 -62 -142 c 128,-1,21
 -44 -124 -44 -124 -44 -98 c 0,10,11
EndSplineSet
Validated: 1
EndChar

StartChar: uni0326
Encoding: 806 806 116
Width: 160
GlyphClass: 2
Flags: W
LayerCount: 2
Fore
SplineSet
75 -203 m 128,-1,1
 64 -203 64 -203 56 -195 c 128,-1,2
 48 -187 48 -187 48 -178 c 0,3,4
 48 -176 48 -176 50 -168 c 2,5,-1
 73 -107 l 1,6,7
 62 -91 62 -91 62 -76 c 0,8,9
 62 -56 62 -56 75 -42 c 0,10,11
 89 -28 89 -28 105 -28 c 0,12,13
 119 -28 119 -28 130 -39 c 0,14,15
 140 -49 140 -49 140 -64 c 128,-1,16
 140 -79 140 -79 136 -91 c 0,17,18
 132 -104 132 -104 119 -135 c 2,19,-1
 109 -160 l 2,20,21
 98 -186 98 -186 92 -194 c 0,22,0
 86 -203 86 -203 75 -203 c 128,-1,1
EndSplineSet
Validated: 1
EndChar

StartChar: uni0327
Encoding: 807 807 117
Width: 160
GlyphClass: 2
Flags: W
LayerCount: 2
Fore
SplineSet
59 -30 m 0,0,1
 90 -30 90 -30 115 -55 c 128,-1,2
 140 -80 140 -80 140 -115 c 0,3,4
 140 -154 140 -154 113 -180 c 0,5,6
 86 -207 86 -207 46 -207 c 0,7,8
 17 -207 17 -207 -7 -192 c 0,9,10
 -32 -177 -32 -177 -32 -155 c 0,11,12
 -32 -145 -32 -145 -25 -138 c 0,13,14
 -19 -132 -19 -132 -10 -132 c 0,15,16
 1 -132 1 -132 12 -143 c 0,17,18
 19 -152 19 -152 28 -158 c 0,19,20
 36 -164 36 -164 49 -164 c 0,21,22
 68 -164 68 -164 82 -150 c 0,23,24
 95 -137 95 -137 95 -115 c 0,25,26
 95 -96 95 -96 81 -82 c 128,-1,27
 67 -68 67 -68 48 -68 c 0,28,29
 34 -68 34 -68 21 -75 c 0,30,31
 7 -83 7 -83 2 -83 c 0,32,33
 -6 -83 -6 -83 -10 -77 c 0,34,35
 -16 -72 -16 -72 -16 -64 c 128,-1,36
 -16 -56 -16 -56 -9 -35 c 2,37,-1
 0 -8 l 1,38,-1
 8 16 l 2,39,40
 13 28 13 28 17 32 c 128,-1,41
 21 36 21 36 27 36 c 0,42,43
 42 36 42 36 41 17 c 2,44,-1
 37 -33 l 1,45,46
 46 -30 46 -30 59 -30 c 0,0,1
EndSplineSet
Validated: 1
EndChar

StartChar: uni0328
Encoding: 808 808 118
Width: 160
GlyphClass: 2
Flags: W
LayerCount: 2
Fore
SplineSet
41 -200 m 0,0,1
 -5 -199 -5 -199 -35 -170 c 0,2,3
 -65 -142 -65 -142 -65 -97 c 0,4,5
 -65 -55 -65 -55 -36 -20 c 0,6,7
 -6 17 -6 17 32 39 c 0,8,9
 39 43 39 43 49 43 c 0,10,11
 58 43 58 43 65 36 c 0,12,13
 71 28 71 28 71 17 c 0,14,15
 71 7 71 7 45 -13 c 0,16,17
 17 -33 17 -33 2 -51 c 0,18,19
 -15 -71 -15 -71 -15 -98 c 0,20,21
 -15 -121 -15 -121 1 -134 c 0,22,23
 18 -149 18 -149 41 -149 c 0,24,25
 72 -149 72 -149 99 -128 c 0,26,27
 106 -123 106 -123 115 -123 c 0,28,29
 125 -123 125 -123 132 -130 c 0,30,31
 140 -138 140 -138 140 -148 c 0,32,33
 140 -162 140 -162 123 -174 c 0,34,35
 106 -185 106 -185 81 -193 c 0,36,37
 59 -200 59 -200 41 -200 c 0,0,1
EndSplineSet
Validated: 1
EndChar

StartChar: uni0329
Encoding: 809 809 119
Width: 0
GlyphClass: 2
Flags: W
LayerCount: 2
Fore
SplineSet
14 -199 m 1,0,-1
 -17 -199 l 1,1,-1
 -17 -99 l 1,2,-1
 14 -99 l 1,3,-1
 14 -199 l 1,0,-1
EndSplineSet
Validated: 1
EndChar

StartChar: theta
Encoding: 952 952 120
Width: 600
GlyphClass: 2
Flags: W
LayerCount: 2
Fore
SplineSet
239 -6 m 0,0,1
 225 -6 225 -6 217 2 c 0,2,3
 208 8 208 8 208 18 c 0,4,5
 208 23 208 23 212 28 c 2,6,-1
 366 259 l 1,7,-1
 269 260 l 2,8,9
 257 260 257 260 248 269 c 0,10,11
 238 278 238 278 238 290 c 128,-1,12
 238 302 238 302 248 311 c 0,13,14
 257 320 257 320 269 320 c 2,15,-1
 406 319 l 1,16,-1
 493 450 l 1,17,-1
 189 450 l 2,18,19
 176 450 176 450 167 456 c 0,20,21
 158 464 158 464 158 473 c 128,-1,22
 158 482 158 482 167 490 c 0,23,24
 176 496 176 496 189 496 c 2,25,-1
 544 496 l 2,26,27
 557 496 557 496 566 490 c 0,28,29
 575 482 575 482 575 472 c 0,30,31
 575 467 575 467 571 460 c 2,32,-1
 476 319 l 1,33,-1
 554 318 l 2,34,35
 567 318 567 318 576 310 c 0,36,37
 584 300 584 300 584 288 c 0,38,39
 584 277 584 277 576 267 c 0,40,41
 567 258 567 258 554 258 c 2,42,-1
 436 259 l 1,43,-1
 267 7 l 2,44,45
 264 1 264 1 256 -2 c 0,46,47
 244 -6 244 -6 239 -6 c 0,0,1
EndSplineSet
Validated: 1
EndChar

StartChar: endash
Encoding: 8211 8211 122
Width: 665
GlyphClass: 2
Flags: W
LayerCount: 2
Fore
SplineSet
224 212 m 2,0,1
 211 212 211 212 202 221 c 128,-1,2
 193 230 193 230 193 243 c 0,3,4
 193 257 193 257 202 266 c 0,5,6
 212 274 212 274 224 274 c 2,7,-1
 614 274 l 2,8,9
 627 274 627 274 637 266 c 0,10,11
 645 256 645 256 645 243 c 128,-1,12
 645 230 645 230 636 221 c 128,-1,13
 627 212 627 212 614 212 c 2,14,-1
 224 212 l 2,0,1
EndSplineSet
Validated: 1
EndChar

StartChar: emdash
Encoding: 8212 8212 123
Width: 914
GlyphClass: 2
Flags: W
LayerCount: 2
Fore
SplineSet
201 212 m 2,0,1
 188 212 188 212 179 221 c 128,-1,2
 170 230 170 230 170 243 c 128,-1,3
 170 256 170 256 179 265 c 128,-1,4
 188 274 188 274 201 274 c 2,5,-1
 863 274 l 2,6,7
 876 274 876 274 885 265 c 128,-1,8
 894 256 894 256 894 243 c 0,9,10
 894 231 894 231 886 221 c 0,11,12
 877 212 877 212 863 212 c 2,13,-1
 201 212 l 2,0,1
EndSplineSet
Validated: 1
EndChar

StartChar: quoteleft
Encoding: 8216 8216 124
Width: 292
GlyphClass: 2
Flags: W
LayerCount: 2
Fore
SplineSet
215 540 m 0,0,1
 201 540 201 540 190 551 c 128,-1,2
 179 562 179 562 179 575 c 0,3,4
 179 587 179 587 184 602 c 0,5,6
 192 626 192 626 201 647 c 2,7,-1
 209 667 l 2,8,9
 221 697 221 697 227 706 c 128,-1,10
 233 715 233 715 245 715 c 128,-1,11
 257 715 257 715 264 708 c 0,12,13
 272 700 272 700 272 690 c 0,14,15
 272 684 272 684 269 680 c 2,16,-1
 246 618 l 1,17,18
 258 606 258 606 258 588 c 0,19,20
 258 568 258 568 245 555 c 0,21,22
 232 540 232 540 215 540 c 0,0,1
EndSplineSet
Validated: 1
EndChar

StartChar: quoteright
Encoding: 8217 8217 125
Width: 266
GlyphClass: 2
Flags: W
LayerCount: 2
Fore
SplineSet
180 540 m 0,0,1
 169 540 169 540 161 548 c 128,-1,2
 153 556 153 556 153 566 c 0,3,4
 153 570 153 570 156 576 c 2,5,-1
 179 637 l 1,6,7
 167 649 167 649 167 667 c 0,8,9
 167 687 167 687 180 701 c 0,10,11
 194 715 194 715 210 715 c 0,12,13
 225 715 225 715 236 704 c 0,14,15
 246 694 246 694 246 680 c 128,-1,16
 246 666 246 666 242 654 c 0,17,18
 238 643 238 643 224 608 c 2,19,-1
 215 586 l 2,20,21
 206 560 206 560 198 549 c 0,22,23
 192 540 192 540 180 540 c 0,0,1
EndSplineSet
Validated: 1
EndChar

StartChar: quotesinglbase
Encoding: 8218 8218 126
Width: 320
GlyphClass: 2
Flags: W
LayerCount: 2
Fore
SplineSet
235 -101 m 128,-1,1
 224 -101 224 -101 216 -93 c 128,-1,2
 208 -85 208 -85 208 -75 c 0,3,4
 208 -73 208 -73 210 -65 c 2,5,-1
 233 -4 l 1,6,7
 222 12 222 12 222 26 c 0,8,9
 222 46 222 46 235 60 c 0,10,11
 249 74 249 74 265 74 c 0,12,13
 279 74 279 74 290 63 c 0,14,15
 300 53 300 53 300 39 c 0,16,17
 300 24 300 24 296 12 c 0,18,19
 292 -1 292 -1 279 -32 c 2,20,-1
 268 -58 l 2,21,22
 256 -87 256 -87 252 -92 c 0,23,0
 246 -101 246 -101 235 -101 c 128,-1,1
EndSplineSet
Validated: 1
EndChar

StartChar: quotedblleft
Encoding: 8220 8220 127
Width: 415
GlyphClass: 2
Flags: W
LayerCount: 2
Fore
SplineSet
198 534 m 0,0,1
 184 534 184 534 173 545 c 128,-1,2
 162 556 162 556 162 569 c 0,3,4
 162 581 162 581 167 596 c 0,5,6
 175 620 175 620 184 641 c 2,7,-1
 192 661 l 2,8,9
 204 691 204 691 210 700 c 128,-1,10
 216 709 216 709 228 709 c 128,-1,11
 240 709 240 709 247 702 c 0,12,13
 255 694 255 694 255 684 c 0,14,15
 255 678 255 678 252 674 c 2,16,-1
 229 612 l 1,17,18
 241 600 241 600 241 582 c 0,19,20
 241 562 241 562 228 549 c 0,21,22
 214 534 214 534 198 534 c 0,0,1
338 540 m 0,23,24
 324 540 324 540 313 551 c 128,-1,25
 302 562 302 562 302 575 c 0,26,27
 302 587 302 587 307 602 c 0,28,29
 315 626 315 626 324 647 c 2,30,-1
 332 667 l 2,31,32
 344 697 344 697 350 706 c 128,-1,33
 356 715 356 715 368 715 c 128,-1,34
 380 715 380 715 387 708 c 0,35,36
 395 700 395 700 395 690 c 0,37,38
 395 684 395 684 392 680 c 2,39,-1
 369 618 l 1,40,41
 381 606 381 606 381 588 c 0,42,43
 381 568 381 568 368 555 c 0,44,45
 354 540 354 540 338 540 c 0,23,24
EndSplineSet
Validated: 1
EndChar

StartChar: quotedblright
Encoding: 8221 8221 128
Width: 407
GlyphClass: 2
Flags: W
LayerCount: 2
Fore
SplineSet
180 534 m 0,0,1
 169 534 169 534 161 542 c 128,-1,2
 153 550 153 550 153 560 c 0,3,4
 153 564 153 564 156 570 c 2,5,-1
 179 631 l 1,6,7
 167 643 167 643 167 661 c 0,8,9
 167 681 167 681 180 695 c 0,10,11
 194 709 194 709 210 709 c 0,12,13
 225 709 225 709 236 698 c 0,14,15
 246 688 246 688 246 674 c 128,-1,16
 246 660 246 660 242 648 c 0,17,18
 238 637 238 637 224 602 c 2,19,-1
 215 580 l 2,20,21
 206 554 206 554 198 543 c 0,22,23
 192 534 192 534 180 534 c 0,0,1
321 540 m 0,24,25
 310 540 310 540 302 548 c 128,-1,26
 294 556 294 556 294 566 c 0,27,28
 294 570 294 570 297 576 c 2,29,-1
 320 637 l 1,30,31
 308 649 308 649 308 667 c 0,32,33
 308 687 308 687 321 701 c 0,34,35
 335 715 335 715 351 715 c 0,36,37
 366 715 366 715 377 704 c 0,38,39
 387 694 387 694 387 680 c 128,-1,40
 387 666 387 666 383 654 c 0,41,42
 379 643 379 643 365 608 c 2,43,-1
 356 586 l 2,44,45
 347 560 347 560 339 549 c 0,46,47
 333 540 333 540 321 540 c 0,24,25
EndSplineSet
Validated: 1
EndChar

StartChar: quotedblbase
Encoding: 8222 8222 129
Width: 445
GlyphClass: 2
Flags: W
LayerCount: 2
Fore
SplineSet
218 -101 m 0,0,1
 207 -101 207 -101 199 -93 c 128,-1,2
 191 -85 191 -85 191 -75 c 0,3,4
 191 -70 191 -70 194 -65 c 2,5,-1
 217 -4 l 1,6,7
 205 10 205 10 205 26 c 0,8,9
 205 46 205 46 218 60 c 0,10,11
 232 74 232 74 248 74 c 0,12,13
 263 74 263 74 274 63 c 0,14,15
 284 53 284 53 284 39 c 128,-1,16
 284 25 284 25 280 13 c 0,17,18
 276 0 276 0 262 -32 c 2,19,-1
 253 -54 l 2,20,21
 243 -82 243 -82 236 -92 c 0,22,23
 230 -101 230 -101 218 -101 c 0,0,1
359 -101 m 0,24,25
 348 -101 348 -101 340 -93 c 128,-1,26
 332 -85 332 -85 332 -75 c 0,27,28
 332 -73 332 -73 334 -65 c 2,29,-1
 357 -4 l 1,30,31
 346 12 346 12 346 26 c 0,32,33
 346 46 346 46 359 60 c 0,34,35
 373 74 373 74 389 74 c 0,36,37
 404 74 404 74 415 63 c 0,38,39
 425 53 425 53 425 39 c 128,-1,40
 425 25 425 25 421 13 c 0,41,42
 416 0 416 0 403 -32 c 2,43,-1
 394 -54 l 2,44,45
 384 -82 384 -82 377 -92 c 0,46,47
 371 -101 371 -101 359 -101 c 0,24,25
EndSplineSet
Validated: 1
EndChar

StartChar: bullet
Encoding: 8226 8226 130
Width: 387
GlyphClass: 2
Flags: W
LayerCount: 2
Fore
SplineSet
276 156 m 0,0,1
 239 156 239 156 212 183 c 128,-1,2
 185 210 185 210 185 247 c 0,3,4
 185 285 185 285 212 312 c 0,5,6
 240 338 240 338 276 338 c 0,7,8
 313 338 313 338 341 312 c 0,9,10
 367 284 367 284 367 247 c 0,11,12
 367 211 367 211 341 183 c 0,13,14
 314 156 314 156 276 156 c 0,0,1
EndSplineSet
Validated: 1
EndChar

StartChar: ellipsis
Encoding: 8230 8230 131
Width: 764
GlyphClass: 2
Flags: W
LayerCount: 2
Fore
SplineSet
196 -6 m 128,-1,1
 180 -6 180 -6 171 6 c 0,2,3
 161 16 161 16 161 35 c 0,4,5
 161 55 161 55 174 69 c 0,6,7
 188 83 188 83 204 83 c 0,8,9
 218 83 218 83 229 72 c 0,10,11
 239 62 239 62 239 44 c 0,12,13
 239 22 239 22 226 9 c 0,14,0
 212 -6 212 -6 196 -6 c 128,-1,1
447 -6 m 0,15,16
 431 -6 431 -6 422 6 c 0,17,18
 412 16 412 16 412 35 c 0,19,20
 412 55 412 55 425 69 c 0,21,22
 439 83 439 83 455 83 c 0,23,24
 470 83 470 83 481 72 c 0,25,26
 491 61 491 61 491 44 c 0,27,28
 491 22 491 22 478 9 c 0,29,30
 464 -6 464 -6 447 -6 c 0,15,16
700 -6 m 0,31,32
 684 -6 684 -6 675 6 c 0,33,34
 665 16 665 16 665 35 c 0,35,36
 665 55 665 55 678 69 c 0,37,38
 692 83 692 83 708 83 c 0,39,40
 723 83 723 83 734 72 c 0,41,42
 744 61 744 61 744 44 c 0,43,44
 744 22 744 22 731 9 c 0,45,46
 718 -6 718 -6 700 -6 c 0,31,32
EndSplineSet
Validated: 1
EndChar

StartChar: guilsinglleft
Encoding: 8249 8249 132
Width: 437
GlyphClass: 2
Flags: W
LayerCount: 2
Fore
SplineSet
370 69 m 0,0,1
 359 69 359 69 349 77 c 2,2,-1
 189 220 l 2,3,4
 178 229 178 229 178 244 c 128,-1,5
 178 259 178 259 189 268 c 2,6,-1
 366 420 l 2,7,8
 377 428 377 428 386 428 c 0,9,10
 398 428 398 428 408 419 c 0,11,12
 417 410 417 410 417 397 c 0,13,14
 417 382 417 382 406 373 c 2,15,-1
 257 243 l 1,16,-1
 392 123 l 2,17,18
 402 113 402 113 402 99 c 0,19,20
 402 86 402 86 393 78 c 0,21,22
 382 69 382 69 370 69 c 0,0,1
EndSplineSet
Validated: 1
EndChar

StartChar: guilsinglright
Encoding: 8250 8250 133
Width: 427
GlyphClass: 2
Flags: W
LayerCount: 2
Fore
SplineSet
215 69 m 128,-1,1
 203 69 203 69 194 78 c 0,2,3
 184 87 184 87 184 99 c 0,4,5
 184 114 184 114 194 123 c 2,6,-1
 329 243 l 1,7,-1
 179 373 l 2,8,9
 168 384 168 384 168 397 c 128,-1,10
 168 410 168 410 178 419 c 128,-1,11
 188 428 188 428 200 428 c 0,12,13
 209 428 209 428 220 420 c 2,14,-1
 397 268 l 2,15,16
 407 259 407 259 407 244 c 128,-1,17
 407 229 407 229 397 220 c 2,18,-1
 237 77 l 2,19,0
 227 69 227 69 215 69 c 128,-1,1
EndSplineSet
Validated: 1
EndChar

StartChar: fraction
Encoding: 8260 8260 134
Width: 423
GlyphClass: 2
Flags: W
LayerCount: 2
Fore
SplineSet
22 -8 m 0,0,1
 12 -8 12 -8 4 0 c 128,-1,2
 -4 8 -4 8 -4 17 c 0,3,4
 -4 24 -4 24 1 34 c 2,5,-1
 355 671 l 2,6,7
 358 678 358 678 365 682 c 0,8,9
 370 686 370 686 377 686 c 0,10,11
 389 686 389 686 396 679 c 128,-1,12
 403 672 403 672 403 662 c 0,13,14
 403 653 403 653 396 640 c 2,15,-1
 44 5 l 2,16,17
 37 -8 37 -8 22 -8 c 0,0,1
EndSplineSet
Validated: 1
EndChar

StartChar: uni2074
Encoding: 8308 8308 136
Width: 405
GlyphClass: 2
Flags: W
LayerCount: 2
Fore
SplineSet
319 429 m 128,-1,1
 308 429 308 429 300 438 c 0,2,3
 292 446 292 446 292 457 c 2,4,-1
 292 520 l 1,5,-1
 150 522 l 2,6,7
 137 522 137 522 130 529 c 0,8,9
 122 537 122 537 122 545 c 0,10,11
 122 558 122 558 129 565 c 2,12,-1
 295 806 l 2,13,14
 302 819 302 819 318 819 c 0,15,16
 330 819 330 819 337 812 c 0,17,18
 345 804 345 804 345 792 c 2,19,-1
 345 570 l 1,20,-1
 358 570 l 2,21,22
 371 570 371 570 378 563 c 128,-1,23
 385 556 385 556 385 545 c 0,24,25
 385 536 385 536 377 528 c 0,26,27
 367 520 367 520 357 520 c 2,28,-1
 345 520 l 1,29,-1
 345 457 l 2,30,31
 345 446 345 446 337 438 c 0,32,0
 330 429 330 429 319 429 c 128,-1,1
292 570 m 1,33,-1
 292 715 l 1,34,-1
 191 572 l 1,35,-1
 292 570 l 1,33,-1
EndSplineSet
Validated: 1
EndChar

StartChar: Euro
Encoding: 8364 8364 138
Width: 739
GlyphClass: 2
Flags: W
LayerCount: 2
Fore
SplineSet
538 -6 m 0,0,1
 467 -6 467 -6 405 31 c 0,2,3
 342 66 342 66 302 126 c 0,4,5
 262 184 262 184 259 249 c 1,6,-1
 212 249 l 2,7,8
 199 249 199 249 190 258 c 128,-1,9
 181 267 181 267 181 280 c 0,10,11
 181 292 181 292 190 303 c 0,12,13
 199 312 199 312 212 312 c 2,14,-1
 257 312 l 1,15,16
 259 342 259 342 265 376 c 1,17,-1
 212 376 l 2,18,19
 199 376 199 376 190 386 c 0,20,21
 181 395 181 395 181 408 c 128,-1,22
 181 421 181 421 190 430 c 128,-1,23
 199 439 199 439 212 439 c 2,24,-1
 283 439 l 1,25,26
 297 487 297 487 333 541 c 0,27,28
 369 596 369 596 426 640 c 0,29,30
 482 682 482 682 550 682 c 0,31,32
 597 682 597 682 635 669 c 128,-1,33
 673 656 673 656 709 626 c 0,34,35
 719 617 719 617 719 602 c 0,36,37
 719 592 719 592 711 582 c 0,38,39
 702 573 702 573 690 573 c 0,40,41
 680 573 680 573 666 584 c 0,42,43
 620 621 620 621 546 621 c 0,44,45
 504 621 504 621 464 593 c 0,46,47
 426 567 426 567 393 522 c 0,48,49
 362 479 362 479 347 439 c 1,50,-1
 531 439 l 2,51,52
 544 439 544 439 555 430 c 0,53,54
 564 421 564 421 564 408 c 128,-1,55
 564 395 564 395 555 386 c 0,56,57
 545 376 545 376 531 376 c 2,58,-1
 326 376 l 1,59,60
 321 353 321 353 316 312 c 1,61,-1
 531 311 l 2,62,63
 544 311 544 311 555 302 c 0,64,65
 564 293 564 293 564 280 c 128,-1,66
 564 267 564 267 555 258 c 0,67,68
 545 248 545 248 531 248 c 2,69,-1
 319 248 l 1,70,71
 327 186 327 186 363 144 c 0,72,73
 399 100 399 100 447 78 c 0,74,75
 495 55 495 55 534 55 c 0,76,77
 597 55 597 55 645 79 c 0,78,79
 657 83 657 83 662 83 c 0,80,81
 674 83 674 83 684 75 c 0,82,83
 692 65 692 65 692 53 c 0,84,85
 692 44 692 44 687 36 c 128,-1,86
 682 28 682 28 674 25 c 0,87,88
 611 -6 611 -6 538 -6 c 0,0,1
EndSplineSet
Validated: 1
EndChar

StartChar: trademark
Encoding: 8482 8482 140
Width: 589
GlyphClass: 2
Flags: W
LayerCount: 2
Fore
SplineSet
236 465 m 0,0,1
 229 458 229 458 221 458 c 0,2,3
 212 458 212 458 206 465 c 0,4,5
 199 471 199 471 199 480 c 2,6,-1
 199 640 l 1,7,-1
 152 640 l 2,8,9
 144 640 144 640 138 646 c 0,10,11
 131 652 131 652 131 660 c 0,12,13
 131 670 131 670 138 676 c 0,14,15
 144 682 144 682 152 682 c 2,16,-1
 294 682 l 2,17,18
 302 682 302 682 308 676 c 128,-1,19
 314 670 314 670 314 660 c 0,20,21
 314 652 314 652 308 646 c 128,-1,22
 302 640 302 640 294 640 c 2,23,-1
 242 640 l 1,24,-1
 242 480 l 2,25,26
 242 472 242 472 236 465 c 0,0,1
325 458 m 0,27,28
 316 458 316 458 312 464 c 0,29,30
 306 470 306 470 306 479 c 0,31,32
 306 487 306 487 309 499 c 2,33,-1
 350 666 l 2,34,35
 351 673 351 673 358 678 c 0,36,37
 362 682 362 682 370 682 c 0,38,39
 385 682 385 682 391 666 c 2,40,-1
 435 534 l 1,41,-1
 485 669 l 2,42,43
 486 674 486 674 493 679 c 0,44,45
 498 682 498 682 504 682 c 0,46,47
 512 682 512 682 516 678 c 0,48,49
 522 672 522 672 523 668 c 2,50,-1
 566 498 l 1,51,-1
 569 480 l 2,52,53
 569 472 569 472 564 465 c 0,54,55
 560 458 560 458 550 458 c 0,56,57
 534 458 534 458 529 475 c 2,58,-1
 499 595 l 1,59,-1
 453 472 l 2,60,61
 448 458 448 458 434 458 c 0,62,63
 429 458 429 458 422 463 c 128,-1,64
 415 468 415 468 414 474 c 2,65,-1
 374 593 l 1,66,-1
 345 475 l 2,67,68
 344 469 344 469 338 463 c 0,69,70
 331 458 331 458 325 458 c 0,27,28
EndSplineSet
Validated: 1
EndChar

StartChar: minus
Encoding: 8722 8722 142
Width: 532
GlyphClass: 2
Flags: W
LayerCount: 2
Fore
SplineSet
205 215 m 2,0,1
 192 215 192 215 183 224 c 0,2,3
 174 232 174 232 174 245 c 128,-1,4
 174 258 174 258 183 267 c 0,5,6
 193 275 193 275 205 275 c 2,7,-1
 481 275 l 2,8,9
 493 275 493 275 503 267 c 0,10,11
 512 258 512 258 512 245 c 128,-1,12
 512 232 512 232 503 224 c 0,13,14
 494 215 494 215 481 215 c 2,15,-1
 205 215 l 2,0,1
EndSplineSet
Validated: 1
EndChar

StartChar: uni2215
Encoding: 8725 8725 143
Width: 484
GlyphClass: 2
Flags: W
LayerCount: 2
Fore
SplineSet
196 -191 m 0,0,1
 185 -191 185 -191 178 -184 c 0,2,3
 170 -178 170 -178 170 -168 c 0,4,5
 170 -163 170 -163 174 -152 c 2,6,-1
 417 732 l 2,7,8
 419 738 419 738 425 742 c 0,9,10
 432 746 432 746 439 746 c 0,11,12
 450 746 450 746 457 739 c 128,-1,13
 464 732 464 732 464 723 c 0,14,15
 464 722 464 722 462 712 c 0,16,17
 461 710 461 710 459.5 706 c 128,-1,18
 458 702 458 702 458 701 c 2,19,-1
 216 -180 l 2,20,21
 214 -185 214 -185 209 -188 c 0,22,23
 202 -191 202 -191 196 -191 c 0,0,1
EndSplineSet
Validated: 1
EndChar

StartChar: t_h
Encoding: 65538 -1 144
Width: 653
GlyphClass: 3
Flags: W
LayerCount: 2
Fore
SplineSet
381 -6 m 0,0,1
 367 -6 367 -6 359 1 c 0,2,3
 350 8 350 8 350 18 c 2,4,-1
 350 276 l 1,5,-1
 255 276 l 2,6,7
 243 276 243 276 234 285 c 0,8,9
 224 294 224 294 224 306 c 0,10,11
 227 321 227 321 234 327 c 0,12,13
 243 336 243 336 255 336 c 2,14,-1
 350 336 l 1,15,-1
 350 448 l 1,16,-1
 161 448 l 2,17,18
 147 448 147 448 139 455 c 0,19,20
 129 461 129 461 129 471 c 128,-1,21
 129 481 129 481 139 488 c 0,22,23
 147 495 147 495 161 495 c 2,24,-1
 602 495 l 2,25,26
 616 495 616 495 624 488 c 0,27,28
 633 482 633 482 633 471 c 0,29,30
 633 461 633 461 624 455 c 0,31,32
 616 448 616 448 602 448 c 2,33,-1
 413 448 l 1,34,-1
 413 336 l 1,35,-1
 498 336 l 2,36,37
 510 336 510 336 520 328 c 0,38,39
 528 318 528 318 528 306 c 0,40,41
 528 295 528 295 520 285 c 0,42,43
 511 276 511 276 498 276 c 2,44,-1
 413 276 l 1,45,-1
 413 18 l 2,46,47
 413 8 413 8 404 1 c 0,48,49
 394 -6 394 -6 381 -6 c 0,0,1
EndSplineSet
Validated: 1
Ligature2: "'liga' Standard Ligatures in Latin lookup 1 subtable" uni0288 uni0324
Ligature2: "'liga' Standard Ligatures in Latin lookup 0 subtable" uni0288 uni02B0
EndChar

StartChar: k_h
Encoding: 65539 -1 145
Width: 599
GlyphClass: 3
Flags: W
LayerCount: 2
Fore
SplineSet
100 247 m 0,0,1
 100 271 100 271 121 281 c 2,2,-1
 364 403 l 1,3,-1
 414 522 l 2,4,5
 420 536 420 536 440 536 c 0,6,7
 450 536 450 536 460 528 c 0,8,9
 468 518 468 518 468 510 c 0,10,11
 468 501 468 501 464 494 c 2,12,-1
 462 490 l 1,13,-1
 460 486 l 1,14,-1
 459 485 l 1,15,-1
 441 442 l 1,16,-1
 538 491 l 2,17,18
 543 493 543 493 549 493 c 0,19,20
 561 493 561 493 570 483 c 0,21,22
 578 472 578 472 578 455 c 0,23,24
 578 431 578 431 558 420 c 2,25,-1
 399 342 l 1,26,-1
 332 184 l 1,27,-1
 561 72 l 2,28,29
 568 68 568 68 574 59 c 0,30,31
 579 52 579 52 579 38 c 0,32,33
 579 22 579 22 570 12 c 0,34,35
 561 0 561 0 550 0 c 0,36,37
 544 0 544 0 536 5 c 2,38,-1
 304 120 l 1,39,-1
 246 -18 l 2,40,41
 243 -26 243 -26 238 -28 c 0,42,43
 231 -32 231 -32 222 -32 c 0,44,45
 210 -32 210 -32 202 -24 c 128,-1,46
 194 -16 194 -16 194 -5 c 0,47,48
 194 4 194 4 197 11 c 2,49,-1
 254 145 l 1,50,-1
 119 212 l 2,51,52
 100 224 100 224 100 247 c 0,0,1
322 305 m 1,53,-1
 203 247 l 1,54,-1
 281 209 l 1,55,-1
 322 305 l 1,53,-1
EndSplineSet
Validated: 1
Ligature2: "'liga' Standard Ligatures in Latin lookup 1 subtable" k uni02B0
Ligature2: "'liga' Standard Ligatures in Latin lookup 0 subtable" k uni0324
EndChar

StartChar: c_h
Encoding: 65540 -1 146
Width: 613
VWidth: 2048
GlyphClass: 3
Flags: W
LayerCount: 2
Fore
SplineSet
330.838867188 56.2802734375 m 1,0,1
 494.639648438 145.3203125 494.639648438 145.3203125 495.142578125 267.455078125 c 0,2,3
 495.477107276 342.186951095 495.477107276 342.186951095 454.402216676 391.07957721 c 1,4,-1
 300.053893809 76.6513407836 l 1,5,6
 314.643301969 66.4438693602 314.643301969 66.4438693602 330.838867188 56.2802734375 c 1,0,1
97.3193359375 58.80078125 m 1,7,-1
 213.57421875 58.80078125 l 1,8,-1
 213.57421875 60.1435546875 l 1,9,10
 99 130.201171875 99 130.201171875 101.686523438 268.127929688 c 0,11,12
 104.516601562 493.8515625 104.516601562 493.8515625 331.510742188 499.295898438 c 0,13,14
 391.703040913 497.854174573 391.703040913 497.854174573 436.139670902 480.560139525 c 1,15,-1
 467.1796875 543.643554688 l 2,16,17
 473.757651118 557.012117444 473.757651118 557.012117444 494 556 c 0,18,19
 506 555 506 555 513.463867188 546.772460938 c 0,20,21
 521 538 521 538 520.330078125 528.309570312 c 0,22,23
 519.980946696 520.578065145 519.980946696 520.578065145 515.342773438 512.588867188 c 2,24,-1
 513.09765625 508.721679688 l 1,25,-1
 510.853515625 504.853515625 l 1,26,-1
 509.79296875 503.91796875 l 1,27,-1
 484.912941825 453.234016744 l 1,28,29
 558.288933136 396.061650664 558.288933136 396.061650664 561.334960938 268.127929688 c 0,30,31
 563.518554688 130.201171875 563.518554688 130.201171875 449.111328125 60.1435546875 c 1,32,-1
 449.111328125 58.80078125 l 1,33,-1
 565.366210938 58.80078125 l 1,34,-1
 565.366210938 1.0087890625 l 1,35,-1
 330 0 l 1,36,-1
 262.570353656 0.292341823906 l 1,37,-1
 221.090820312 -84.20703125 l 2,38,39
 218.368003826 -89.7537736438 218.368003826 -89.7537736438 212.484375 -93.6904296875 c 0,40,41
 205 -98 205 -98 196.266601562 -96.6875 c 0,42,43
 184 -96 184 -96 176.802734375 -87.4599609375 c 0,44,45
 169 -78 169 -78 170 -68 c 0,46,47
 170.963608346 -58.3639165442 170.963608346 -58.3639165442 173.98828125 -52.216796875 c 2,48,-1
 199.958822529 0.563794666977 l 1,49,-1
 97.3193359375 1.0087890625 l 1,50,-1
 97.3193359375 58.80078125 l 1,7,-1
409.319736736 426.053305217 m 1,51,52
 376.324443132 441.692709577 376.324443132 441.692709577 331.510742188 441.50390625 c 0,53,54
 251.0390625 441.000976562 251.0390625 441.000976562 209.54296875 391.775390625 c 128,-1,55
 167.87890625 342.719726562 167.87890625 342.719726562 167.54296875 267.455078125 c 0,56,57
 166.558286906 188.420763548 166.558286906 188.420763548 254.702712635 111.821194813 c 1,58,-1
 409.319736736 426.053305217 l 1,51,52
EndSplineSet
Validated: 33
LCarets2: 1 0
Ligature2: "'liga' Standard Ligatures in Latin lookup 1 subtable" uni02A7 uni02B0
Ligature2: "'liga' Standard Ligatures in Latin lookup 0 subtable" uni02A7 uni0324
EndChar

StartChar: j_h
Encoding: 65541 -1 147
Width: 550
GlyphClass: 3
Flags: W
LayerCount: 2
Fore
SplineSet
409 125 m 128,-1,1
 396 125 396 125 387 131 c 128,-1,2
 378 137 378 137 380 143 c 2,3,-1
 384 173 l 2,4,5
 386 180 386 180 395 184 c 0,6,7
 403 188 403 188 416 188 c 0,8,9
 431 188 431 188 439 181 c 128,-1,10
 447 174 447 174 446 166 c 2,11,-1
 441 140 l 2,12,13
 440 133 440 133 431 129 c 128,-1,0
 422 125 422 125 409 125 c 128,-1,1
276 478 m 1,14,15
 276 137 276 137 269 122 c 0,16,17
 261 105 261 105 247 86 c 128,-1,18
 233 67 233 67 222 59 c 0,19,20
 199 42 199 42 176 42 c 0,21,22
 131 42 131 42 96 113 c 0,23,24
 89 129 89 129 79 129 c 0,25,26
 71 129 71 129 66 121 c 0,27,28
 60 114 60 114 60 102 c 0,29,30
 60 94 60 94 66 82 c 0,31,32
 83 47 83 47 113 24 c 0,33,34
 143 0 143 0 179 0 c 0,35,36
 216 0 216 0 247 25 c 0,37,38
 254 31 254 31 275 77 c 0,39,40
 288 108 288 108 295 93 c 0,41,42
 314 50 314 50 344 25 c 0,43,44
 375 0 375 0 411 0 c 0,45,46
 446 0 446 0 478 24 c 0,47,48
 508 48 508 48 524 82 c 0,49,50
 530 94 530 94 530 102 c 0,51,52
 530 114 530 114 524 121 c 0,53,54
 519 129 519 129 511 129 c 0,55,56
 501 129 501 129 494 113 c 0,57,58
 460 43 460 43 411 43 c 0,59,60
 388 43 388 43 365 60 c 0,61,62
 338 82 338 82 321 119 c 0,63,64
 314 134 314 134 314 478 c 0,65,66
 313 480 313 480 311.5 482.5 c 128,-1,67
 310 485 310 485 305.5 490.5 c 128,-1,68
 301 496 301 496 296.5 497.5 c 128,-1,69
 292 499 292 499 286.5 495 c 128,-1,70
 281 491 281 491 276 478 c 1,14,15
EndSplineSet
Validated: 9
Ligature2: "'liga' Standard Ligatures in Latin lookup 1 subtable" uni02A4 uni02B0
Ligature2: "'liga' Standard Ligatures in Latin lookup 0 subtable" uni02A4 uni0324
EndChar

StartChar: D_h
Encoding: 65542 -1 148
Width: 568
GlyphClass: 2
Flags: W
LayerCount: 2
Fore
SplineSet
315 495 m 0,0,1
 338 495 338 495 347 476 c 2,2,-1
 415 329 l 1,3,-1
 536 435 l 2,4,5
 549 449 549 449 562 449 c 0,6,7
 572 449 572 449 582 441 c 0,8,9
 590 431 590 431 590 423 c 0,10,11
 590 414 590 414 586 407 c 2,12,-1
 584 403 l 2,13,14
 583 401 583 401 582 400 c 2,15,-1
 581 398 l 1,16,-1
 439 275 l 1,17,-1
 541 53 l 2,18,19
 545 46 545 46 545 41 c 0,20,21
 547 38 547 38 547 30 c 0,22,23
 547 19 547 19 539 9 c 0,24,25
 532 0 532 0 521 0 c 2,26,-1
 123 0 l 1,27,-1
 80 -37 l 2,28,29
 79 -38 79 -38 76.5 -42 c 128,-1,30
 74 -46 74 -46 72 -47 c 0,31,32
 65 -51 65 -51 56 -51 c 0,33,34
 44 -51 44 -51 36 -43 c 128,-1,35
 28 -35 28 -35 28 -24 c 0,36,37
 28 -16 28 -16 31 -8 c 1,38,-1
 81 36 l 2,39,40
 82 41 82 41 88 52 c 1,41,-1
 88 53 l 1,42,-1
 283 474 l 2,43,44
 294 495 294 495 315 495 c 0,0,1
187 56 m 1,45,-1
 481 56 l 1,46,-1
 396 237 l 1,47,-1
 187 56 l 1,45,-1
184 126 m 1,48,-1
 371 290 l 1,49,-1
 316 407 l 1,50,-1
 184 126 l 1,48,-1
EndSplineSet
Validated: 1
Ligature2: "'liga' Standard Ligatures in Latin lookup 1 subtable" uni0256 uni02B0
Ligature2: "'liga' Standard Ligatures in Latin lookup 1 subtable" d uni0324
Ligature2: "'liga' Standard Ligatures in Latin lookup 0 subtable" uni0256 uni0324
Ligature2: "'liga' Standard Ligatures in Latin lookup 0 subtable" d uni02B0
EndChar

StartChar: dh
Encoding: 65543 -1 149
Width: 577
GlyphClass: 3
Flags: W
LayerCount: 2
Fore
SplineSet
421 400 m 1,0,1
 375 439 375 439 315 440 c 0,2,3
 247 441 247 441 193.5 375.5 c 128,-1,4
 140 310 140 310 136 222 c 0,5,6
 135 216 135 216 135 197 c 0,7,8
 135 173 135 173 139 149 c 1,9,-1
 421 400 l 1,0,1
499 393 m 1,10,11
 531 348 531 348 545.5 289.5 c 128,-1,12
 560 231 560 231 555 171 c 128,-1,13
 550 111 550 111 520 63 c 128,-1,14
 490 15 490 15 444 3 c 0,15,16
 406 -7 406 -7 369.5 15 c 128,-1,17
 333 37 333 37 321 81 c 1,18,19
 318 77 318 77 305.5 54 c 128,-1,20
 293 31 293 31 281 25 c 0,21,22
 247 -3 247 -3 203 1 c 128,-1,23
 159 5 159 5 131 42 c 2,24,-1
 119 58 l 1,25,-1
 78 22 l 2,26,27
 76 21 76 21 74 17 c 128,-1,28
 72 13 72 13 70 12 c 0,29,30
 63 8 63 8 54 8 c 0,31,32
 42 8 42 8 34 16 c 128,-1,33
 26 24 26 24 26 35 c 0,34,35
 26 48 26 48 29 51 c 2,36,-1
 94 109 l 1,37,38
 81 147 81 147 80 201 c 0,39,40
 79 293 79 293 126 370 c 128,-1,41
 173 447 173 447 245 473 c 1,42,43
 288 493 288 493 326 493 c 0,44,45
 361 494 361 494 421 465 c 0,46,47
 439 456 439 456 461 436 c 1,48,-1
 497 468 l 2,49,50
 513 482 513 482 523 482 c 128,-1,51
 533 482 533 482 543 474 c 0,52,53
 551 464 551 464 551 456 c 0,54,55
 551 447 551 447 547 440 c 2,56,-1
 545 436 l 1,57,-1
 543 432 l 1,58,-1
 542 431 l 1,59,-1
 499 393 l 1,10,11
458 358 m 1,60,-1
 158 94 l 1,61,62
 174 67 174 67 192 59 c 0,63,64
 219 47 219 47 245 65.5 c 128,-1,65
 271 84 271 84 284 118 c 0,66,67
 299 151 299 151 299 197 c 1,68,-1
 340 197 l 1,69,70
 338 150 338 150 357.5 109.5 c 128,-1,71
 377 69 377 69 410 58 c 0,72,73
 431 49 431 49 452 62.5 c 128,-1,74
 473 76 473 76 484 102 c 0,75,76
 505 150 505 150 504.5 203.5 c 128,-1,77
 504 257 504 257 485 306 c 0,78,79
 474 335 474 335 458 358 c 1,60,-1
EndSplineSet
Validated: 33
Ligature2: "'liga' Standard Ligatures in Latin lookup 1 subtable" eth uni02B0
Ligature2: "'liga' Standard Ligatures in Latin lookup 0 subtable" eth uni0324
EndChar

StartChar: D_
Encoding: 65544 -1 150
Width: 568
GlyphClass: 3
Flags: W
LayerCount: 2
Fore
SplineSet
316 407 m 1,0,-1
 151 56 l 1,1,-1
 324 56 l 1,2,-1
 411 205 l 1,3,-1
 316 407 l 1,0,-1
315 495 m 0,4,5
 338 495 338 495 347 476 c 2,6,-1
 445 262 l 1,7,-1
 490 339 l 2,8,9
 493 344 493 344 499 344 c 0,10,11
 505 345 505 345 513 340 c 0,12,13
 519 336 519 336 521 330 c 0,14,15
 525 325 525 325 522 320 c 2,16,-1
 464 221 l 1,17,-1
 541 53 l 2,18,19
 545 46 545 46 545 41 c 0,20,21
 547 38 547 38 547 30 c 0,22,23
 547 19 547 19 539 9 c 0,24,25
 532 0 532 0 521 0 c 2,26,-1
 334 0 l 1,27,-1
 283 -86 l 2,28,29
 280 -91 280 -91 273 -91 c 0,30,31
 267 -92 267 -92 261 -88 c 0,32,33
 254 -84 254 -84 252 -78 c 0,34,35
 248 -72 248 -72 251 -67 c 2,36,-1
 291 0 l 1,37,-1
 107 0 l 2,38,39
 94 0 94 0 88 9 c 0,40,41
 80 17 80 17 80 30 c 0,42,43
 80 38 80 38 88 52 c 1,44,-1
 88 53 l 1,45,-1
 283 474 l 2,46,47
 294 495 294 495 315 495 c 0,4,5
310 137 m 128,-1,49
 294 137 294 137 284 149 c 0,50,51
 274 159 274 159 274 177 c 128,-1,52
 274 195 274 195 288 211 c 0,53,54
 302 226 302 226 318 226 c 0,55,56
 332 226 332 226 343 215 c 0,57,58
 353 204 353 204 353 187 c 0,59,60
 353 165 353 165 340 152 c 0,61,48
 326 137 326 137 310 137 c 128,-1,49
367 56 m 1,62,-1
 481 56 l 1,63,-1
 430 164 l 1,64,-1
 367 56 l 1,62,-1
EndSplineSet
Validated: 1
Ligature2: "'liga' Standard Ligatures in Latin lookup 0 subtable" uni027D uni0325
EndChar

StartChar: g_h
Encoding: 65545 -1 151
Width: 597
GlyphClass: 3
Flags: W
LayerCount: 2
Fore
SplineSet
378 -76 m 0,0,1
 366 -76 366 -76 355 -66 c 0,2,3
 345 -56 345 -56 345 -44 c 2,4,-1
 345 -3 l 1,5,6
 309 4 309 4 276 23 c 0,7,8
 224 52 224 52 196 101 c 0,9,10
 166 150 166 150 166 211 c 0,11,12
 166 278 166 278 198 345 c 0,13,14
 231 412 231 412 281 452 c 0,15,16
 313 476 313 476 345 486 c 1,17,-1
 345 537 l 2,18,19
 345 550 345 550 355 560 c 128,-1,20
 365 570 365 570 378 570 c 128,-1,21
 391 570 391 570 401 560 c 0,22,23
 410 551 410 551 410 537 c 2,24,-1
 410 492 l 1,25,26
 447 489 447 489 475 476 c 0,27,28
 506 460 506 460 539 423 c 0,29,30
 547 415 547 415 547 402 c 0,31,32
 547 390 547 390 539 380 c 0,33,34
 530 371 530 371 517 371 c 0,35,36
 503 371 503 371 494 382 c 0,37,38
 470 410 470 410 449 422 c 0,39,40
 433 431 433 431 410 434 c 1,41,-1
 410 54 l 1,42,43
 478 63 478 63 518 121 c 0,44,45
 532 139 532 139 546 139 c 0,46,47
 559 139 559 139 568 130 c 128,-1,48
 577 121 577 121 577 109 c 0,49,50
 577 99 577 99 567 86 c 0,51,52
 541 48 541 48 492 21 c 0,53,54
 453 0 453 0 410 -5 c 1,55,-1
 410 -44 l 2,56,57
 410 -57 410 -57 401 -66 c 0,58,59
 392 -76 392 -76 378 -76 c 0,0,1
345 424 m 1,60,61
 329 416 329 416 313 403 c 0,62,63
 275 371 275 371 251 320 c 0,64,65
 227 268 227 268 227 213 c 0,66,67
 227 163 227 163 251 127 c 0,68,69
 273 91 273 91 311 71 c 0,70,71
 328 62 328 62 345 57 c 1,72,-1
 345 424 l 1,60,61
EndSplineSet
Validated: 1
Ligature2: "'liga' Standard Ligatures in Latin lookup 1 subtable" uni0261 uni0324
Ligature2: "'liga' Standard Ligatures in Latin lookup 1 subtable" g uni02B0
Ligature2: "'liga' Standard Ligatures in Latin lookup 0 subtable" uni0261 uni02B0
Ligature2: "'liga' Standard Ligatures in Latin lookup 0 subtable" g uni0324
EndChar

StartChar: b_h
Encoding: 65546 -1 152
Width: 604
GlyphClass: 3
Flags: W
LayerCount: 2
Fore
SplineSet
377 56 m 0,0,1
 412 56 412 56 447 65 c 0,2,3
 479 74 479 74 502 92 c 0,4,5
 523 110 523 110 523 137 c 0,6,7
 523 172 523 172 484 196 c 0,8,9
 452 216 452 216 397 230 c 1,10,-1
 324 61 l 1,11,12
 349 56 349 56 377 56 c 0,0,1
240 -94 m 0,13,14
 228 -94 228 -94 220 -86 c 128,-1,15
 212 -78 212 -78 212 -67 c 0,16,17
 212 -58 212 -58 215 -51 c 2,18,-1
 247 23 l 1,19,20
 215 38 215 38 197 61 c 0,21,22
 171 92 171 92 171 129 c 0,23,24
 173 181 173 181 209 212 c 0,25,26
 245 245 245 245 303 266 c 1,27,28
 257 282 257 282 230 308 c 0,29,30
 203 332 203 332 203 370 c 0,31,32
 203 411 203 411 228 440 c 0,33,34
 252 468 252 468 296 485 c 0,35,36
 337 501 337 501 388 501 c 0,37,38
 421 501 421 501 450 495 c 1,39,-1
 482 570 l 2,40,41
 488 584 488 584 508 584 c 0,42,43
 520 584 520 584 528 576 c 128,-1,44
 536 568 536 568 536 558 c 0,45,46
 536 549 536 549 532 542 c 2,47,-1
 530 538 l 1,48,-1
 528 534 l 1,49,-1
 527 533 l 1,50,-1
 503 477 l 1,51,52
 528 463 528 463 544 444 c 0,53,54
 567 415 567 415 567 382 c 0,55,56
 567 342 567 342 539 317 c 0,57,58
 511 291 511 291 463 272 c 1,59,60
 519 250 519 250 553 215 c 0,61,62
 584 180 584 180 584 137 c 0,63,64
 584 97 584 97 557 64 c 128,-1,65
 530 31 530 31 483 13 c 0,66,67
 438 -6 438 -6 377 -6 c 0,68,69
 335 -6 335 -6 300 3 c 1,70,-1
 264 -80 l 2,71,72
 261 -88 261 -88 256 -90 c 0,73,74
 249 -94 249 -94 240 -94 c 0,13,14
431 310 m 1,75,76
 466 324 466 324 482 338 c 0,77,78
 508 361 508 361 508 389 c 0,79,80
 508 415 508 415 484 433 c 1,81,-1
 431 310 l 1,75,76
432 453 m 1,82,83
 413 457 413 457 391 457 c 0,84,85
 339 457 339 457 303 436 c 0,86,87
 267 414 267 414 267 375 c 0,88,89
 267 346 267 346 295 327 c 0,90,91
 318 311 318 311 366 300 c 1,92,-1
 432 453 l 1,82,83
329 214 m 1,93,94
 317 210 317 210 306 206 c 0,95,96
 279 196 279 196 255 177 c 0,97,98
 232 157 232 157 232 129 c 0,99,100
 232 97 232 97 271 79 c 1,101,-1
 329 214 l 1,93,94
EndSplineSet
Validated: 1
Ligature2: "'liga' Standard Ligatures in Latin lookup 1 subtable" b uni0324
Ligature2: "'liga' Standard Ligatures in Latin lookup 0 subtable" b uni02B0
EndChar

StartChar: R_i
Encoding: 65547 -1 153
Width: 615
GlyphClass: 3
Flags: W
LayerCount: 2
Fore
SplineSet
362 407 m 128,-1,1
 346 407 346 407 336 419 c 0,2,3
 326 429 326 429 326 447 c 128,-1,4
 326 465 326 465 340 481 c 0,5,6
 354 496 354 496 370 496 c 0,7,8
 384 496 384 496 395 485 c 0,9,10
 405 474 405 474 405 457 c 0,11,12
 405 435 405 435 392 422 c 0,13,0
 378 407 378 407 362 407 c 128,-1,1
545 -6 m 0,14,15
 530 -6 530 -6 522 3 c 2,16,-1
 355 209 l 1,17,-1
 160 4 l 2,18,19
 151 -5 151 -5 137 -5 c 0,20,21
 125 -5 125 -5 116 5 c 0,22,23
 107 14 107 14 107 26 c 0,24,25
 107 40 107 40 116 49 c 2,26,-1
 314 252 l 1,27,-1
 156 441 l 2,28,29
 147 452 147 452 147 463 c 128,-1,30
 147 474 147 474 156 485 c 0,31,32
 165 494 165 494 178 494 c 0,33,34
 192 494 192 494 200 485 c 2,35,-1
 358 292 l 1,36,-1
 541 483 l 2,37,38
 550 492 550 492 564 492 c 0,39,40
 576 492 576 492 586 483 c 0,41,42
 595 472 595 472 595 461 c 0,43,44
 595 448 595 448 586 439 c 2,45,-1
 399 249 l 1,46,-1
 570 45 l 2,47,48
 576 36 576 36 576 25 c 0,49,50
 576 12 576 12 567 3 c 128,-1,51
 558 -6 558 -6 545 -6 c 0,14,15
EndSplineSet
Validated: 1
Ligature2: "'liga' Standard Ligatures in Latin lookup 0 subtable" r uni0329
EndChar

StartChar: a_i
Encoding: 65548 -1 154
Width: 658
GlyphClass: 3
Flags: W
LayerCount: 2
Fore
SplineSet
279 297 m 0,0,1
 267 297 267 297 257 302 c 0,2,3
 248 308 248 308 248 314 c 0,4,5
 248 318 248 318 252 322 c 2,6,-1
 349 437 l 1,7,-1
 155 646 l 2,8,9
 151 651 151 651 151 655 c 0,10,11
 151 662 151 662 161 668 c 0,12,13
 171 673 171 673 183 673 c 0,14,15
 191 673 191 673 201 669 c 0,16,17
 208 666 208 666 213 661 c 2,18,-1
 383 477 l 1,19,-1
 540 662 l 2,20,21
 551 673 551 673 570 673 c 0,22,23
 582 673 582 673 592 668 c 0,24,25
 601 664 601 664 601 656 c 0,26,27
 601 650 601 650 598 649 c 2,28,-1
 309 308 l 2,29,30
 298 297 298 297 279 297 c 0,0,1
124 4 m 2,31,32
 110 4 110 4 102 13 c 0,33,34
 93 20 93 20 93 35 c 0,35,36
 93 48 93 48 102 58 c 0,37,38
 111 67 111 67 124 67 c 2,39,-1
 607 67 l 2,40,41
 618 67 618 67 629 58 c 0,42,43
 638 48 638 48 638 35 c 128,-1,44
 638 22 638 22 629 13 c 0,45,46
 618 4 618 4 607 4 c 2,47,-1
 124 4 l 2,31,32
EndSplineSet
Validated: 1
LCarets2: 1 0
Ligature2: "'liga' Standard Ligatures in Latin lookup 0 subtable" a uni026A
EndChar

StartChar: uni0279
Encoding: 633 633 155
Width: 382
Flags: W
LayerCount: 2
Fore
SplineSet
219 310 m 0,0,1
 209 310 209 310 196 318 c 0,2,3
 186 324 186 324 186 334 c 2,4,-1
 188 505 l 2,5,6
 188.118164062 515.083007812 188.118164062 515.083007812 198 522 c 0,7,8
 209 530 209 530 221 530 c 0,9,10
 234 530 234 530 244 523 c 0,11,12
 253.127929688 515.900390625 253.127929688 515.900390625 253 505 c 2,13,-1
 251 334 l 2,14,15
 250.905273438 325.916015625 250.905273438 325.916015625 241.953125 317.958007812 c 128,-1,16
 233 310 233 310 219 310 c 0,0,1
216 15 m 0,17,18
 206 15 206 15 193 23 c 0,19,20
 183 29 183 29 183 39 c 2,21,-1
 185 210 l 2,22,23
 185.118164062 220.083007812 185.118164062 220.083007812 195 227 c 0,24,25
 206 235 206 235 218 235 c 0,26,27
 231 235 231 235 241 228 c 0,28,29
 250.127929688 220.900390625 250.127929688 220.900390625 250 210 c 2,30,-1
 248 39 l 2,31,32
 247.905273438 30.916015625 247.905273438 30.916015625 238.953125 22.9580078125 c 128,-1,33
 230 15 230 15 216 15 c 0,17,18
EndSplineSet
EndChar

StartChar: r_.
Encoding: 65549 -1 156
Width: 382
Flags: W
LayerCount: 2
Fore
SplineSet
303.50390625 605.181640625 m 0,0,1
 303 595 303 595 294.482421875 582.03125 c 0,2,3
 287.787109375 571.669921875 287.787109375 571.669921875 278.06640625 571.827148438 c 2,4,-1
 147.525390625 573.934570312 l 2,5,6
 137.936523438 574.08984375 137.936523438 574.08984375 131.013671875 583.771484375 c 0,7,8
 124 595 124 595 124.0703125 606.743164062 c 0,9,10
 125 620 125 620 132.092773438 629.8828125 c 0,11,12
 139 639 139 639 150.4609375 639.107421875 c 2,13,-1
 281 637 l 2,14,15
 289.112304688 636.869140625 289.112304688 636.869140625 296.599609375 628.107421875 c 0,16,17
 304 619 304 619 303.50390625 605.181640625 c 0,0,1
219 310 m 0,18,19
 209 310 209 310 196 318 c 0,20,21
 186 324 186 324 186 334 c 2,22,-1
 188 505 l 2,23,24
 188.118164062 515.083007812 188.118164062 515.083007812 198 522 c 0,25,26
 209 530 209 530 221 530 c 0,27,28
 234 530 234 530 244 523 c 0,29,30
 253.127929688 515.900390625 253.127929688 515.900390625 253 505 c 2,31,-1
 251 334 l 2,32,33
 250.905273438 325.916015625 250.905273438 325.916015625 241.953125 317.958007812 c 128,-1,34
 233 310 233 310 219 310 c 0,18,19
216 15 m 0,35,36
 206 15 206 15 193 23 c 0,37,38
 183 29 183 29 183 39 c 2,39,-1
 185 210 l 2,40,41
 185.118164062 220.083007812 185.118164062 220.083007812 195 227 c 0,42,43
 206 235 206 235 218 235 c 0,44,45
 231 235 231 235 241 228 c 0,46,47
 250.127929688 220.900390625 250.127929688 220.900390625 250 210 c 2,48,-1
 248 39 l 2,49,50
 247.905273438 30.916015625 247.905273438 30.916015625 238.953125 22.9580078125 c 128,-1,51
 230 15 230 15 216 15 c 0,35,36
EndSplineSet
LCarets2: 1 0
Ligature2: "'liga' Standard Ligatures in Latin lookup 0 subtable" uni0279 uni0329
EndChar
